<?xml version="1.0" encoding="utf-8"?>
<!-- Generator: Adobe Illustrator 16.0.0, SVG Export Plug-In . SVG Version: 6.00 Build 0)  -->
<!DOCTYPE svg PUBLIC "-//W3C//DTD SVG 1.1//EN" "http://www.w3.org/Graphics/SVG/1.1/DTD/svg11.dtd">
<svg version="1.1" id="Layer_1" xmlns="http://www.w3.org/2000/svg" xmlns:xlink="http://www.w3.org/1999/xlink" x="0px" y="0px"
	 width="1024px" height="546px" viewBox="0 0 1024 546" style="enable-background:new 0 0 1024 546;" xml:space="preserve">
<style type="text/css">
<![CDATA[
	.st0{fill:#143443;}
	.st1{fill:#565656;}
	.st2{fill:#572E2C;}
	.st3{fill:#F04F37;}
	.st4{fill:#F8F5E4;}
	.st5{opacity:0.2;fill:#572E2C;enable-background:new    ;}
	.st6{display:inline;}
	.st7{fill:#9ED5BD;}
	.st8{display:none;}
]]>
</style>
<g id="Layer_1_1_">
	<rect class="st1" width="1025.686" height="546"/>
	<path id="XMLID_825_" class="st7" d="M466.116,546.336c0,0-6.863-101.125,81.054-151.587
		c37.939-21.775,52.671,1.938,114.284-26.184c46.972-21.438,112.02,0.059,135.017,36.957L889.492,546L466.116,546.336z"/>
	<g id="XMLID_826_">
		<g id="XMLID_857_">
			<rect id="XMLID_856_" x="360.621" y="365.608" class="st2" width="3.477" height="13.165"/>
			<rect id="XMLID_851_" x="355.653" y="360.918" class="st2" width="3.477" height="13.163"/>
		</g>
		<polygon id="XMLID_848_" class="st3" points="393.323,458.483 353.346,458.483 353.346,388.35 393.323,388.35 393.323,397.701 		
			"/>
		<polygon id="XMLID_847_" class="st2" points="353.346,458.483 333.358,458.483 333.358,388.35 343.352,374.227 353.346,388.35 		
			"/>
		<path id="XMLID_827_" class="st4" d="M399.457,391.252l-11.712-16.975c-0.823-1.193-2.181-1.904-3.63-1.904h-40.392
			c-1.056,0-2.045,0.515-2.653,1.377l-12.332,17.502c-0.719,1.041,0.027,2.462,1.292,2.462h3.328v-5.364l9.984-14.089l12.954,18.774
			c0.294,0.424,0.777,0.679,1.293,0.679h40.575C399.43,393.714,400.175,392.293,399.457,391.252z"/>
		<circle id="XMLID_728_" class="st3" cx="343.352" cy="387.263" r="3.196"/>
		<path id="XMLID_740_" class="st5" d="M386.061,393.785c0,0-2.077,5.154-10.755,9.905c-8.679,4.754-13.223,5.185-8.917,10.12
			c4.306,4.938-13.352,24.59-13.352,24.59s16.302,5.806,24.438,3.247c8.136-2.559,14.555-26.528,14.555-26.528L386.061,393.785z"/>
	</g>
	<g id="XMLID_829_">
		<polygon id="XMLID_834_" class="st2" points="421.119,511.536 461.094,511.536 461.094,441.402 421.119,441.402 421.119,450.755 
					"/>
		<polygon id="XMLID_833_" class="st3" points="461.094,511.536 481.082,511.536 481.082,441.402 471.088,427.282 461.094,441.402 
					"/>
		<path id="XMLID_830_" class="st4" d="M414.984,444.306l11.712-16.973c0.823-1.193,2.181-1.906,3.63-1.906h40.391
			c1.057,0,2.046,0.515,2.654,1.378l12.331,17.501c0.719,1.042-0.026,2.462-1.291,2.462h-3.329v-5.364l-9.983-14.088l-12.956,18.774
			c-0.293,0.425-0.775,0.678-1.292,0.678h-40.575C415.01,446.768,414.265,445.348,414.984,444.306z"/>
		<rect id="XMLID_841_" x="427.063" y="453.624" class="st7" width="6.328" height="11.584"/>
		<rect id="XMLID_845_" x="439.539" y="466.823" class="st7" width="6.689" height="13.739"/>
		<rect id="XMLID_846_" x="467.744" y="466.823" class="st2" width="6.688" height="13.739"/>
		<rect id="XMLID_850_" x="467.744" y="444.221" class="st4" width="6.688" height="13.742"/>
		<rect id="XMLID_849_" x="427.063" y="481.286" class="st7" width="6.328" height="12.836"/>
	</g>
	<g id="XMLID_837_">
		<circle id="XMLID_840_" class="st4" cx="721.018" cy="349.117" r="12.751"/>
		<path id="XMLID_839_" class="st2" d="M729.146,346.685c-2.411,2.757-4.824,5.512-7.238,8.266c0-1.309,0-2.614,0-3.924
			c0.059-0.15,0.062-0.315,0-0.476c0-2.908,0-5.817,0-8.728c0-1.147-1.781-1.147-1.781,0c0,2.396,0,4.794,0,7.189
			c-2.262-1.776-4.523-3.551-6.784-5.328c-0.894-0.7-2.163,0.553-1.26,1.262c2.681,2.104,5.362,4.212,8.044,6.316
			c0,7.141,0,14.278,0,21.419c0,1.147,1.781,1.149,1.781,0c0-5.012,0-10.021,0-15.031c2.834-3.234,5.667-6.471,8.5-9.706
			C731.16,347.086,729.904,345.819,729.146,346.685z"/>
	</g>
	<g id="XMLID_854_">
		<rect id="XMLID_866_" x="619.891" y="350.5" class="st2" width="3.478" height="13.164"/>
		<polygon id="XMLID_877_" class="st3" points="641.085,384.499 613.473,384.499 613.473,365.621 641.085,365.621 641.085,372.08 		
			"/>
		<polygon id="XMLID_876_" class="st2" points="613.473,384.499 599.666,384.499 599.666,365.621 606.57,355.866 613.473,365.621 		
			"/>
		<path id="XMLID_873_" class="st4" d="M608.991,384.499h-4.843v-6.918c0-1.336,1.084-2.419,2.422-2.419l0,0
			c1.336,0,2.421,1.083,2.421,2.419V384.499z"/>
		<path id="XMLID_870_" class="st0" d="M621.629,377.945h-3.521v-5.026c0-0.971,0.786-1.759,1.759-1.759l0,0
			c0.973,0,1.763,0.788,1.763,1.759L621.629,377.945L621.629,377.945z"/>
		<path id="XMLID_867_" class="st0" d="M629.76,377.945h-3.518v-5.026c0-0.971,0.788-1.759,1.76-1.759l0,0
			c0.973,0,1.758,0.788,1.758,1.759V377.945z"/>
		<path id="XMLID_860_" class="st4" d="M637.895,377.945h-3.519v-5.026c0-0.971,0.788-1.759,1.761-1.759l0,0
			c0.972,0,1.758,0.788,1.758,1.759V377.945z"/>
		<circle id="XMLID_859_" class="st4" cx="606.569" cy="363.12" r="1.522"/>
		<polyline id="XMLID_858_" class="st5" points="613.473,364.17 613.473,384.499 641.085,369.325 		"/>
		<path id="XMLID_855_" class="st4" d="M645.322,367.626l-8.09-11.724c-0.568-0.825-1.508-1.317-2.51-1.317h-27.896
			c-0.729,0-1.414,0.354-1.833,0.95l-8.519,12.091c-0.496,0.72,0.02,1.699,0.893,1.699h2.299v-3.704l6.896-9.732l8.946,12.969
			c0.204,0.294,0.537,0.469,0.895,0.469h28.026C645.303,369.325,645.819,368.346,645.322,367.626z"/>
	</g>
	<g id="XMLID_1058_">
		<circle id="XMLID_1061_" class="st4" cx="643.795" cy="403.092" r="9.014"/>
		<path id="XMLID_1059_" class="st2" d="M649.542,401.375c-1.705,1.946-3.411,3.894-5.118,5.841c0-0.925,0-1.849,0-2.771
			c0.041-0.108,0.045-0.227,0-0.336c0-2.059,0-4.113,0-6.171c0-0.811-1.258-0.813-1.258,0c0,1.693,0,3.39,0,5.082
			c-1.599-1.255-3.197-2.511-4.796-3.766c-0.631-0.496-1.528,0.391-0.893,0.891c1.896,1.488,3.791,2.979,5.688,4.466
			c0,5.048,0,10.095,0,15.141c0,0.812,1.258,0.813,1.258,0c0-3.542,0-7.083,0-10.626c2.004-2.286,4.007-4.573,6.01-6.86
			C650.965,401.658,650.078,400.762,649.542,401.375z"/>
	</g>
	<g id="XMLID_1169_">
		<path id="XMLID_1198_" class="st3" d="M74.588,326.656c0,17.261,13.987,31.248,31.238,31.248
			c17.266,0,31.258-13.987,31.258-31.248c0-17.25-13.992-31.237-31.258-31.237C88.576,295.419,74.588,309.406,74.588,326.656z"/>
		<path id="XMLID_1197_" class="st2" d="M125.753,320.702c-5.919,6.75-11.818,13.495-17.743,20.245c0-3.197,0-6.405,0-9.613
			c0.142-0.37,0.157-0.775,0-1.16c0-7.131,0-14.256,0-21.381c0-2.813-4.368-2.823-4.368,0c0,5.863,0,11.742,0,17.62
			c-5.534-4.354-11.083-8.706-16.617-13.061c-2.184-1.718-5.301,1.35-3.091,3.088c6.573,5.163,13.146,10.321,19.708,15.485
			c0,17.484,0,34.983,0,52.467c0,2.813,4.368,2.823,4.368,0c0-12.269,0-24.548,0-36.832c6.943-7.916,13.886-15.848,20.824-23.777
			C130.688,321.68,127.607,318.578,125.753,320.702z"/>
	</g>
	<path id="XMLID_864_" class="st2" d="M365.022,357.434v-1.852c0-2.713-2.198-4.91-4.91-4.91l0,0c-1.4,0-2.534-1.135-2.534-2.533
		l0,0c0-1.399,1.134-2.535,2.534-2.535h8.602c2.006,0,3.631-1.625,3.631-3.631l0,0c0-2.063-1.675-3.739-3.74-3.739h-4.441
		c-1.949,0-3.529-1.578-3.529-3.529l0,0c0-2.248,1.823-4.07,4.072-4.07h18.239c2.036,0,3.686-1.649,3.686-3.686l0,0
		c0-2.035-1.65-3.687-3.686-3.687h-18.841c-4.361,0-7.896,3.533-7.896,7.896l0,0c0,5.451,4.418,9.869,9.869,9.869h1.473
		c0.89,0,1.609,0.721,1.609,1.608l0,0c0,0.75-0.607,1.355-1.356,1.355h-9.369c-2.798,0-5.067,2.27-5.067,5.069l0,0
		c0,2.798,2.269,5.066,5.067,5.066h2.516c0.75,0,1.356,0.607,1.356,1.357v1.948c0,0.75,0.608,1.357,1.357,1.357l0,0
		C364.415,358.791,365.022,358.184,365.022,357.434z"/>
	<path id="XMLID_868_" class="st4" d="M618.834,347.201v-1.853c0-2.711,2.197-4.909,4.909-4.909l0,0
		c1.397,0,2.534-1.136,2.534-2.535l0,0c0-1.398-1.137-2.533-2.534-2.533h-8.604c-2.003,0-3.63-1.625-3.63-3.63l0,0
		c0-2.065,1.674-3.739,3.74-3.739h4.438c1.948,0,3.531-1.581,3.531-3.53l0,0c0-2.249-1.824-4.071-4.072-4.071h-18.24
		c-2.034,0-3.687-1.65-3.687-3.687l0,0c0-2.036,1.651-3.686,3.687-3.686h18.843c4.359,0,7.896,3.533,7.896,7.896l0,0
		c0,5.451-4.419,9.868-9.869,9.868h-1.472c-0.891,0-1.608,0.722-1.608,1.609l0,0c0,0.751,0.606,1.355,1.354,1.355h9.367
		c2.8,0,5.068,2.271,5.068,5.068l0,0c0,2.799-2.27,5.067-5.068,5.067h-2.516c-0.748,0-1.355,0.607-1.355,1.355v1.951
		c0,0.748-0.607,1.356-1.356,1.356l0,0C619.441,348.559,618.834,347.949,618.834,347.201z"/>
	<g id="XMLID_871_">
		<g>
			<polygon id="XMLID_34_" class="st7" points="847.125,322.175 853.771,316.42 860.418,322.175 			"/>
			<polygon id="XMLID_33_" class="st7" points="843.7,329.813 853.771,321.09 863.843,329.813 			"/>
			<polygon id="XMLID_32_" class="st7" points="838.868,341.635 853.771,328.727 868.675,341.635 			"/>
		</g>
	</g>
	<path id="XMLID_755_" class="st7" d="M652.81,330.793c0-0.01,0-0.021,0-0.032c0-3.086,2.503-5.588,5.589-5.588
		c0.33,0,0.651,0.026,0.965,0.081c1.125-2.67,3.771-4.545,6.852-4.545c2.351,0,4.441,1.089,5.807,2.79
		c1.087-0.694,2.38-1.099,3.764-1.099c3.531,0,6.449,2.611,6.932,6.01c0.023,0,0.046-0.002,0.069-0.002
		c1.438,0,2.64,1.024,2.91,2.385H652.81L652.81,330.793z"/>
	<path id="XMLID_1065_" class="st4" d="M84.564,88.192c0-12.351,7.029-23.055,17.301-28.347c-4.37-2.252-9.322-3.532-14.577-3.532
		c-17.607,0-31.879,14.273-31.879,31.879c0,17.607,14.272,31.88,31.879,31.88c5.254,0,10.207-1.279,14.577-3.532
		C91.593,111.247,84.564,100.544,84.564,88.192z"/>
	<g id="XMLID_1237_">
		<path id="XMLID_1239_" class="st5" d="M561.063,531.843c-0.84,0-1.661,0.072-2.462,0.212c-2.886-6.833-9.647-11.629-17.531-11.629
			c-1.984,0-3.896,0.312-5.695,0.876c5.338,1.678,9.664,5.646,11.822,10.753c0.799-0.14,1.621-0.212,2.461-0.212
			c7.896,0,14.301,6.403,14.301,14.301c0,0.028,0,0.055-0.002,0.083h11.408c0-0.028,0-0.055,0-0.083
			C575.363,538.246,568.96,531.843,561.063,531.843z"/>
	</g>
	<path id="XMLID_1633_" class="st7" d="M743.76,172.672c-4.279,0-8.231,1.393-11.436,3.745c-5.47-9.754-15.9-16.35-27.875-16.35
		c-10.563,0-19.925,5.129-25.736,13.026c-1.299-0.275-2.648-0.422-4.029-0.422c-7.432,0-13.881,4.195-17.119,10.344
		c-2.217-2.102-5.213-3.394-8.512-3.394c-6.842,0-12.387,5.547-12.387,12.388h126.432
		C763.098,181.329,754.439,172.672,743.76,172.672z"/>
	<path id="XMLID_1063_" class="st7" d="M515.308,133.424c3.196,0,6.151,1.041,8.545,2.799c4.087-7.289,11.882-12.218,20.832-12.218
		c7.892,0,14.887,3.832,19.231,9.735c0.973-0.207,1.978-0.317,3.012-0.317c5.554,0,10.372,3.135,12.791,7.73
		c1.659-1.571,3.896-2.537,6.361-2.537c5.111,0,9.257,4.145,9.257,9.257h-94.48C500.856,139.894,507.327,133.424,515.308,133.424z"
		/>
	<path id="XMLID_1632_" class="st4" d="M68.545,220.482c4.575,0,8.8,1.489,12.224,4.003c5.846-10.427,16.997-17.477,29.801-17.477
		c11.291,0,21.296,5.483,27.513,13.926c1.39-0.294,2.829-0.452,4.306-0.452c7.946,0,14.84,4.485,18.301,11.059
		c2.373-2.246,5.574-3.628,9.1-3.628c7.314,0,13.242,5.928,13.242,13.243H47.872C47.872,229.738,57.127,220.482,68.545,220.482z"/>
	<path id="XMLID_1631_" class="st7" d="M277.703,164.158c-0.506-11.143-9.699-20.023-20.968-20.023
		c-3.025,0-5.897,0.644-8.496,1.796c-2.771-16.377-17.014-28.851-34.179-28.851c-16.553,0-30.387,11.602-33.838,27.116
		c-10.562,0.761-18.958,9.327-19.441,19.962H277.703z"/>
	<path id="XMLID_1630_" class="st4" d="M339.768,135.939c0.34-7.512,6.537-13.498,14.132-13.498c2.039,0,3.975,0.435,5.727,1.21
		c1.867-11.038,11.468-19.446,23.038-19.446c11.158,0,20.483,7.821,22.81,18.276c7.117,0.515,12.777,6.288,13.104,13.457
		L339.768,135.939L339.768,135.939z"/>
	<path id="XMLID_723_" class="st4" d="M1025.682,546.336l0.004-74.559c-14.25-24.082-30.914-47.983-49.955-68.682
		c-49.786-54.12-143.717-67.06-213.576-30.033L444.556,546.336H1025.682z"/>
	<path id="XMLID_1629_" class="st4" d="M801.402,143.612c0.506-11.143,9.697-20.023,20.965-20.023c3.027,0,5.898,0.644,8.498,1.796
		c2.771-16.377,17.014-28.853,34.18-28.853c16.552,0,30.39,11.604,33.838,27.118c10.562,0.761,18.957,9.329,19.441,19.962H801.402z"
		/>
	<path id="XMLID_1078_" class="st2" d="M594.67,464.771l9.076-6.017c-0.655-18.273-24.55-24.796-30.498-28.065
		c-10.201-5.61-7.109-10.864-7.109-10.864h-1.727c0,0-3.045,5.047,2.507,10.864C572.034,436.049,598.953,442.649,594.67,464.771z"/>
	<path id="XMLID_720_" class="st7" d="M-13.037,546.227c0,0,115.624-260.738,240.226-186.883L559.1,546.227H-13.037z"/>
	<g id="XMLID_724_">
		<path id="XMLID_739_" class="st7" d="M718.496,477.211c2.115-2.288,3.417-5.337,3.417-8.698c0-7.089-5.746-12.836-12.836-12.836
			c-7.089,0-12.837,5.747-12.837,12.836c0,3.361,1.304,6.41,3.419,8.698c-3.871,2.88-6.38,7.488-6.38,12.684
			c0,8.727,7.071,15.799,15.798,15.799c8.726,0,15.798-7.072,15.798-15.799C724.875,484.699,722.366,480.091,718.496,477.211z"/>
		<path id="XMLID_828_" class="st2" d="M718.421,482.998c-2.668,2.096-5.335,4.189-8.002,6.285c0-4.927,0-9.854,0-14.783
			c0-2.686,0-5.373,0-8.059c0-1.728-2.683-1.728-2.683,0c0,3.099,0,6.197,0,9.298c-1.575-1.801-3.152-3.604-4.729-5.4
			c-1.14-1.302-3.028,0.603-1.895,1.896c2.208,2.522,4.417,5.044,6.624,7.564c0,3.933,0,7.864,0,11.797
			c-0.092,0.237-0.081,0.483,0,0.714c0,1.396,0,2.789,0,4.185c-2.854-3.26-5.707-6.521-8.563-9.778
			c-1.14-1.303-3.028,0.602-1.896,1.896c3.485,3.98,6.972,7.962,10.459,11.942c0,7.518,0,15.036,0,22.556c0,2.686,0,5.373,0,8.06
			c0,1.724,2.683,1.727,2.683,0c0-12.835,0-25.668,0-38.502c3.298-2.59,6.597-5.181,9.896-7.771
			C721.67,483.83,719.763,481.944,718.421,482.998z"/>
	</g>
	<g id="XMLID_746_">
		<path id="XMLID_800_" class="st7" d="M898.084,334.285c1.188-1.288,1.92-3.001,1.92-4.894c0-3.985-3.229-7.218-7.217-7.218
			s-7.219,3.231-7.219,7.218c0,1.893,0.731,3.604,1.921,4.894c-2.177,1.618-3.587,4.21-3.587,7.132c0,4.906,3.978,8.884,8.885,8.884
			c4.904,0,8.883-3.978,8.883-8.884C901.67,338.495,900.261,335.903,898.084,334.285z"/>
		<path id="XMLID_762_" class="st2" d="M898.04,337.539c-1.5,1.177-3.001,2.354-4.501,3.533c0-2.771,0-5.541,0-8.313
			c0-1.511,0-3.021,0-4.532c0-0.972-1.506-0.973-1.506,0c0,1.743,0,3.484,0,5.228c-0.887-1.012-1.773-2.023-2.66-3.037
			c-0.641-0.729-1.703,0.34-1.066,1.068c1.242,1.417,2.484,2.835,3.728,4.252c0,2.212,0,4.423,0,6.635
			c-0.053,0.134-0.047,0.273,0,0.402c0,0.783,0,1.567,0,2.351c-1.605-1.833-3.211-3.665-4.815-5.498
			c-0.641-0.731-1.704,0.339-1.066,1.067c1.961,2.236,3.922,4.475,5.883,6.714c0,4.228,0,8.456,0,12.685c0,1.51,0,3.021,0,4.531
			c0,0.971,1.506,0.973,1.506,0c0-7.217,0-14.433,0-21.649c1.857-1.457,3.711-2.912,5.568-4.372
			C899.869,338.007,898.795,336.945,898.04,337.539z"/>
	</g>
	<g id="XMLID_646_">
		<rect id="XMLID_331_" x="824.336" y="431.202" class="st2" width="6.956" height="26.328"/>
		<rect id="XMLID_645_" x="814.401" y="421.817" class="st2" width="6.955" height="26.326"/>
		<rect id="XMLID_269_" x="732.902" y="482.297" class="st2" width="94.911" height="64.893"/>
		<polygon id="XMLID_324_" class="st3" points="827.813,547.188 875.27,547.188 875.27,482.297 851.54,448.769 827.813,482.297 		
			"/>
		<path id="XMLID_308_" class="st2" d="M843.219,547.188h16.645v-23.779c0-4.595-3.726-8.323-8.322-8.323l0,0
			c-4.595,0-8.321,3.729-8.321,8.323L843.219,547.188L843.219,547.188z"/>
		<path id="XMLID_405_" class="st4" d="M799.784,524.666h12.098v-17.283c0-3.34-2.707-6.049-6.048-6.049l0,0
			c-3.341,0-6.05,2.709-6.05,6.049V524.666L799.784,524.666z"/>
		<path id="XMLID_642_" class="st4" d="M771.826,524.666h12.099v-17.283c0-3.34-2.71-6.049-6.049-6.049l0,0
			c-3.342,0-6.05,2.709-6.05,6.049V524.666z"/>
		<path id="XMLID_644_" class="st4" d="M743.868,524.666h12.098v-17.283c0-3.34-2.708-6.049-6.049-6.049l0,0
			c-3.34,0-6.049,2.709-6.049,6.049V524.666z"/>
		<path id="XMLID_401_" class="st4" d="M846.309,473.703c0,2.891,2.346,5.232,5.231,5.232c2.89,0,5.232-2.344,5.232-5.232
			s-2.344-5.229-5.232-5.229C848.653,468.473,846.309,470.814,846.309,473.703z"/>
		<path id="XMLID_402_" class="st7" d="M718.337,489.186l27.807-40.295c1.955-2.833,5.179-4.525,8.62-4.525h95.897
			c2.506,0,4.856,1.219,6.3,3.27l29.275,41.552c1.708,2.474-0.063,5.847-3.067,5.847h-7.898v-12.735l-23.704-33.449l-30.758,44.573
			c-0.697,1.01-1.844,1.611-3.068,1.611h-96.334C718.401,495.032,716.632,491.659,718.337,489.186z"/>
		<path id="XMLID_397_" class="st2" d="M824.883,424.853v-3.993c0-5.847,4.739-10.588,10.588-10.588h40.98
			c3.017,0,5.463-2.446,5.463-5.463l0,0c0-3.02-2.446-5.466-5.463-5.466H755.078c-4.325,0-7.829-3.505-7.829-7.828l0,0
			c0-4.454,3.611-8.065,8.066-8.065h71.416c4.202,0,7.609-3.409,7.609-7.61l0,0c0-4.85-3.932-8.781-8.782-8.781h-39.329
			c-4.391,0-7.948-3.559-7.948-7.946l0,0c0-4.391,3.559-7.95,7.948-7.95h40.627c9.404,0,17.026,7.624,17.026,17.029l0,0
			c0,11.753-9.525,21.28-21.278,21.28h-65.019c-1.917,0-3.471,1.555-3.471,3.471l0,0c0,1.616,1.309,2.927,2.925,2.927h123.021
			c6.037,0,10.931,4.893,10.931,10.928l0,0c0,6.035-4.894,10.929-10.931,10.929h-46.4c-1.617,0-2.927,1.311-2.927,2.927v4.203
			c0,1.616-1.312,2.925-2.928,2.925l0,0C826.191,427.777,824.883,426.469,824.883,424.853z"/>
		<polygon id="XMLID_721_" class="st5" points="851.565,448.847 827.813,547.188 875.27,547.188 875.27,482.297 		"/>
	</g>
	<g id="XMLID_716_">
		<polygon id="XMLID_749_" class="st3" points="266.8,546.965 150.836,546.965 150.836,467.679 266.8,467.679 266.8,494.809 		"/>
		<polygon id="XMLID_748_" class="st2" points="150.836,546.965 92.853,546.965 92.853,467.679 121.844,426.712 150.836,467.679 		
			"/>
		<path id="XMLID_747_" class="st4" d="M132.013,546.965h-20.337v-29.054c0-5.615,4.552-10.168,10.168-10.168l0,0
			c5.616,0,10.169,4.553,10.169,10.168V546.965z"/>
		<g id="XMLID_107_">
			<path id="XMLID_744_" class="st2" d="M185.082,519.446H170.3v-21.117c0-4.081,3.31-7.39,7.392-7.39l0,0
				c4.082,0,7.391,3.309,7.391,7.39L185.082,519.446L185.082,519.446z"/>
			<path id="XMLID_741_" class="st4" d="M219.241,519.446H204.46v-21.117c0-4.081,3.309-7.39,7.391-7.39l0,0
				c4.082,0,7.391,3.309,7.391,7.39L219.241,519.446L219.241,519.446z"/>
			<path id="XMLID_738_" class="st2" d="M253.401,519.446H238.62v-21.117c0-4.081,3.31-7.39,7.391-7.39l0,0
				c4.082,0,7.391,3.309,7.391,7.39L253.401,519.446L253.401,519.446z"/>
		</g>
		<circle id="XMLID_737_" class="st4" cx="121.844" cy="457.179" r="6.392"/>
		<polyline id="XMLID_725_" class="st5" points="150.836,461.581 150.836,546.965 266.8,483.237 		"/>
		<path id="XMLID_732_" class="st4" d="M284.596,476.098l-33.976-49.235c-2.388-3.461-6.325-5.527-10.531-5.527H122.92
			c-3.063,0-5.934,1.488-7.698,3.993l-35.771,50.771c-2.084,3.021,0.078,7.141,3.749,7.141h9.653v-15.56l28.961-40.87l37.58,54.464
			c0.851,1.23,2.252,1.966,3.749,1.966h117.704C284.517,483.237,286.681,479.119,284.596,476.098z"/>
		<polygon id="XMLID_726_" class="st5" points="111.812,470.843 150.635,470.843 122.456,428.319 105.835,449.582 111.812,459.271 
					"/>
	</g>
	<g id="XMLID_831_">
		<circle id="XMLID_835_" class="st5" cx="532.013" cy="443.417" r="12.752"/>
		<path id="XMLID_832_" class="st2" d="M540.144,440.984c-2.413,2.756-4.826,5.509-7.239,8.265c0-1.308,0-2.616,0-3.922
			c0.057-0.154,0.063-0.317,0-0.477c0-2.908,0-5.818,0-8.729c0-1.147-1.781-1.147-1.781,0c0,2.396,0,4.794,0,7.19
			c-2.262-1.775-4.523-3.554-6.785-5.328c-0.893-0.701-2.163,0.552-1.26,1.259c2.682,2.108,5.363,4.214,8.045,6.319
			c0,7.14,0,14.279,0,21.419c0,1.146,1.781,1.147,1.781,0c0-5.013,0-10.023,0-15.034c2.834-3.234,5.667-6.468,8.499-9.704
			C542.155,441.386,540.899,440.121,540.144,440.984z"/>
	</g>
	<g>
		<g id="XMLID_722_">
			<path id="XMLID_727_" class="st3" d="M11.345,488.524c0,16.071,13.029,29.102,29.102,29.102
				c16.074,0,29.104-13.029,29.104-29.102c0-16.075-13.03-29.104-29.104-29.104C24.374,459.42,11.345,472.449,11.345,488.524z"/>
			<path id="XMLID_818_" class="st2" d="M59,482.971c-5.506,6.288-11.012,12.576-16.519,18.864c0-2.986,0-5.969,0-8.953
				c0.127-0.35,0.14-0.725,0-1.087c0-6.639,0-13.278,0-19.918c0-2.617-4.067-2.623-4.067,0c0,5.47,0,10.939,0,16.409
				c-5.163-4.052-10.324-8.106-15.485-12.16c-2.036-1.598-4.935,1.262-2.876,2.878c6.12,4.806,12.241,9.613,18.361,14.418
				c0,16.295,0,32.589,0,48.881c0,2.618,4.067,2.623,4.067,0c0-11.435,0-22.872,0-34.307c6.465-7.384,12.93-14.768,19.396-22.147
				C63.595,483.886,60.729,480.997,59,482.971z"/>
		</g>
		<g id="XMLID_4_">
			<path id="XMLID_9_" class="st3" d="M392.137,485.484c0,16.071,13.029,29.102,29.102,29.102s29.104-13.029,29.104-29.102
				c0-16.075-13.03-29.104-29.104-29.104S392.137,469.409,392.137,485.484z"/>
			<path id="XMLID_5_" class="st2" d="M439.792,479.931c-5.506,6.288-11.012,12.576-16.519,18.864c0-2.986,0-5.969,0-8.953
				c0.127-0.35,0.14-0.725,0-1.087c0-6.639,0-13.278,0-19.918c0-2.617-4.067-2.623-4.067,0c0,5.47,0,10.939,0,16.409
				c-5.163-4.052-10.324-8.106-15.485-12.16c-2.036-1.598-4.935,1.262-2.876,2.878c6.12,4.806,12.241,9.613,18.361,14.418
				c0,16.295,0,32.589,0,48.881c0,2.618,4.067,2.623,4.067,0c0-11.435,0-22.872,0-34.307c6.465-7.384,12.93-14.767,19.396-22.147
				C444.387,480.846,441.521,477.957,439.792,479.931z"/>
		</g>
		<path id="XMLID_751_" class="st4" d="M59.342,546.151c0.009-0.166,0.016-0.334,0.016-0.505c0-4.741-3.845-8.587-8.588-8.587
			c-0.568,0-1.125,0.059-1.663,0.161c-1.961-3.404-5.634-5.697-9.846-5.697c-5.645,0-10.325,4.115-11.206,9.512
			c-2.787,0.353-5.039,2.424-5.661,5.116H59.342L59.342,546.151z"/>
	</g>
	<path id="XMLID_743_" class="st4" d="M463.304,546.227c0.002-0.028,0.002-0.055,0.002-0.083c0-7.896-6.402-14.301-14.301-14.301
		c-0.84,0-1.662,0.072-2.461,0.212c-2.887-6.833-9.647-11.629-17.533-11.629c-6.008,0-11.364,2.787-14.852,7.137
		c-2.781-1.776-6.086-2.81-9.633-2.81c-9.03,0-16.499,6.684-17.73,15.374c-0.061,0-0.12-0.005-0.18-0.005
		c-3.683,0-6.752,2.624-7.443,6.104L463.304,546.227L463.304,546.227z"/>
	<g id="XMLID_875_">
		<g id="XMLID_874_">
			<polygon class="st4" points="945.694,75.551 933.778,75.695 943.333,82.813 933.607,75.924 937.157,87.3 933.342,76.009 
				929.526,87.301 933.075,75.925 923.351,82.817 932.902,75.696 920.987,75.551 932.902,75.409 923.351,68.284 933.075,75.176 
				929.524,63.8 933.342,75.091 937.162,63.801 933.607,75.175 943.332,68.285 933.779,75.406 			"/>
		</g>
		<g id="XMLID_756_">
			<g>
				<polygon id="XMLID_10_" class="st7" points="934.933,73.959 933.342,62.951 931.75,73.959 919.843,75.551 931.75,77.14 
					933.342,99.037 934.933,77.14 946.84,75.551 				"/>
			</g>
		</g>
	</g>
	<g id="XMLID_1142_">
		<path id="XMLID_1213_" class="st4" d="M621.733,431.282c0.771-0.835,1.247-1.95,1.247-3.179c0-2.589-2.1-4.688-4.688-4.688
			s-4.688,2.1-4.688,4.688c0,1.229,0.476,2.344,1.247,3.179c-1.413,1.053-2.328,2.734-2.328,4.633c0,3.187,2.583,5.771,5.771,5.771
			c3.188,0,5.771-2.584,5.771-5.771C624.063,434.018,623.146,432.335,621.733,431.282z"/>
		<path id="XMLID_1145_" class="st2" d="M621.704,433.396c-0.976,0.766-1.948,1.53-2.923,2.297c0-1.803,0-3.602,0-5.4
			c0-0.98,0-1.964,0-2.945c0-0.63-0.979-0.63-0.979,0c0,1.133,0,2.266,0,3.396c-0.577-0.656-1.15-1.315-1.729-1.973
			c-0.415-0.476-1.106,0.221-0.692,0.692c0.807,0.92,1.613,1.842,2.421,2.762c0,1.438,0,2.874,0,4.312
			c-0.034,0.086-0.03,0.176,0,0.26c0,0.511,0,1.021,0,1.529c-1.044-1.19-2.086-2.382-3.129-3.572
			c-0.416-0.475-1.104,0.22-0.692,0.693c1.273,1.453,2.548,2.908,3.821,4.36c0,2.746,0,5.493,0,8.24c0,0.979,0,1.962,0,2.943
			c0,0.628,0.979,0.63,0.979,0c0-4.689,0-9.378,0-14.063c1.205-0.946,2.411-1.895,3.615-2.84
			C622.892,433.7,622.195,433.011,621.704,433.396z"/>
	</g>
	<g id="XMLID_1214_">
		<circle id="XMLID_1216_" class="st4" cx="547.992" cy="414.812" r="7.057"/>
		<path id="XMLID_1215_" class="st2" d="M552.492,413.465c-1.336,1.526-2.671,3.05-4.006,4.574c0-0.724,0-1.446,0-2.17
			c0.029-0.085,0.033-0.177,0-0.263c0-1.611,0-3.222,0-4.832c0-0.634-0.986-0.636-0.986,0c0,1.327,0,2.652,0,3.98
			c-1.252-0.983-2.504-1.966-3.756-2.949c-0.492-0.389-1.196,0.307-0.696,0.698c1.483,1.164,2.968,2.33,4.452,3.495
			c0,3.95,0,7.902,0,11.853c0,0.636,0.986,0.636,0.986,0c0-2.771,0-5.546,0-8.317c1.566-1.791,3.135-3.582,4.702-5.371
			C553.605,413.688,552.911,412.986,552.492,413.465z"/>
	</g>
	<g id="XMLID_806_">
		<path id="XMLID_824_" class="st4" d="M655.108,338.569c1.497-1.62,2.418-3.777,2.418-6.157c0-5.018-4.066-9.084-9.084-9.084
			c-5.02,0-9.085,4.066-9.085,9.084c0,2.38,0.922,4.537,2.418,6.157c-2.739,2.037-4.517,5.3-4.517,8.975
			c0,6.177,5.008,11.181,11.184,11.181c6.175,0,11.181-5.004,11.181-11.181C659.623,343.869,657.85,340.606,655.108,338.569z"/>
		<path id="XMLID_812_" class="st2" d="M655.055,342.664c-1.889,1.483-3.774,2.966-5.663,4.449c0-3.488,0-6.977,0-10.464
			c0-1.9,0-3.804,0-5.702c0-1.224-1.896-1.226-1.896,0c0,2.191,0,4.385,0,6.579c-1.115-1.274-2.232-2.551-3.349-3.822
			c-0.805-0.921-2.145,0.426-1.342,1.341c1.563,1.784,3.126,3.57,4.689,5.354c0,2.783,0,5.565,0,8.349
			c-0.066,0.17-0.06,0.343,0,0.506c0,0.986,0,1.976,0,2.961c-2.021-2.308-4.041-4.611-6.063-6.922
			c-0.805-0.92-2.143,0.427-1.341,1.342c2.467,2.817,4.936,5.637,7.403,8.454c0,5.32,0,10.642,0,15.963c0,1.901,0,3.804,0,5.704
			c0,1.221,1.896,1.223,1.896,0c0-9.084,0-18.165,0-27.249c2.334-1.833,4.669-3.667,7.005-5.5
			C657.355,343.253,656.004,341.919,655.055,342.664z"/>
	</g>
	<g id="XMLID_1066_">
		<rect id="XMLID_753_" x="584.109" y="466.479" class="st3" width="52.489" height="43.111"/>
		<rect id="XMLID_761_" x="584.109" y="426.643" class="st4" width="21.089" height="82.947"/>
		<path id="XMLID_896_" class="st2" d="M597.847,451.272h-6.386v-9.123c0-1.765,1.43-3.192,3.192-3.192l0,0
			c1.765,0,3.192,1.429,3.192,3.192L597.847,451.272L597.847,451.272z"/>
		<path id="XMLID_1064_" class="st2" d="M597.847,472.638h-6.386v-9.123c0-1.764,1.43-3.192,3.192-3.192l0,0
			c1.765,0,3.192,1.43,3.192,3.192L597.847,472.638L597.847,472.638z"/>
		<path id="XMLID_1077_" class="st2" d="M616.74,506.155h-6.385v-19.902c0-1.764,1.428-3.193,3.19-3.193l0,0
			c1.764,0,3.193,1.431,3.193,3.193L616.74,506.155L616.74,506.155z"/>
		<path id="XMLID_1103_" class="st2" d="M629.527,506.155h-6.388v-19.902c0-1.764,1.431-3.193,3.193-3.193l0,0
			c1.764,0,3.193,1.431,3.193,3.193L629.527,506.155L629.527,506.155z"/>
		<rect id="XMLID_1028_" x="605.198" y="457.103" class="st3" width="31.4" height="22.027"/>
		<polygon id="XMLID_1104_" class="st3" points="584.109,426.643 594.653,373.215 605.198,426.643 		"/>
		<path id="XMLID_1107_" class="st5" d="M605.198,509.59c0,0,5.142-14.055,11.542-13.116c6.399,0.938,7.567-9.483,13.713-13.414
			c6.146-3.93,6.146-3.93,6.146-3.93h-31.4V509.59z"/>
	</g>
	<g id="XMLID_760_">
		<circle id="XMLID_1049_" class="st4" cx="583.663" cy="407.219" r="7.056"/>
		<path id="XMLID_1046_" class="st2" d="M588.162,405.872c-1.336,1.524-2.67,3.049-4.006,4.573c0-0.724,0-1.446,0-2.169
			c0.031-0.085,0.034-0.178,0-0.265c0-1.609,0-3.22,0-4.829c0-0.635-0.986-0.637-0.986,0c0,1.325,0,2.651,0,3.979
			c-1.251-0.984-2.504-1.967-3.755-2.95c-0.493-0.387-1.196,0.306-0.696,0.698c1.482,1.166,2.967,2.33,4.451,3.497
			c0,3.952,0,7.899,0,11.853c0,0.635,0.986,0.635,0.986,0c0-2.772,0-5.546,0-8.319c1.567-1.789,3.135-3.578,4.703-5.369
			C589.275,406.095,588.582,405.394,588.162,405.872z"/>
	</g>
	<g id="XMLID_1050_">
		<ellipse id="XMLID_1056_" class="st4" cx="302.701" cy="378.255" rx="16.686" ry="15.252"/>
		<path id="XMLID_1053_" class="st2" d="M313.339,375.346c-3.159,3.293-6.314,6.59-9.473,9.886c0-1.564,0-3.131,0-4.692
			c0.075-0.186,0.081-0.38,0-0.565c0-3.481,0-6.961,0-10.443c0-1.372-2.332-1.372-2.332,0c0,2.867,0,5.736,0,8.602
			c-2.958-2.125-5.916-4.249-8.877-6.372c-1.167-0.838-2.83,0.658-1.649,1.507c3.51,2.521,7.019,5.036,10.526,7.56
			c0,8.538,0,17.078,0,25.618c0,1.368,2.332,1.372,2.332,0c0-5.994,0-11.989,0-17.983c3.707-3.867,7.415-7.738,11.122-11.604
			C315.971,375.827,314.327,374.313,313.339,375.346z"/>
	</g>
	<g id="XMLID_1_">
		<g id="XMLID_7_">
			<polygon class="st4" points="290.057,93.593 278.141,93.738 287.696,100.856 277.97,93.967 281.52,105.342 277.704,94.051 
				273.889,105.344 277.437,93.967 267.713,100.86 277.265,93.738 265.35,93.593 277.265,93.452 267.713,86.327 277.438,93.218 
				273.887,81.842 277.704,93.133 281.525,81.844 277.97,93.218 287.695,86.328 278.142,93.449 			"/>
		</g>
		<g id="XMLID_3_">
			<g>
				<polygon id="XMLID_17_" class="st7" points="279.295,92.002 277.704,80.994 276.113,92.002 264.205,93.593 276.113,95.183 
					277.704,117.08 279.295,95.183 291.202,93.593 				"/>
			</g>
		</g>
	</g>
	<g id="XMLID_1134_">
		<circle id="XMLID_1143_" class="st7" cx="926.286" cy="355.494" r="7.056"/>
		<path id="XMLID_1135_" class="st2" d="M930.784,354.149c-1.335,1.523-2.671,3.049-4.005,4.572c0-0.725,0-1.447,0-2.172
			c0.031-0.084,0.033-0.174,0-0.263c0-1.609,0-3.22,0-4.829c0-0.635-0.987-0.637-0.987,0c0,1.325,0,2.651,0,3.979
			c-1.25-0.981-2.502-1.966-3.754-2.948c-0.494-0.39-1.196,0.307-0.698,0.697c1.486,1.165,2.969,2.331,4.452,3.495
			c0,3.953,0,7.902,0,11.854c0,0.635,0.987,0.637,0.987,0c0-2.772,0-5.547,0-8.318c1.567-1.791,3.135-3.58,4.703-5.371
			C931.898,354.37,931.203,353.67,930.784,354.149z"/>
	</g>
	<g id="XMLID_1147_">
		<circle id="XMLID_1149_" class="st7" cx="910.45" cy="349.831" r="8.78"/>
		<path id="XMLID_1148_" class="st2" d="M916.047,348.156c-1.661,1.896-3.322,3.793-4.982,5.69c0-0.9,0-1.802,0-2.7
			c0.039-0.107,0.041-0.22,0-0.328c0-2.003,0-4.006,0-6.011c0-0.789-1.228-0.791-1.228,0c0,1.65,0,3.302,0,4.951
			c-1.558-1.223-3.114-2.444-4.672-3.669c-0.614-0.48-1.487,0.38-0.867,0.868c1.847,1.451,3.692,2.9,5.539,4.351
			c0,4.914,0,9.831,0,14.745c0,0.79,1.228,0.791,1.228,0c0-3.448,0-6.897,0-10.351c1.949-2.227,3.9-4.452,5.852-6.68
			C917.434,348.432,916.568,347.561,916.047,348.156z"/>
	</g>
	<g id="XMLID_2234_">
		<g id="XMLID_2189_">
			<path id="XMLID_2245_" class="st2" d="M589.97,375.912h-25.885c-0.127,0-0.228-0.104-0.228-0.229l0,0
				c0-0.126,0.101-0.229,0.228-0.229h25.885c0.127,0,0.229,0.104,0.229,0.229l0,0C590.199,375.81,590.097,375.912,589.97,375.912z"
				/>
			<path id="XMLID_2244_" class="st2" d="M589.97,377.882h-25.885c-0.127,0-0.228-0.102-0.228-0.229l0,0
				c0-0.126,0.101-0.23,0.228-0.23h25.885c0.127,0,0.229,0.104,0.229,0.23l0,0C590.199,377.78,590.097,377.882,589.97,377.882z"/>
			<path id="XMLID_2243_" class="st2" d="M589.97,379.853h-25.885c-0.127,0-0.228-0.103-0.228-0.229l0,0
				c0-0.125,0.101-0.229,0.228-0.229h25.885c0.127,0,0.229,0.104,0.229,0.229l0,0C590.199,379.75,590.097,379.853,589.97,379.853z"
				/>
			<path id="XMLID_2242_" class="st2" d="M589.97,381.823h-25.885c-0.127,0-0.228-0.103-0.228-0.229l0,0
				c0-0.127,0.101-0.229,0.228-0.229h25.885c0.127,0,0.229,0.103,0.229,0.229l0,0C590.199,381.722,590.097,381.823,589.97,381.823z"
				/>
			<path id="XMLID_2241_" class="st2" d="M589.97,383.796h-25.885c-0.127,0-0.228-0.104-0.228-0.229l0,0
				c0-0.127,0.101-0.23,0.228-0.23h25.885c0.127,0,0.229,0.104,0.229,0.23l0,0C590.199,383.692,590.097,383.796,589.97,383.796z"/>
			<path id="XMLID_2240_" class="st2" d="M589.97,385.765h-25.885c-0.127,0-0.228-0.101-0.228-0.229l0,0
				c0-0.128,0.101-0.23,0.228-0.23h25.885c0.127,0,0.229,0.104,0.229,0.23l0,0C590.199,385.664,590.097,385.765,589.97,385.765z"/>
		</g>
		<g id="XMLID_2232_">
			<g>
				<rect id="XMLID_42_" x="564.646" y="369.974" class="st7" width="2.173" height="18.424"/>
				<rect id="XMLID_40_" x="575.535" y="369.974" class="st7" width="2.171" height="18.424"/>
				<rect id="XMLID_39_" x="586.423" y="369.974" class="st7" width="2.17" height="18.424"/>
			</g>
		</g>
		<g id="XMLID_2222_">
			<rect id="XMLID_2190_" x="564.646" y="369.974" class="st2" width="1.089" height="18.424"/>
			<rect id="XMLID_2224_" x="575.535" y="369.974" class="st2" width="1.084" height="18.424"/>
			<rect id="XMLID_2228_" x="586.423" y="369.974" class="st2" width="1.084" height="18.424"/>
		</g>
		<path id="XMLID_2183_" class="st4" d="M591.557,373.839l-2.612-3.789c-0.186-0.267-0.486-0.426-0.813-0.426h-23.13
			c-0.236,0-0.457,0.113-0.593,0.306l-2.753,3.909c-0.16,0.231,0.005,0.55,0.287,0.55l2.974-4.345l2.893,4.192
			c0.064,0.095,0.175,0.151,0.289,0.151h23.171C591.551,374.389,591.719,374.07,591.557,373.839z"/>
	</g>
</g>
<g id="Layer_2" class="st8">
	<g id="XMLID_1437_" class="st6">
		<g>
			<circle id="XMLID_574_" class="st7" cx="669.328" cy="208.813" r="3.776"/>
			<path id="XMLID_573_" class="st4" d="M945.109,380.871c-2.084,0-3.775-1.691-3.775-3.777s1.691-3.776,3.775-3.776
				c2.088,0,3.778,1.69,3.778,3.776S947.197,380.871,945.109,380.871z"/>
			<circle id="XMLID_572_" class="st4" cx="684.259" cy="407.451" r="3.777"/>
			<circle id="XMLID_570_" class="st4" cx="806.887" cy="459.664" r="3.777"/>
			<circle id="XMLID_569_" class="st3" cx="670.315" cy="56.357" r="3.777"/>
			<circle id="XMLID_568_" class="st4" cx="859.622" cy="136.328" r="3.777"/>
			<path id="XMLID_565_" class="st4" d="M1017.316,101.242c-2.084,0-3.775-1.69-3.775-3.777s1.691-3.777,3.775-3.777
				c2.088,0,3.778,1.691,3.778,3.777S1019.404,101.242,1017.316,101.242z"/>
			<circle id="XMLID_564_" class="st7" cx="916.607" cy="49.468" r="3.777"/>
			<circle id="XMLID_563_" class="st7" cx="896.092" cy="105.945" r="2.357"/>
			<circle id="XMLID_562_" class="st7" cx="935.289" cy="317.848" r="2.357"/>
			<circle id="XMLID_561_" class="st4" cx="753.016" cy="330.535" r="2.357"/>
			<circle id="XMLID_560_" class="st4" cx="995.984" cy="185.792" r="2.356"/>
			<circle id="XMLID_559_" class="st4" cx="849.031" cy="369.375" r="2.357"/>
			<circle id="XMLID_558_" class="st4" cx="756.911" cy="95.108" r="2.357"/>
			<circle id="XMLID_557_" class="st4" cx="803.926" cy="188.149" r="2.357"/>
			<circle id="XMLID_556_" class="st7" cx="995.984" cy="337.721" r="2.357"/>
			<circle id="XMLID_555_" class="st4" cx="980.303" cy="456.534" r="2.356"/>
			<circle id="XMLID_554_" class="st4" cx="932.934" cy="162.62" r="2.357"/>
			<path id="XMLID_553_" class="st4" d="M937.648,71.012c-1.306,0-2.359-1.054-2.359-2.356c0-1.302,1.055-2.358,2.359-2.358
				c1.299,0,2.354,1.056,2.354,2.358C940.004,69.958,938.947,71.012,937.648,71.012z"/>
			<circle id="XMLID_552_" class="st4" cx="954.383" cy="208.813" r="2.357"/>
			<circle id="XMLID_551_" class="st4" cx="993.58" cy="420.717" r="2.357"/>
			<circle id="XMLID_550_" class="st4" cx="830.796" cy="439.662" r="2.357"/>
			<circle id="XMLID_548_" class="st4" cx="907.32" cy="472.244" r="2.357"/>
			<circle id="XMLID_547_" class="st4" cx="815.202" cy="197.976" r="2.358"/>
			<circle id="XMLID_546_" class="st4" cx="862.217" cy="291.018" r="2.357"/>
			<circle id="XMLID_543_" class="st4" cx="991.225" cy="265.489" r="2.357"/>
			<circle id="XMLID_542_" class="st7" cx="969.012" cy="115.61" r="2.357"/>
			<circle id="XMLID_541_" class="st4" cx="998.342" cy="58.714" r="2.357"/>
			<circle id="XMLID_540_" class="st4" cx="834.231" cy="240.339" r="2.357"/>
			<circle id="XMLID_539_" class="st4" cx="997.018" cy="259.286" r="2.357"/>
			<circle id="XMLID_538_" class="st4" cx="690.311" cy="6.473" r="2.357"/>
			<circle id="XMLID_537_" class="st7" cx="920.492" cy="291.869" r="2.357"/>
			<circle id="XMLID_536_" class="st4" cx="1012.611" cy="17.599" r="2.357"/>
			<circle id="XMLID_535_" class="st4" cx="774.372" cy="177.802" r="2.357"/>
			<circle id="XMLID_534_" class="st4" cx="773.537" cy="260.213" r="2.357"/>
			<circle id="XMLID_533_" class="st4" cx="763.207" cy="231.853" r="2.357"/>
			<circle id="XMLID_532_" class="st7" cx="753.223" cy="6.473" r="2.357"/>
			<circle id="XMLID_531_" class="st4" cx="836.589" cy="85.112" r="2.357"/>
			<circle id="XMLID_529_" class="st4" cx="699.641" cy="194.848" r="2.357"/>
			<circle id="XMLID_528_" class="st4" cx="722.494" cy="360.161" r="2.356"/>
			<circle id="XMLID_527_" class="st4" cx="889.994" cy="430.335" r="2.356"/>
			<circle id="XMLID_526_" class="st4" cx="666.513" cy="279.334" r="2.357"/>
			<circle id="XMLID_525_" class="st4" cx="813.467" cy="336.409" r="2.356"/>
			<circle id="XMLID_524_" class="st4" cx="905.588" cy="188.648" r="2.357"/>
			<circle id="XMLID_522_" class="st4" cx="666.513" cy="431.262" r="2.357"/>
			<circle id="XMLID_521_" class="st4" cx="656.184" cy="402.901" r="2.356"/>
			<circle id="XMLID_520_" class="st4" cx="921.254" cy="117.968" r="2.357"/>
			<circle id="XMLID_519_" class="st4" cx="729.566" cy="256.161" r="2.357"/>
			<circle id="XMLID_518_" class="st7" cx="724.852" cy="162.198" r="2.357"/>
			<circle id="XMLID_517_" class="st4" cx="792.867" cy="216.876" r="2.357"/>
			<circle id="XMLID_516_" class="st4" cx="753.668" cy="428.78" r="2.356"/>
			<circle id="XMLID_515_" class="st4" cx="916.453" cy="447.726" r="2.356"/>
			<circle id="XMLID_514_" class="st4" cx="692.974" cy="296.725" r="2.355"/>
			<path id="XMLID_513_" class="st4" d="M846.945,332.93c1.302,0,2.356-1.057,2.356-2.354c0-1.304-1.056-2.359-2.356-2.359
				c-1.302,0-2.356,1.058-2.356,2.359C844.589,331.873,845.645,332.93,846.945,332.93z"/>
			<circle id="XMLID_512_" class="st4" cx="932.047" cy="206.04" r="2.356"/>
			<circle id="XMLID_511_" class="st7" cx="885.033" cy="299.082" r="2.357"/>
			<circle id="XMLID_510_" class="st4" cx="692.974" cy="448.653" r="2.356"/>
			<circle id="XMLID_509_" class="st4" cx="657.122" cy="178.094" r="2.357"/>
			<circle id="XMLID_508_" class="st4" cx="756.025" cy="273.553" r="2.357"/>
			<circle id="XMLID_507_" class="st4" cx="800.449" cy="37.465" r="2.357"/>
		</g>
	</g>
</g>
</svg>
