<?xml version="1.0" encoding="utf-8"?>
<!-- Generator: Adobe Illustrator 16.0.0, SVG Export Plug-In . SVG Version: 6.00 Build 0)  -->
<!DOCTYPE svg PUBLIC "-//W3C//DTD SVG 1.1//EN" "http://www.w3.org/Graphics/SVG/1.1/DTD/svg11.dtd">
<svg version="1.1" id="Layer_1" xmlns="http://www.w3.org/2000/svg" xmlns:xlink="http://www.w3.org/1999/xlink" x="0px" y="0px"
	 width="1024px" height="546px" viewBox="0 0 1024 546" style="enable-background:new 0 0 1024 546;" xml:space="preserve">
<style type="text/css">
<![CDATA[
	.st0{fill:#EBE714;stroke:#000000;stroke-miterlimit:10;}
	.st1{fill:#5D5B53;stroke:#000000;stroke-miterlimit:10;}
	.st2{opacity:0.8;fill:#F05037;}
	.st3{fill:#B6AC33;}
	.st4{fill:#565656;}
	.st5{fill:#5ABA47;stroke:#000000;stroke-miterlimit:10;}
	.st6{fill:#C5C2E1;stroke:#000000;stroke-miterlimit:10;}
	.st7{clip-path:url(#SVGID_2_);}
	.st8{display:none;opacity:0.9;fill:#FFFFFF;}
	.st9{fill:#FAED2E;}
	.st10{fill:none;stroke:#000000;stroke-miterlimit:10;}
	.st11{fill:#91B69A;stroke:#000000;stroke-miterlimit:10;}
	.st12{fill:#D23627;stroke:#000000;stroke-miterlimit:10;}
	.st13{fill:#A9A8A8;}
	.st14{fill:none;stroke:#00AEEF;stroke-width:0.125;stroke-miterlimit:10;}
]]>
</style>
<polygon class="st3" points="1,302 63.305,339.271 127.86,302 0,228.034 "/>
<polygon class="st13" points="1,486 63.305,523.271 127.86,486 0,412.033 "/>
<g>
	<defs>
		<rect id="SVGID_1_" x="0.055" y="-148.483" width="1023.89" height="1343.855"/>
	</defs>
	<clipPath id="SVGID_2_">
		<use xlink:href="#SVGID_1_"  style="overflow:visible;"/>
	</clipPath>
	<g class="st7">
		<line class="st14" x1="0.055" y1="1835.92" x2="0.055" y2="-2003.667"/>
		<line class="st14" x1="32.052" y1="1835.92" x2="32.052" y2="-2003.667"/>
		<line class="st14" x1="64.048" y1="1835.92" x2="64.048" y2="-2003.667"/>
		<line class="st14" x1="96.044" y1="1835.92" x2="96.044" y2="-2003.667"/>
		<line class="st14" x1="128.041" y1="1835.92" x2="128.041" y2="-2003.667"/>
		<line class="st14" x1="160.038" y1="1835.92" x2="160.038" y2="-2003.667"/>
		<line class="st14" x1="192.035" y1="1835.92" x2="192.035" y2="-2003.667"/>
		<line class="st14" x1="224.031" y1="1835.92" x2="224.031" y2="-2003.667"/>
		<line class="st14" x1="256.027" y1="1835.92" x2="256.027" y2="-2003.667"/>
		<line class="st14" x1="288.024" y1="1835.92" x2="288.024" y2="-2003.667"/>
		<line class="st14" x1="320.021" y1="1835.92" x2="320.021" y2="-2003.667"/>
		<line class="st14" x1="352.017" y1="1835.92" x2="352.017" y2="-2003.667"/>
		<line class="st14" x1="384.014" y1="1835.92" x2="384.014" y2="-2003.667"/>
		<line class="st14" x1="416.011" y1="1835.92" x2="416.011" y2="-2003.667"/>
		<line class="st14" x1="448.007" y1="1835.92" x2="448.007" y2="-2003.667"/>
		<line class="st14" x1="480.004" y1="1835.92" x2="480.004" y2="-2003.667"/>
		<line class="st14" x1="512" y1="1835.92" x2="512" y2="-2003.667"/>
		<line class="st14" x1="543.996" y1="1835.92" x2="543.996" y2="-2003.667"/>
		<line class="st14" x1="575.992" y1="1835.92" x2="575.992" y2="-2003.667"/>
		<line class="st14" x1="607.99" y1="1835.92" x2="607.99" y2="-2003.667"/>
		<line class="st14" x1="639.986" y1="1835.92" x2="639.986" y2="-2003.667"/>
		<line class="st14" x1="671.982" y1="1835.92" x2="671.982" y2="-2003.667"/>
		<line class="st14" x1="703.979" y1="1835.92" x2="703.979" y2="-2003.667"/>
		<line class="st14" x1="735.977" y1="1835.92" x2="735.977" y2="-2003.667"/>
		<line class="st14" x1="767.973" y1="1835.92" x2="767.973" y2="-2003.667"/>
		<line class="st14" x1="799.969" y1="1835.92" x2="799.969" y2="-2003.667"/>
		<line class="st14" x1="831.967" y1="1835.92" x2="831.967" y2="-2003.667"/>
		<line class="st14" x1="863.961" y1="1835.92" x2="863.961" y2="-2003.667"/>
		<line class="st14" x1="895.959" y1="1835.92" x2="895.959" y2="-2003.667"/>
		<line class="st14" x1="927.955" y1="1835.92" x2="927.955" y2="-2003.667"/>
		<line class="st14" x1="959.951" y1="1835.92" x2="959.951" y2="-2003.667"/>
		<line class="st14" x1="991.947" y1="1835.92" x2="991.947" y2="-2003.667"/>
		<line class="st14" x1="1023.945" y1="1835.92" x2="1023.945" y2="-2003.667"/>
		<line class="st14" x1="1741.408" y1="2464.06" x2="-1583.774" y2="544.268"/>
		<line class="st14" x1="1757.408" y1="2436.348" x2="-1567.776" y2="516.555"/>
		<line class="st14" x1="1773.406" y1="2408.635" x2="-1551.778" y2="488.842"/>
		<line class="st14" x1="1789.404" y1="2380.93" x2="-1535.779" y2="461.137"/>
		<line class="st14" x1="1805.402" y1="2353.217" x2="-1519.781" y2="433.425"/>
		<line class="st14" x1="1821.4" y1="2325.505" x2="-1503.783" y2="405.715"/>
		<line class="st14" x1="1837.398" y1="2297.8" x2="-1487.784" y2="378.006"/>
		<line class="st14" x1="1853.396" y1="2270.087" x2="-1471.786" y2="350.295"/>
		<line class="st14" x1="1869.396" y1="2242.382" x2="-1455.788" y2="322.586"/>
		<line class="st14" x1="1885.395" y1="2214.67" x2="-1439.79" y2="294.875"/>
		<line class="st14" x1="1901.391" y1="2186.957" x2="-1423.792" y2="267.167"/>
		<line class="st14" x1="1917.391" y1="2159.252" x2="-1407.793" y2="239.456"/>
		<line class="st14" x1="1933.389" y1="2131.54" x2="-1391.795" y2="211.745"/>
		<line class="st14" x1="1949.387" y1="2103.827" x2="-1375.796" y2="184.037"/>
		<line class="st14" x1="1965.385" y1="2076.122" x2="-1359.798" y2="156.326"/>
		<line class="st14" x1="1981.383" y1="2048.41" x2="-1343.8" y2="128.617"/>
		<line class="st14" x1="1997.381" y1="2020.698" x2="-1327.801" y2="100.906"/>
		<line class="st14" x1="2013.379" y1="1992.992" x2="-1311.803" y2="73.198"/>
		<line class="st14" x1="2029.377" y1="1965.281" x2="-1295.805" y2="45.488"/>
		<line class="st14" x1="2045.377" y1="1937.568" x2="-1279.807" y2="17.777"/>
		<line class="st14" x1="2061.375" y1="1909.863" x2="-1263.808" y2="-9.932"/>
		<line class="st14" x1="2077.373" y1="1882.15" x2="-1247.811" y2="-37.643"/>
		<line class="st14" x1="2093.371" y1="1854.444" x2="-1231.812" y2="-65.351"/>
		<line class="st14" x1="2109.369" y1="1826.733" x2="-1215.814" y2="-93.062"/>
		<line class="st14" x1="2125.367" y1="1799.021" x2="-1199.815" y2="-120.772"/>
		<line class="st14" x1="2141.365" y1="1771.315" x2="-1183.817" y2="-148.481"/>
		<line class="st14" x1="2157.365" y1="1743.604" x2="-1167.819" y2="-176.192"/>
		<line class="st14" x1="2173.363" y1="1715.891" x2="-1151.82" y2="-203.9"/>
		<line class="st14" x1="2189.361" y1="1688.186" x2="-1135.822" y2="-231.611"/>
		<line class="st14" x1="2205.357" y1="1660.473" x2="-1119.824" y2="-259.32"/>
		<line class="st14" x1="2221.357" y1="1632.761" x2="-1103.826" y2="-287.031"/>
		<line class="st14" x1="2237.355" y1="1605.056" x2="-1087.828" y2="-314.741"/>
		<line class="st14" x1="2253.354" y1="1577.343" x2="-1071.83" y2="-342.45"/>
		<line class="st14" x1="2269.352" y1="1549.631" x2="-1055.831" y2="-370.161"/>
		<line class="st14" x1="2285.35" y1="1521.926" x2="-1039.833" y2="-397.869"/>
		<line class="st14" x1="2301.348" y1="1494.213" x2="-1023.834" y2="-425.58"/>
		<line class="st14" x1="2317.346" y1="1466.501" x2="-1007.836" y2="-453.291"/>
		<line class="st14" x1="2333.346" y1="1438.796" x2="-991.838" y2="-481"/>
		<line class="st14" x1="2349.344" y1="1411.083" x2="-975.839" y2="-508.709"/>
		<line class="st14" x1="2365.342" y1="1383.378" x2="-959.841" y2="-536.419"/>
		<line class="st14" x1="2381.34" y1="1355.666" x2="-943.843" y2="-564.129"/>
		<line class="st14" x1="2397.338" y1="1327.953" x2="-927.844" y2="-591.838"/>
		<line class="st14" x1="2413.336" y1="1300.248" x2="-911.847" y2="-619.548"/>
		<line class="st14" x1="2429.334" y1="1272.535" x2="-895.848" y2="-647.259"/>
		<line class="st14" x1="2445.334" y1="1244.823" x2="-879.85" y2="-674.968"/>
		<line class="st14" x1="2461.332" y1="1217.118" x2="-863.852" y2="-702.678"/>
		<line class="st14" x1="2477.33" y1="1189.405" x2="-847.854" y2="-730.387"/>
		<line class="st14" x1="2493.328" y1="1161.693" x2="-831.855" y2="-758.098"/>
		<line class="st14" x1="2509.326" y1="1133.988" x2="-815.857" y2="-785.807"/>
		<line class="st14" x1="2525.324" y1="1106.275" x2="-799.858" y2="-813.517"/>
		<line class="st14" x1="2541.322" y1="1078.563" x2="-783.86" y2="-841.228"/>
		<line class="st14" x1="2557.322" y1="1050.857" x2="-767.862" y2="-868.937"/>
		<line class="st14" x1="2573.318" y1="1023.146" x2="-751.864" y2="-896.647"/>
		<line class="st14" x1="2589.318" y1="995.44" x2="-735.866" y2="-924.356"/>
		<line class="st14" x1="2605.314" y1="967.728" x2="-719.867" y2="-952.066"/>
		<line class="st14" x1="2621.314" y1="940.016" x2="-703.869" y2="-979.777"/>
		<line class="st14" x1="2637.313" y1="912.311" x2="-687.871" y2="-1007.486"/>
		<line class="st14" x1="2653.311" y1="884.598" x2="-671.873" y2="-1035.196"/>
		<line class="st14" x1="2669.309" y1="856.887" x2="-655.874" y2="-1062.905"/>
		<line class="st14" x1="2685.307" y1="829.181" x2="-639.875" y2="-1090.616"/>
		<line class="st14" x1="2701.305" y1="801.468" x2="-623.877" y2="-1118.325"/>
		<line class="st14" x1="2717.303" y1="773.757" x2="-607.879" y2="-1146.035"/>
		<line class="st14" x1="2733.303" y1="746.051" x2="-591.881" y2="-1173.746"/>
		<line class="st14" x1="2749.301" y1="718.339" x2="-575.883" y2="-1201.455"/>
		<line class="st14" x1="2765.299" y1="690.627" x2="-559.885" y2="-1229.165"/>
		<line class="st14" x1="2781.297" y1="662.921" x2="-543.886" y2="-1256.874"/>
		<line class="st14" x1="2797.295" y1="635.209" x2="-527.888" y2="-1284.584"/>
		<line class="st14" x1="2813.293" y1="607.503" x2="-511.89" y2="-1312.293"/>
		<line class="st14" x1="2829.291" y1="579.791" x2="-495.891" y2="-1340.003"/>
		<line class="st14" x1="2845.291" y1="552.078" x2="-479.893" y2="-1367.714"/>
		<line class="st14" x1="2861.289" y1="524.373" x2="-463.895" y2="-1395.423"/>
		<line class="st14" x1="2877.285" y1="496.66" x2="-447.896" y2="-1423.134"/>
		<line class="st14" x1="2893.285" y1="468.949" x2="-431.898" y2="-1450.842"/>
		<line class="st14" x1="2909.283" y1="441.243" x2="-415.9" y2="-1478.553"/>
		<line class="st14" x1="2925.281" y1="413.529" x2="-399.902" y2="-1506.264"/>
		<line class="st14" x1="2941.279" y1="385.82" x2="-383.904" y2="-1533.973"/>
		<line class="st14" x1="2957.279" y1="358.11" x2="-367.905" y2="-1561.683"/>
		<line class="st14" x1="2973.275" y1="330.401" x2="-351.907" y2="-1589.392"/>
		<line class="st14" x1="2989.273" y1="302.691" x2="-335.909" y2="-1617.103"/>
		<line class="st14" x1="3005.271" y1="274.982" x2="-319.91" y2="-1644.812"/>
		<line class="st14" x1="3021.271" y1="247.271" x2="-303.912" y2="-1672.522"/>
		<line class="st14" x1="3037.27" y1="219.561" x2="-287.914" y2="-1700.232"/>
		<line class="st14" x1="3053.268" y1="191.852" x2="-271.915" y2="-1727.941"/>
		<line class="st14" x1="3069.266" y1="164.141" x2="-255.917" y2="-1755.652"/>
		<line class="st14" x1="3085.264" y1="136.433" x2="-239.919" y2="-1783.36"/>
		<line class="st14" x1="3101.262" y1="108.722" x2="-223.921" y2="-1811.071"/>
		<line class="st14" x1="3117.26" y1="81.011" x2="-207.922" y2="-1838.781"/>
		<line class="st14" x1="3133.26" y1="53.302" x2="-191.924" y2="-1866.49"/>
		<line class="st14" x1="3149.258" y1="25.592" x2="-175.926" y2="-1894.201"/>
		<line class="st14" x1="-525.623" y1="2464.168" x2="2799.559" y2="544.375"/>
		<line class="st14" x1="-541.621" y1="2436.462" x2="2783.561" y2="516.669"/>
		<line class="st14" x1="-557.619" y1="2408.75" x2="2767.563" y2="488.957"/>
		<line class="st14" x1="-573.618" y1="2381.037" x2="2751.564" y2="461.245"/>
		<line class="st14" x1="-589.616" y1="2353.332" x2="2735.564" y2="433.539"/>
		<line class="st14" x1="-605.614" y1="2325.62" x2="2719.568" y2="405.827"/>
		<line class="st14" x1="-621.612" y1="2297.907" x2="2703.568" y2="378.117"/>
		<line class="st14" x1="-637.61" y1="2270.202" x2="2687.57" y2="350.408"/>
		<line class="st14" x1="-653.608" y1="2242.49" x2="2671.572" y2="322.697"/>
		<line class="st14" x1="-669.607" y1="2214.785" x2="2655.574" y2="294.988"/>
		<line class="st14" x1="-685.605" y1="2187.072" x2="2639.576" y2="267.278"/>
		<line class="st14" x1="-701.604" y1="2159.359" x2="2623.578" y2="239.569"/>
		<line class="st14" x1="-717.602" y1="2131.654" x2="2607.58" y2="211.858"/>
		<line class="st14" x1="-733.6" y1="2103.942" x2="2591.582" y2="184.148"/>
		<line class="st14" x1="-749.599" y1="2076.229" x2="2575.582" y2="156.439"/>
		<line class="st14" x1="-765.597" y1="2048.524" x2="2559.584" y2="128.729"/>
		<line class="st14" x1="-781.595" y1="2020.813" x2="2543.586" y2="101.02"/>
		<line class="st14" x1="-797.593" y1="1993.1" x2="2527.588" y2="73.309"/>
		<line class="st14" x1="-813.591" y1="1965.395" x2="2511.59" y2="45.6"/>
		<line class="st14" x1="-829.589" y1="1937.683" x2="2495.592" y2="17.89"/>
		<line class="st14" x1="-845.588" y1="1909.97" x2="2479.594" y2="-9.821"/>
		<line class="st14" x1="-861.586" y1="1882.265" x2="2463.594" y2="-37.53"/>
		<line class="st14" x1="-877.584" y1="1854.553" x2="2447.596" y2="-65.24"/>
		<line class="st14" x1="-893.583" y1="1826.847" x2="2431.598" y2="-92.949"/>
		<line class="st14" x1="-909.581" y1="1799.135" x2="2415.602" y2="-120.66"/>
		<line class="st14" x1="-925.58" y1="1771.422" x2="2399.602" y2="-148.371"/>
		<line class="st14" x1="-941.578" y1="1743.717" x2="2383.604" y2="-176.079"/>
		<line class="st14" x1="-957.576" y1="1716.005" x2="2367.605" y2="-203.789"/>
		<line class="st14" x1="-973.574" y1="1688.293" x2="2351.607" y2="-231.499"/>
		<line class="st14" x1="-989.572" y1="1660.587" x2="2335.609" y2="-259.208"/>
		<line class="st14" x1="-1005.571" y1="1632.876" x2="2319.611" y2="-286.918"/>
		<line class="st14" x1="-1021.569" y1="1605.163" x2="2303.613" y2="-314.628"/>
		<line class="st14" x1="-1037.567" y1="1577.458" x2="2287.613" y2="-342.339"/>
		<line class="st14" x1="-1053.566" y1="1549.746" x2="2271.615" y2="-370.047"/>
		<line class="st14" x1="-1069.564" y1="1522.033" x2="2255.617" y2="-397.758"/>
		<line class="st14" x1="-1085.562" y1="1494.328" x2="2239.619" y2="-425.467"/>
		<line class="st14" x1="-1101.561" y1="1466.615" x2="2223.621" y2="-453.177"/>
		<line class="st14" x1="-1117.559" y1="1438.903" x2="2207.623" y2="-480.888"/>
		<line class="st14" x1="-1133.557" y1="1411.198" x2="2191.625" y2="-508.597"/>
		<line class="st14" x1="-1149.555" y1="1383.485" x2="2175.625" y2="-536.308"/>
		<line class="st14" x1="-1165.553" y1="1355.78" x2="2159.627" y2="-564.016"/>
		<line class="st14" x1="-1181.552" y1="1328.068" x2="2143.629" y2="-591.727"/>
		<line class="st14" x1="-1197.55" y1="1300.355" x2="2127.631" y2="-619.436"/>
		<line class="st14" x1="-1213.548" y1="1272.65" x2="2111.633" y2="-647.146"/>
		<line class="st14" x1="-1229.546" y1="1244.938" x2="2095.635" y2="-674.857"/>
		<line class="st14" x1="-1245.545" y1="1217.226" x2="2079.637" y2="-702.565"/>
		<line class="st14" x1="-1261.543" y1="1189.521" x2="2063.637" y2="-730.276"/>
		<line class="st14" x1="-1277.542" y1="1161.808" x2="2047.641" y2="-757.985"/>
		<line class="st14" x1="-1293.54" y1="1134.096" x2="2031.643" y2="-785.696"/>
		<line class="st14" x1="-1309.538" y1="1106.391" x2="2015.645" y2="-813.404"/>
		<line class="st14" x1="-1325.536" y1="1078.678" x2="1999.645" y2="-841.115"/>
		<line class="st14" x1="-1341.535" y1="1050.966" x2="1983.646" y2="-868.826"/>
		<line class="st14" x1="-1357.533" y1="1023.261" x2="1967.648" y2="-896.535"/>
		<line class="st14" x1="-1373.531" y1="995.548" x2="1951.65" y2="-924.245"/>
		<line class="st14" x1="-1389.529" y1="967.843" x2="1935.652" y2="-951.953"/>
		<line class="st14" x1="-1405.528" y1="940.131" x2="1919.654" y2="-979.664"/>
		<line class="st14" x1="-1421.526" y1="912.418" x2="1903.656" y2="-1007.375"/>
		<line class="st14" x1="-1437.524" y1="884.713" x2="1887.656" y2="-1035.083"/>
		<line class="st14" x1="-1453.523" y1="857" x2="1871.658" y2="-1062.794"/>
		<line class="st14" x1="-1469.521" y1="829.288" x2="1855.66" y2="-1090.503"/>
		<line class="st14" x1="-1485.519" y1="801.583" x2="1839.662" y2="-1118.213"/>
		<line class="st14" x1="-1501.517" y1="773.87" x2="1823.664" y2="-1145.922"/>
		<line class="st14" x1="-1517.515" y1="746.158" x2="1807.666" y2="-1173.633"/>
		<line class="st14" x1="-1533.514" y1="718.453" x2="1791.668" y2="-1201.343"/>
		<line class="st14" x1="-1549.512" y1="690.74" x2="1775.668" y2="-1229.052"/>
		<line class="st14" x1="-1565.51" y1="663.028" x2="1759.67" y2="-1256.763"/>
		<line class="st14" x1="-1581.509" y1="635.323" x2="1743.674" y2="-1284.472"/>
		<line class="st14" x1="-1597.507" y1="607.611" x2="1727.674" y2="-1312.182"/>
		<line class="st14" x1="-1613.505" y1="579.906" x2="1711.676" y2="-1339.891"/>
		<line class="st14" x1="-1629.503" y1="552.193" x2="1695.678" y2="-1367.602"/>
		<line class="st14" x1="-1645.501" y1="524.48" x2="1679.68" y2="-1395.313"/>
		<line class="st14" x1="-1661.5" y1="496.775" x2="1663.682" y2="-1423.021"/>
		<line class="st14" x1="-1677.498" y1="469.063" x2="1647.684" y2="-1450.731"/>
		<line class="st14" x1="-1693.497" y1="441.352" x2="1631.686" y2="-1478.44"/>
		<line class="st14" x1="-1709.495" y1="413.646" x2="1615.688" y2="-1506.151"/>
		<line class="st14" x1="-1725.493" y1="385.932" x2="1599.688" y2="-1533.861"/>
		<line class="st14" x1="-1741.492" y1="358.223" x2="1583.689" y2="-1561.57"/>
		<line class="st14" x1="-1757.49" y1="330.512" x2="1567.691" y2="-1589.28"/>
		<line class="st14" x1="-1773.488" y1="302.803" x2="1551.693" y2="-1616.99"/>
		<line class="st14" x1="-1789.486" y1="275.093" x2="1535.695" y2="-1644.7"/>
		<line class="st14" x1="-1805.485" y1="247.384" x2="1519.697" y2="-1672.409"/>
		<line class="st14" x1="-1821.482" y1="219.673" x2="1503.699" y2="-1700.119"/>
		<line class="st14" x1="-1837.481" y1="191.963" x2="1487.699" y2="-1727.83"/>
		<line class="st14" x1="-1853.479" y1="164.254" x2="1471.701" y2="-1755.539"/>
		<line class="st14" x1="-1869.478" y1="136.544" x2="1455.703" y2="-1783.249"/>
		<line class="st14" x1="-1885.476" y1="108.835" x2="1439.705" y2="-1810.958"/>
		<line class="st14" x1="-1901.474" y1="81.125" x2="1423.707" y2="-1838.669"/>
		<line class="st14" x1="-1917.473" y1="53.414" x2="1407.709" y2="-1866.379"/>
		<line class="st14" x1="-1933.471" y1="25.705" x2="1391.711" y2="-1894.088"/>
	</g>
</g>
<polygon class="st1" points="0,43.142 127.987,117.035 63.305,154.379 0,117.034 "/>
<polygon class="st11" points="1,191 63.305,228.271 127.86,191 0,117.034 "/>
<polygon class="st10" points="127.987,117.035 127.986,486.498 63.993,523.444 63.305,154.379 "/>
<polygon class="st10" points="73.315,160.146 117.987,134.355 117.986,480.725 73.961,506.143 "/>
<polygon class="st10" points="63.993,523.444 0,486.499 0,117.034 63.305,154.379 "/>
<polygon class="st11" points="73.315,160.146 117.987,134.355 117.987,196.701 73.315,222.492 "/>
<polygon class="st9" points="73.315,222.492 117.987,196.701 117.986,307.701 73.639,333.306 "/>
<polygon class="st6" points="73.639,333.306 117.986,307.701 117.986,480.725 73.961,506.143 "/>
<polygon class="st0" points="87.737,345.631 103.888,336.306 103.888,354.778 87.737,364.103 "/>
<polygon class="st5" points="87.737,383.631 103.888,374.306 103.888,392.778 87.737,402.103 "/>
<polygon class="st12" points="87.737,463.631 103.888,454.306 103.888,472.778 87.737,482.103 "/>
<polygon class="st11" points="927.899,431.078 927.899,320.249 895.903,301.767 895.903,412.033 "/>
<polygon class="st11" points="927.899,283.078 927.899,172.249 895.903,153.767 895.903,264.033 "/>
</svg>
