<?xml version="1.0" encoding="utf-8"?>
<!-- Generator: Adobe Illustrator 16.0.0, SVG Export Plug-In . SVG Version: 6.00 Build 0)  -->
<!DOCTYPE svg PUBLIC "-//W3C//DTD SVG 1.1//EN" "http://www.w3.org/Graphics/SVG/1.1/DTD/svg11.dtd">
<svg version="1.1" id="Layer_1" xmlns="http://www.w3.org/2000/svg" xmlns:xlink="http://www.w3.org/1999/xlink" x="0px" y="0px"
	 width="1024px" height="546px" viewBox="0 0 1024 546" style="enable-background:new 0 0 1024 546;" xml:space="preserve">
<style type="text/css">
<![CDATA[
	.st0{fill:#EBE714;stroke:#000000;stroke-miterlimit:10;}
	.st1{fill:#5D5B53;stroke:#000000;stroke-miterlimit:10;}
	.st2{opacity:0.8;fill:#F05037;}
	.st3{fill:#B6AC33;}
	.st4{fill:#565656;}
	.st5{fill:#5ABA47;stroke:#000000;stroke-miterlimit:10;}
	.st6{fill:#C5C2E1;stroke:#000000;stroke-miterlimit:10;}
	.st7{clip-path:url(#SVGID_2_);}
	.st8{display:none;opacity:0.9;fill:#FFFFFF;}
	.st9{fill:#FAED2E;}
	.st10{fill:none;stroke:#000000;stroke-miterlimit:10;}
	.st11{fill:#91B69A;stroke:#000000;stroke-miterlimit:10;}
	.st12{fill:#D23627;stroke:#000000;stroke-miterlimit:10;}
	.st13{fill:#A9A8A8;}
	.st14{fill:none;stroke:#00AEEF;stroke-width:0.125;stroke-miterlimit:10;}
]]>
</style>
<rect class="st4" width="1024" height="546"/>
<g>
	<defs>
		<rect id="SVGID_1_" x="0.055" y="-756.483" width="1023.89" height="1343.855"/>
	</defs>
	<clipPath id="SVGID_2_">
		<use xlink:href="#SVGID_1_"  style="overflow:visible;"/>
	</clipPath>
	<g class="st7">
		<line class="st14" x1="0.055" y1="1227.92" x2="0.055" y2="-2611.667"/>
		<line class="st14" x1="32.052" y1="1227.92" x2="32.052" y2="-2611.667"/>
		<line class="st14" x1="64.048" y1="1227.92" x2="64.048" y2="-2611.667"/>
		<line class="st14" x1="96.044" y1="1227.92" x2="96.044" y2="-2611.667"/>
		<line class="st14" x1="128.041" y1="1227.92" x2="128.041" y2="-2611.667"/>
		<line class="st14" x1="160.038" y1="1227.92" x2="160.038" y2="-2611.667"/>
		<line class="st14" x1="192.035" y1="1227.92" x2="192.035" y2="-2611.667"/>
		<line class="st14" x1="224.031" y1="1227.92" x2="224.031" y2="-2611.667"/>
		<line class="st14" x1="256.027" y1="1227.92" x2="256.027" y2="-2611.667"/>
		<line class="st14" x1="288.024" y1="1227.92" x2="288.024" y2="-2611.667"/>
		<line class="st14" x1="320.021" y1="1227.92" x2="320.021" y2="-2611.667"/>
		<line class="st14" x1="352.017" y1="1227.92" x2="352.017" y2="-2611.667"/>
		<line class="st14" x1="384.014" y1="1227.92" x2="384.014" y2="-2611.667"/>
		<line class="st14" x1="416.011" y1="1227.92" x2="416.011" y2="-2611.667"/>
		<line class="st14" x1="448.007" y1="1227.92" x2="448.007" y2="-2611.667"/>
		<line class="st14" x1="480.004" y1="1227.92" x2="480.004" y2="-2611.667"/>
		<line class="st14" x1="512" y1="1227.92" x2="512" y2="-2611.667"/>
		<line class="st14" x1="543.996" y1="1227.92" x2="543.996" y2="-2611.667"/>
		<line class="st14" x1="575.992" y1="1227.92" x2="575.992" y2="-2611.667"/>
		<line class="st14" x1="607.99" y1="1227.92" x2="607.99" y2="-2611.667"/>
		<line class="st14" x1="639.986" y1="1227.92" x2="639.986" y2="-2611.667"/>
		<line class="st14" x1="671.982" y1="1227.92" x2="671.982" y2="-2611.667"/>
		<line class="st14" x1="703.979" y1="1227.92" x2="703.979" y2="-2611.667"/>
		<line class="st14" x1="735.977" y1="1227.92" x2="735.977" y2="-2611.667"/>
		<line class="st14" x1="767.973" y1="1227.92" x2="767.973" y2="-2611.667"/>
		<line class="st14" x1="799.969" y1="1227.92" x2="799.969" y2="-2611.667"/>
		<line class="st14" x1="831.967" y1="1227.92" x2="831.967" y2="-2611.667"/>
		<line class="st14" x1="863.961" y1="1227.92" x2="863.961" y2="-2611.667"/>
		<line class="st14" x1="895.959" y1="1227.92" x2="895.959" y2="-2611.667"/>
		<line class="st14" x1="927.955" y1="1227.92" x2="927.955" y2="-2611.667"/>
		<line class="st14" x1="959.951" y1="1227.92" x2="959.951" y2="-2611.667"/>
		<line class="st14" x1="991.947" y1="1227.92" x2="991.947" y2="-2611.667"/>
		<line class="st14" x1="1023.945" y1="1227.92" x2="1023.945" y2="-2611.667"/>
		<line class="st14" x1="1389.447" y1="2465.675" x2="-1935.736" y2="545.881"/>
		<line class="st14" x1="1405.445" y1="2437.963" x2="-1919.738" y2="518.169"/>
		<line class="st14" x1="1421.443" y1="2410.258" x2="-1903.74" y2="490.464"/>
		<line class="st14" x1="1437.441" y1="2382.545" x2="-1887.741" y2="462.751"/>
		<line class="st14" x1="1453.439" y1="2354.833" x2="-1871.743" y2="435.04"/>
		<line class="st14" x1="1469.439" y1="2327.127" x2="-1855.745" y2="407.334"/>
		<line class="st14" x1="1485.438" y1="2299.415" x2="-1839.747" y2="379.622"/>
		<line class="st14" x1="1501.436" y1="2271.703" x2="-1823.748" y2="351.91"/>
		<line class="st14" x1="1517.434" y1="2243.997" x2="-1807.75" y2="324.205"/>
		<line class="st14" x1="1533.432" y1="2216.285" x2="-1791.752" y2="296.492"/>
		<line class="st14" x1="1549.43" y1="2188.572" x2="-1775.753" y2="268.78"/>
		<line class="st14" x1="1565.428" y1="2160.867" x2="-1759.755" y2="241.075"/>
		<line class="st14" x1="1581.428" y1="2133.155" x2="-1743.757" y2="213.362"/>
		<line class="st14" x1="1597.424" y1="2105.449" x2="-1727.759" y2="185.657"/>
		<line class="st14" x1="1613.422" y1="2077.737" x2="-1711.76" y2="157.945"/>
		<line class="st14" x1="1629.42" y1="2050.025" x2="-1695.762" y2="130.232"/>
		<line class="st14" x1="1645.42" y1="2022.32" x2="-1679.764" y2="102.527"/>
		<line class="st14" x1="1661.418" y1="1994.607" x2="-1663.765" y2="74.814"/>
		<line class="st14" x1="1677.416" y1="1966.895" x2="-1647.767" y2="47.103"/>
		<line class="st14" x1="1693.414" y1="1939.189" x2="-1631.769" y2="19.396"/>
		<line class="st14" x1="1709.412" y1="1911.478" x2="-1615.77" y2="-8.315"/>
		<line class="st14" x1="1725.41" y1="1883.765" x2="-1599.772" y2="-36.027"/>
		<line class="st14" x1="1741.408" y1="1856.06" x2="-1583.774" y2="-63.732"/>
		<line class="st14" x1="1757.408" y1="1828.348" x2="-1567.776" y2="-91.445"/>
		<line class="st14" x1="1773.406" y1="1800.635" x2="-1551.778" y2="-119.158"/>
		<line class="st14" x1="1789.404" y1="1772.93" x2="-1535.779" y2="-146.863"/>
		<line class="st14" x1="1805.402" y1="1745.217" x2="-1519.781" y2="-174.575"/>
		<line class="st14" x1="1821.4" y1="1717.505" x2="-1503.783" y2="-202.285"/>
		<line class="st14" x1="1837.398" y1="1689.8" x2="-1487.784" y2="-229.994"/>
		<line class="st14" x1="1853.396" y1="1662.087" x2="-1471.786" y2="-257.705"/>
		<line class="st14" x1="1869.396" y1="1634.382" x2="-1455.788" y2="-285.414"/>
		<line class="st14" x1="1885.395" y1="1606.67" x2="-1439.79" y2="-313.125"/>
		<line class="st14" x1="1901.391" y1="1578.957" x2="-1423.792" y2="-340.833"/>
		<line class="st14" x1="1917.391" y1="1551.252" x2="-1407.793" y2="-368.544"/>
		<line class="st14" x1="1933.389" y1="1523.54" x2="-1391.795" y2="-396.255"/>
		<line class="st14" x1="1949.387" y1="1495.827" x2="-1375.796" y2="-423.963"/>
		<line class="st14" x1="1965.385" y1="1468.122" x2="-1359.798" y2="-451.674"/>
		<line class="st14" x1="1981.383" y1="1440.41" x2="-1343.8" y2="-479.383"/>
		<line class="st14" x1="1997.381" y1="1412.698" x2="-1327.801" y2="-507.094"/>
		<line class="st14" x1="2013.379" y1="1384.992" x2="-1311.803" y2="-534.802"/>
		<line class="st14" x1="2029.377" y1="1357.281" x2="-1295.805" y2="-562.512"/>
		<line class="st14" x1="2045.377" y1="1329.568" x2="-1279.807" y2="-590.223"/>
		<line class="st14" x1="2061.375" y1="1301.863" x2="-1263.808" y2="-617.932"/>
		<line class="st14" x1="2077.373" y1="1274.15" x2="-1247.811" y2="-645.643"/>
		<line class="st14" x1="2093.371" y1="1246.444" x2="-1231.812" y2="-673.351"/>
		<line class="st14" x1="2109.369" y1="1218.733" x2="-1215.814" y2="-701.062"/>
		<line class="st14" x1="2125.367" y1="1191.021" x2="-1199.815" y2="-728.772"/>
		<line class="st14" x1="2141.365" y1="1163.315" x2="-1183.817" y2="-756.481"/>
		<line class="st14" x1="2157.365" y1="1135.604" x2="-1167.819" y2="-784.192"/>
		<line class="st14" x1="2173.363" y1="1107.891" x2="-1151.82" y2="-811.9"/>
		<line class="st14" x1="2189.361" y1="1080.186" x2="-1135.822" y2="-839.611"/>
		<line class="st14" x1="2205.357" y1="1052.473" x2="-1119.824" y2="-867.32"/>
		<line class="st14" x1="2221.357" y1="1024.761" x2="-1103.826" y2="-895.031"/>
		<line class="st14" x1="2237.355" y1="997.056" x2="-1087.828" y2="-922.741"/>
		<line class="st14" x1="2253.354" y1="969.343" x2="-1071.83" y2="-950.45"/>
		<line class="st14" x1="2269.352" y1="941.631" x2="-1055.831" y2="-978.161"/>
		<line class="st14" x1="2285.35" y1="913.926" x2="-1039.833" y2="-1005.869"/>
		<line class="st14" x1="2301.348" y1="886.213" x2="-1023.834" y2="-1033.58"/>
		<line class="st14" x1="2317.346" y1="858.501" x2="-1007.836" y2="-1061.291"/>
		<line class="st14" x1="2333.346" y1="830.796" x2="-991.838" y2="-1089"/>
		<line class="st14" x1="2349.344" y1="803.083" x2="-975.839" y2="-1116.709"/>
		<line class="st14" x1="2365.342" y1="775.378" x2="-959.841" y2="-1144.419"/>
		<line class="st14" x1="2381.34" y1="747.666" x2="-943.843" y2="-1172.129"/>
		<line class="st14" x1="2397.338" y1="719.953" x2="-927.844" y2="-1199.838"/>
		<line class="st14" x1="2413.336" y1="692.248" x2="-911.847" y2="-1227.548"/>
		<line class="st14" x1="2429.334" y1="664.535" x2="-895.848" y2="-1255.259"/>
		<line class="st14" x1="2445.334" y1="636.823" x2="-879.85" y2="-1282.968"/>
		<line class="st14" x1="2461.332" y1="609.118" x2="-863.852" y2="-1310.678"/>
		<line class="st14" x1="2477.33" y1="581.405" x2="-847.854" y2="-1338.387"/>
		<line class="st14" x1="2493.328" y1="553.693" x2="-831.855" y2="-1366.098"/>
		<line class="st14" x1="2509.326" y1="525.988" x2="-815.857" y2="-1393.807"/>
		<line class="st14" x1="2525.324" y1="498.275" x2="-799.858" y2="-1421.517"/>
		<line class="st14" x1="2541.322" y1="470.563" x2="-783.86" y2="-1449.228"/>
		<line class="st14" x1="2557.322" y1="442.857" x2="-767.862" y2="-1476.937"/>
		<line class="st14" x1="2573.318" y1="415.146" x2="-751.864" y2="-1504.647"/>
		<line class="st14" x1="2589.318" y1="387.44" x2="-735.866" y2="-1532.356"/>
		<line class="st14" x1="2605.314" y1="359.728" x2="-719.867" y2="-1560.066"/>
		<line class="st14" x1="2621.314" y1="332.016" x2="-703.869" y2="-1587.777"/>
		<line class="st14" x1="2637.313" y1="304.311" x2="-687.871" y2="-1615.486"/>
		<line class="st14" x1="2653.311" y1="276.598" x2="-671.873" y2="-1643.196"/>
		<line class="st14" x1="2669.309" y1="248.887" x2="-655.874" y2="-1670.905"/>
		<line class="st14" x1="2685.307" y1="221.181" x2="-639.875" y2="-1698.616"/>
		<line class="st14" x1="2701.305" y1="193.468" x2="-623.877" y2="-1726.325"/>
		<line class="st14" x1="2717.303" y1="165.757" x2="-607.879" y2="-1754.035"/>
		<line class="st14" x1="2733.303" y1="138.051" x2="-591.881" y2="-1781.746"/>
		<line class="st14" x1="2749.301" y1="110.339" x2="-575.883" y2="-1809.455"/>
		<line class="st14" x1="2765.299" y1="82.627" x2="-559.885" y2="-1837.165"/>
		<line class="st14" x1="2781.297" y1="54.921" x2="-543.886" y2="-1864.874"/>
		<line class="st14" x1="2797.295" y1="27.209" x2="-527.888" y2="-1892.584"/>
		<line class="st14" x1="-173.661" y1="2465.789" x2="3151.52" y2="545.996"/>
		<line class="st14" x1="-189.659" y1="2438.078" x2="3135.521" y2="518.284"/>
		<line class="st14" x1="-205.657" y1="2410.365" x2="3119.525" y2="490.571"/>
		<line class="st14" x1="-221.655" y1="2382.66" x2="3103.525" y2="462.866"/>
		<line class="st14" x1="-237.654" y1="2354.947" x2="3087.527" y2="435.154"/>
		<line class="st14" x1="-253.652" y1="2327.235" x2="3071.529" y2="407.441"/>
		<line class="st14" x1="-269.65" y1="2299.53" x2="3055.531" y2="379.736"/>
		<line class="st14" x1="-285.648" y1="2271.817" x2="3039.531" y2="352.023"/>
		<line class="st14" x1="-301.646" y1="2244.105" x2="3023.535" y2="324.312"/>
		<line class="st14" x1="-317.645" y1="2216.4" x2="3007.537" y2="296.606"/>
		<line class="st14" x1="-333.643" y1="2188.688" x2="2991.539" y2="268.894"/>
		<line class="st14" x1="-349.642" y1="2160.975" x2="2975.539" y2="241.182"/>
		<line class="st14" x1="-365.64" y1="2133.27" x2="2959.541" y2="213.477"/>
		<line class="st14" x1="-381.638" y1="2105.558" x2="2943.543" y2="185.764"/>
		<line class="st14" x1="-397.636" y1="2077.853" x2="2927.545" y2="158.059"/>
		<line class="st14" x1="-413.635" y1="2050.14" x2="2911.547" y2="130.346"/>
		<line class="st14" x1="-429.633" y1="2022.428" x2="2895.549" y2="102.635"/>
		<line class="st14" x1="-445.631" y1="1994.723" x2="2879.551" y2="74.929"/>
		<line class="st14" x1="-461.629" y1="1967.01" x2="2863.551" y2="47.217"/>
		<line class="st14" x1="-477.627" y1="1939.298" x2="2847.553" y2="19.504"/>
		<line class="st14" x1="-493.626" y1="1911.592" x2="2831.555" y2="-8.201"/>
		<line class="st14" x1="-509.624" y1="1883.88" x2="2815.557" y2="-35.913"/>
		<line class="st14" x1="-525.623" y1="1856.168" x2="2799.559" y2="-63.625"/>
		<line class="st14" x1="-541.621" y1="1828.462" x2="2783.561" y2="-91.331"/>
		<line class="st14" x1="-557.619" y1="1800.75" x2="2767.563" y2="-119.043"/>
		<line class="st14" x1="-573.618" y1="1773.037" x2="2751.564" y2="-146.755"/>
		<line class="st14" x1="-589.616" y1="1745.332" x2="2735.564" y2="-174.461"/>
		<line class="st14" x1="-605.614" y1="1717.62" x2="2719.568" y2="-202.173"/>
		<line class="st14" x1="-621.612" y1="1689.907" x2="2703.568" y2="-229.883"/>
		<line class="st14" x1="-637.61" y1="1662.202" x2="2687.57" y2="-257.592"/>
		<line class="st14" x1="-653.608" y1="1634.49" x2="2671.572" y2="-285.303"/>
		<line class="st14" x1="-669.607" y1="1606.785" x2="2655.574" y2="-313.012"/>
		<line class="st14" x1="-685.605" y1="1579.072" x2="2639.576" y2="-340.722"/>
		<line class="st14" x1="-701.604" y1="1551.359" x2="2623.578" y2="-368.431"/>
		<line class="st14" x1="-717.602" y1="1523.654" x2="2607.58" y2="-396.142"/>
		<line class="st14" x1="-733.6" y1="1495.942" x2="2591.582" y2="-423.852"/>
		<line class="st14" x1="-749.599" y1="1468.229" x2="2575.582" y2="-451.561"/>
		<line class="st14" x1="-765.597" y1="1440.524" x2="2559.584" y2="-479.271"/>
		<line class="st14" x1="-781.595" y1="1412.813" x2="2543.586" y2="-506.98"/>
		<line class="st14" x1="-797.593" y1="1385.1" x2="2527.588" y2="-534.691"/>
		<line class="st14" x1="-813.591" y1="1357.395" x2="2511.59" y2="-562.4"/>
		<line class="st14" x1="-829.589" y1="1329.683" x2="2495.592" y2="-590.11"/>
		<line class="st14" x1="-845.588" y1="1301.97" x2="2479.594" y2="-617.821"/>
		<line class="st14" x1="-861.586" y1="1274.265" x2="2463.594" y2="-645.53"/>
		<line class="st14" x1="-877.584" y1="1246.553" x2="2447.596" y2="-673.24"/>
		<line class="st14" x1="-893.583" y1="1218.847" x2="2431.598" y2="-700.949"/>
		<line class="st14" x1="-909.581" y1="1191.135" x2="2415.602" y2="-728.66"/>
		<line class="st14" x1="-925.58" y1="1163.422" x2="2399.602" y2="-756.371"/>
		<line class="st14" x1="-941.578" y1="1135.717" x2="2383.604" y2="-784.079"/>
		<line class="st14" x1="-957.576" y1="1108.005" x2="2367.605" y2="-811.789"/>
		<line class="st14" x1="-973.574" y1="1080.293" x2="2351.607" y2="-839.499"/>
		<line class="st14" x1="-989.572" y1="1052.587" x2="2335.609" y2="-867.208"/>
		<line class="st14" x1="-1005.571" y1="1024.876" x2="2319.611" y2="-894.918"/>
		<line class="st14" x1="-1021.569" y1="997.163" x2="2303.613" y2="-922.628"/>
		<line class="st14" x1="-1037.567" y1="969.458" x2="2287.613" y2="-950.339"/>
		<line class="st14" x1="-1053.566" y1="941.746" x2="2271.615" y2="-978.047"/>
		<line class="st14" x1="-1069.564" y1="914.033" x2="2255.617" y2="-1005.758"/>
		<line class="st14" x1="-1085.562" y1="886.328" x2="2239.619" y2="-1033.467"/>
		<line class="st14" x1="-1101.561" y1="858.615" x2="2223.621" y2="-1061.177"/>
		<line class="st14" x1="-1117.559" y1="830.903" x2="2207.623" y2="-1088.888"/>
		<line class="st14" x1="-1133.557" y1="803.198" x2="2191.625" y2="-1116.597"/>
		<line class="st14" x1="-1149.555" y1="775.485" x2="2175.625" y2="-1144.308"/>
		<line class="st14" x1="-1165.553" y1="747.78" x2="2159.627" y2="-1172.016"/>
		<line class="st14" x1="-1181.552" y1="720.068" x2="2143.629" y2="-1199.727"/>
		<line class="st14" x1="-1197.55" y1="692.355" x2="2127.631" y2="-1227.436"/>
		<line class="st14" x1="-1213.548" y1="664.65" x2="2111.633" y2="-1255.146"/>
		<line class="st14" x1="-1229.546" y1="636.938" x2="2095.635" y2="-1282.857"/>
		<line class="st14" x1="-1245.545" y1="609.226" x2="2079.637" y2="-1310.565"/>
		<line class="st14" x1="-1261.543" y1="581.521" x2="2063.637" y2="-1338.276"/>
		<line class="st14" x1="-1277.542" y1="553.808" x2="2047.641" y2="-1365.985"/>
		<line class="st14" x1="-1293.54" y1="526.096" x2="2031.643" y2="-1393.696"/>
		<line class="st14" x1="-1309.538" y1="498.391" x2="2015.645" y2="-1421.404"/>
		<line class="st14" x1="-1325.536" y1="470.678" x2="1999.645" y2="-1449.115"/>
		<line class="st14" x1="-1341.535" y1="442.966" x2="1983.646" y2="-1476.826"/>
		<line class="st14" x1="-1357.533" y1="415.261" x2="1967.648" y2="-1504.535"/>
		<line class="st14" x1="-1373.531" y1="387.548" x2="1951.65" y2="-1532.245"/>
		<line class="st14" x1="-1389.529" y1="359.843" x2="1935.652" y2="-1559.953"/>
		<line class="st14" x1="-1405.528" y1="332.131" x2="1919.654" y2="-1587.664"/>
		<line class="st14" x1="-1421.526" y1="304.418" x2="1903.656" y2="-1615.375"/>
		<line class="st14" x1="-1437.524" y1="276.713" x2="1887.656" y2="-1643.083"/>
		<line class="st14" x1="-1453.523" y1="249" x2="1871.658" y2="-1670.794"/>
		<line class="st14" x1="-1469.521" y1="221.288" x2="1855.66" y2="-1698.503"/>
		<line class="st14" x1="-1485.519" y1="193.583" x2="1839.662" y2="-1726.213"/>
		<line class="st14" x1="-1501.517" y1="165.87" x2="1823.664" y2="-1753.922"/>
		<line class="st14" x1="-1517.515" y1="138.158" x2="1807.666" y2="-1781.633"/>
		<line class="st14" x1="-1533.514" y1="110.453" x2="1791.668" y2="-1809.343"/>
		<line class="st14" x1="-1549.512" y1="82.74" x2="1775.668" y2="-1837.052"/>
		<line class="st14" x1="-1565.51" y1="55.028" x2="1759.67" y2="-1864.763"/>
		<line class="st14" x1="-1581.509" y1="27.323" x2="1743.674" y2="-1892.472"/>
	</g>
</g>
<rect x="142" class="st8" width="740" height="546"/>
<polygon class="st2" points="0,0 255.977,0 255.977,546 0.055,546 "/>
</svg>
