<svg xmlns="http://www.w3.org/2000/svg" width="120" height="120" viewBox="0 0 100 100" preserveAspectRatio="xMidYMid" class="uil-gears"><path fill="none" d="M0 0h100v100H0z" class="bk"/><path fill="#2e71f2" d="M59.9 32.6c.1-.8.1-1.7.1-2.6s0-1.8-.1-2.6l-5.1-.4c-.3-2.4-.9-4.6-1.8-6.7l4.2-2.9c-.7-1.6-1.6-3.1-2.6-4.5L50 15c-1.4-1.9-3.1-3.5-4.9-4.9l2.2-4.6c-1.4-1-2.9-1.9-4.5-2.6l-3 4.1c-2.1-.9-4.4-1.5-6.7-1.8L32.7.1C31.8 0 30.9 0 30 0s-1.8 0-2.6.1L27 5.2c-2.4.3-4.6.9-6.7 1.8l-2.9-4.1c-1.6.7-3.1 1.6-4.5 2.6l2.1 4.6c-1.9 1.4-3.5 3.1-5 4.9l-4.5-2.1c-1 1.4-1.9 2.9-2.6 4.5L7 20.3c-.9 2.1-1.5 4.4-1.8 6.8l-5 .4C0 28.2 0 29.1 0 30s0 1.8.1 2.6l5 .4c.3 2.4.9 4.7 1.8 6.8l-4.1 2.9c.7 1.6 1.6 3.1 2.6 4.5l4.5-2.1c1.4 1.9 3.1 3.5 5 4.9l-2.1 4.6c1.4 1 2.9 1.9 4.5 2.6l2.9-4.1c2.1.9 4.4 1.5 6.7 1.8l.4 5.1c.9 0 1.8 0 2.7 0s1.8 0 2.6-.1l.4-5.1c2.3-.3 4.6-.9 6.7-1.8l2.9 4.2c1.6-.7 3.1-1.6 4.5-2.6L45 49.9c1.9-1.4 3.5-3 4.9-4.9l4.6 2.2c1-1.4 1.9-2.9 2.6-4.5L53 39.8c.9-2.1 1.5-4.4 1.8-6.7l5.1-.5zM30 45c-8.3 0-15-6.7-15-15s6.7-15 15-15 15 6.7 15 15-6.7 15-15 15z"><animateTransform attributeName="transform" type="rotate" from="90 50 50" to="0 50 50" dur="1s" repeatCount="indefinite"/></path><path fill="#111" d="M83.56 91.5c.3-.74.54-1.6.77-2.48s.47-1.74.58-2.54l-4.82-1.7c.34-2.4.33-4.68 0-6.94l4.8-1.72c-.25-1.72-.73-3.4-1.34-5.02l-5 .84c-.85-2.2-2.07-4.18-3.45-6l3.3-3.88c-1.1-1.32-2.3-2.58-3.67-3.67l-3.96 3.17c-1.8-1.4-3.86-2.6-6-3.47l.93-5.03c-.84-.33-1.7-.57-2.58-.8s-1.74-.47-2.54-.58l-1.7 4.82c-2.4-.34-4.68-.33-6.94 0l-1.74-4.7c-1.73.25-3.4.73-5.02 1.33l.83 5c-2.18.85-4.17 2.08-6.1 3.43l-3.8-3.2c-1.32 1.1-2.57 2.32-3.67 3.68l3.2 3.86c-1.4 1.8-2.57 3.86-3.5 6.1l-4.92-.9c-.36.62-.6 1.5-.83 2.36s-.47 1.74-.58 2.54l4.72 1.68c-.33 2.4-.35 4.77-.02 7.03l-4.7 1.74c.25 1.73.73 3.4 1.33 5.02l4.9-.87c.85 2.2 2.08 4.18 3.55 6.03l-3.22 3.9c1.1 1.33 2.3 2.6 3.68 3.68l3.86-3.2c1.8 1.4 3.86 2.57 6 3.46l-.93 5.03c.87.23 1.74.47 2.6.7s1.75.47 2.55.58l1.7-4.82c2.3.3 4.68.33 6.94 0l1.72 4.8c1.72-.25 3.4-.73 5.02-1.34l-.8-5.08c2.18-.86 4.14-2 6-3.47l3.86 3.3c1.33-1.08 2.6-2.3 3.68-3.66l-3.2-3.87c1.4-1.8 2.58-3.86 3.46-6l5.06.84zm-32.1 4.24c-8-2.15-12.75-10.36-10.6-18.37C43 69.35 51.22 64.6 59.24 66.77s12.75 10.35 10.6 18.37c-2.15 8-10.36 12.75-18.38 10.6z"><animateTransform attributeName="transform" type="rotate" from="0 50 50" to="90 50 50" dur="1s" repeatCount="indefinite"/></path></svg>