<?xml version="1.0" encoding="utf-8"?>
<!-- Generator: Adobe Illustrator 16.0.0, SVG Export Plug-In . SVG Version: 6.00 Build 0)  -->
<!DOCTYPE svg PUBLIC "-//W3C//DTD SVG 1.1//EN" "http://www.w3.org/Graphics/SVG/1.1/DTD/svg11.dtd">
<svg version="1.1" id="Layer_1" xmlns="http://www.w3.org/2000/svg" xmlns:xlink="http://www.w3.org/1999/xlink" x="0px" y="0px"
	 width="877px" height="168px" viewBox="0 0 877 168" enable-background="new 0 0 877 168" xml:space="preserve">
<g>
	<path fill="#F9A01B" d="M14.051,42.605l-0.156,0.864c-0.157,0.891-0.892,1.781-2.2,2.671c-1.31,0.891-2.619,1.334-3.927,1.334
		c-3.299,0-4.948-1.57-4.948-4.712c0-1.099,0.851-2.448,2.553-4.044c1.7-1.597,3.979-2.709,6.833-3.339
		c2.854-0.629,4.896-1.243,6.127-1.847c1.23-0.601,3.128-1.06,5.695-1.374c0.418,0.42,0.836,0.627,1.256,0.627
		c0.681,0,1.151-0.235,1.414-0.706c0.262-0.471,0.864-0.603,1.807-0.394h0.393l4.163-1.1l1.257,0.472
		c0.209,0,0.458-0.104,0.746-0.314c0.287-0.208,0.641-0.366,1.061-0.472h1.257l1.492-0.313c1.151-0.314,1.832-0.55,2.042-0.707
		l1.335,0.157c0.995,0,2.632-0.262,4.91-0.786c2.277-0.522,4.006-0.811,5.184-0.864c1.178-0.051,2.042-0.129,2.592-0.235
		c0.55-0.104,0.877-0.158,0.982-0.158c0.313,0,0.707,0.158,1.178,0.471c0.471,0.315,0.811,0.472,1.021,0.472
		c0.209,0,1.676-0.314,4.397-0.943h0.473l3.534,0.787c0.943-0.523,1.571-0.787,1.885-0.787c1.1,0,2.016,0.368,2.75,1.1l1.491-0.629
		l0.786,0.158c0.314,0,0.786-0.052,1.414-0.158h0.628c0.366,0,0.759,0.053,1.179,0.158c0.104,0.106,0.209,0.158,0.313,0.158
		c0.523,0,0.943-0.052,1.257-0.158h1.021l3.378,0.785l1.414-0.157c0.104,0,0.418,0.157,0.941,0.471l0.864-0.156
		c0.523,0.366,1.466,0.863,2.828,1.492c0.262-0.105,0.654-0.209,1.178-0.314h0.157c0.104,0,0.629,0.314,1.57,0.942l2.279,1.1
		l0.626-0.313c1.461,0.733,2.216,1.152,2.269,1.256l0.626,1.334c0.624,0.314,1.329,0.733,2.112,1.257
		c0.156,0.524,0.469,1.127,0.938,1.807v0.628c0,0.106,0.403,0.485,1.213,1.14c0.807,0.655,1.213,1.139,1.213,1.453
		c0,0.106-0.053,0.472-0.156,1.099v0.158c0,0.106,0.182,0.445,0.547,1.021c0.365,0.577,0.548,1.256,0.548,2.042l-0.156,1.101
		l0.156,1.021l-0.787,5.262c-0.472,0.524-0.788,1.035-0.944,1.533c-0.157,0.497-0.552,0.876-1.18,1.138
		c-0.63,0.264-1.142,0.799-1.535,1.61c-0.393,0.813-0.958,1.349-1.691,1.61c-0.733,0.264-1.429,0.721-2.085,1.375
		c-0.654,0.655-1.402,0.981-2.242,0.981l-8.418,2.514l-0.943-0.314c-0.945,1.521-2.334,2.278-4.17,2.278
		c-0.473,0-1.522,0.184-3.147,0.551l-1.573,0.392l-1.259-0.157l-2.911,0.55c-0.892,0.156-1.548,0.353-1.967,0.588
		c-0.42,0.236-0.944,0.354-1.574,0.354l-2.123,1.099c-0.105,0.105-0.264,0.157-0.473,0.157c-0.419,0-0.682-0.052-0.786-0.157
		l-1.103-0.314c-0.419,0.106-0.799,0.288-1.14,0.549c-0.342,0.262-0.669,0.394-0.983,0.394l-0.945-0.787l-1.495,1.258
		c-0.63,0.104-1.469,0.34-2.517,0.705c-0.683-0.365-1.128-0.549-1.338-0.549l-2.753,1.179l-1.574-0.472l-0.157,0.472
		c-0.734,0-1.481,0.262-2.242,0.785c-0.762,0.524-1.403,0.785-1.927,0.785c-0.368,0-0.761-0.208-1.181-0.628
		c-0.21,0-0.42-0.104-0.63-0.313c-0.525,0.366-0.918,0.746-1.181,1.138c-0.263,0.394-0.839,0.773-1.731,1.14l-1.886-0.55
		c0,0.157-0.499,0.432-1.495,0.825c-0.997,0.393-1.522,0.721-1.574,0.981l-0.786,1.1c-0.369,0.892-0.657,1.625-0.867,2.199
		c-0.209,0.577-0.473,1.035-0.786,1.375c-0.313,0.341-0.604,0.93-0.865,1.767c-0.263,0.837-0.734,1.756-1.415,2.748l-0.158,0.944
		c-0.314,0.419-0.787,0.892-1.417,1.414l-1.809,3.378c-0.524,0.785-0.785,1.334-0.785,1.648c0,0.786,0.707,1.545,2.121,2.279
		l8.332,7.068l1.337,0.785h0.157l-0.314,1.414c0.419,0.264,0.682,0.393,0.787,0.393c0.314,0,0.471-0.236,0.471-0.707h0.472
		c0.104,0,0.366,0.234,0.787,0.707l0.863,0.471c0.367,0.367,1.048,0.969,2.045,1.807c0.995,0.838,1.493,1.414,1.493,1.729
		l-0.158,0.629h0.473c0.208-0.211,0.366-0.314,0.472-0.314c0.208,0,0.786,0.314,1.729,0.943l1.021,0.471
		c2.097,1.52,3.366,2.539,3.813,3.063c0.445,0.525,1.101,1.113,1.965,1.768c0.863,0.656,1.56,1.4,2.084,2.238l9.04,6.756
		c7.546,5.654,11.791,9.426,12.734,11.311c0.209,0.314,0.707,0.627,1.494,0.943c0.785,0.313,1.912,1.189,3.38,2.631
		c1.467,1.439,2.358,2.553,2.673,3.338v2.748c0,0.209-0.263,0.471-0.785,0.785l-1.021,0.943c-1.361,1.414-2.539,2.121-3.533,2.121
		c-2.462,0-4.269-0.549-5.42-1.648l-0.393-0.156h-0.784c-0.838,0-1.31-0.736-1.414-2.199l-0.314-1.023
		c-2.619-0.838-4.607-2.172-5.968-4.006L62.4,134.82c-0.105-0.105-0.97-1.113-2.592-3.023c-1.622-1.912-3.05-3.287-4.279-4.125
		c-1.231-0.836-2.2-1.701-2.906-2.592c-0.707-0.889-1.649-1.729-2.828-2.514s-2.421-2.107-3.729-3.967
		c-1.31-1.857-2.043-2.84-2.199-2.945c-2.356-1.256-3.481-2.643-3.376-4.164c-0.314-0.207-1.075-0.418-2.278-0.627
		c-0.628-0.68-1.021-1.047-1.179-1.1s-0.288-0.131-0.393-0.236l0.157-1.256c-1.57-0.473-2.669-1.061-3.298-1.768
		s-1.467-1.664-2.514-2.867c-1.048-1.203-1.951-2.133-2.709-2.787c-0.759-0.654-1.165-1.166-1.217-1.533
		c-0.053-0.367-0.551-0.811-1.492-1.334c-0.367,0.629-0.76,1.127-1.179,1.49c-0.419,0.367-0.733,0.787-0.942,1.258l-0.313,0.471
		c-0.735,0.736-1.101,1.545-1.101,2.436c-0.785,0.629-1.283,1.756-1.492,3.377l-3.533,8.014l-0.629,2.904l-0.468,4.949
		c-0.157,1.414-0.757,2.119-1.798,2.119l-1.562,0.16c-0.418-0.211-1.394-0.406-2.93-0.592c-1.536-0.182-2.801-1.713-3.79-4.594
		c-0.104-0.314-0.405-0.836-0.9-1.57c-0.496-0.734-0.744-1.389-0.744-1.965c0-0.418,0.157-1.1,0.471-2.041l0.314-1.807
		c0-0.316,0.654-1.809,1.963-4.479l4.159-7.932l2.04-3.064c0.261-0.418,0.548-1.217,0.862-2.396
		c0.314-1.178,0.798-2.159,1.452-2.944c0.654-0.787,0.982-1.361,0.982-1.729c0-0.63-0.485-1.258-1.452-1.887
		c-0.969-0.627-1.505-1.229-1.609-1.806l-0.314-0.785c-2.773-1.623-4.159-3.457-4.159-5.5c0-1.098,1.386-2.473,4.159-4.124
		c2.772-1.648,4.644-2.579,5.611-2.788s1.922-0.576,2.864-1.1l1.334-0.314l1.099-0.943c0.629-0.208,1.4-0.405,2.315-0.589
		c0.916-0.183,1.7-1.256,2.354-3.22c0.653-1.963,1.242-3.103,1.766-3.417c1.046-2.146,1.752-3.77,2.119-4.87
		c0.104-0.208,0.404-0.693,0.9-1.454c0.496-0.759,1.004-2.015,1.527-3.77c0.522-1.754,0.889-2.632,1.098-2.632
		c0.208,0,0.625-0.104,1.252-0.314l-0.782-2.121c0-0.208,0.208-0.523,0.626-0.943c-0.732-0.889-1.096-1.963-1.096-3.22
		c0-2.042,1.435-3.062,4.307-3.062c0.521,0,1.566,0.458,3.135,1.373c1.567,0.918,2.403,1.584,2.509,2.003
		c0.104,0.419,0.444,1.087,1.021,2.004s0.864,1.689,0.864,2.317c0,2.041-0.341,3.377-1.021,4.005
		c-0.681,0.629-1.388,2.016-2.12,4.163l-2.121,5.97l-0.314,1.492l-0.393,0.628l1.965-0.471c0.418-1.151,2.201-1.807,5.351-1.964
		l4.958-1.57h1.496l4.801-1.335c0.21,0,0.972-0.105,2.283-0.315h0.473l0.945-0.156c0.208,0.104,0.418,0.313,0.629,0.627h0.314
		c0.576,0,0.893-0.34,0.944-1.021c0.053-0.679,0.813-1.021,2.283-1.021c0.209,0,0.405,0.131,0.589,0.392
		c0.185,0.264,0.381,0.394,0.592,0.394c0.104-0.576,0.511-0.982,1.22-1.218c0.709-0.236,1.22-0.353,1.535-0.353l1.259,0.156
		c-0.104-0.103-0.157-0.26-0.157-0.471c0-0.471,1.6-0.968,4.802-1.492c0.892-0.314,1.6-0.707,2.125-1.177
		c0.525-0.472,2.179-1.152,4.96-2.043l4.723-1.414c1.941-0.628,3.278-2.513,4.014-5.656c-0.104-0.104-0.576-0.811-1.413-2.12
		c0-0.104-0.394-0.158-1.179-0.158c-0.21-0.208-0.576-0.458-1.1-0.747c-0.524-0.287-1.127-0.771-1.807-1.453l-0.942,0.314
		c-0.734-0.419-1.585-0.746-2.553-0.982c-0.97-0.235-2.003-0.771-3.104-1.61c-0.419,0.209-0.681,0.314-0.784,0.314
		c-0.105,0-0.682-0.261-1.729-0.785l-2.12-0.943h-1.258l-0.55-0.158c-0.314-0.365-0.576-0.549-0.785-0.549l-0.785,0.158
		c-0.21,0.105-0.472,0.156-0.785,0.156h-1.336c-0.105,0-0.524-0.261-1.257-0.785h-2.592l-1.414,0.315
		c-0.21,0-0.55-0.209-1.021-0.629l-1.414,0.314l-1.414-0.628l-2.121,0.314c-0.42-0.314-0.733-0.471-0.942-0.471l-6.284,0.629
		c-0.21,0-0.393-0.105-0.55-0.315c-0.156-0.208-0.406-0.365-0.745-0.471c-0.341-0.104-0.721-0.314-1.14-0.628
		c-1.1,0.628-2.174,0.943-3.221,0.943l-2.435-0.315l-0.471,0.158h-0.314c-0.105,0-0.577-0.105-1.414-0.314
		c0,0.209-0.053,0.367-0.157,0.471L41.7,34.75l-4.32,0.787h-0.157l-0.785-0.158c-0.21,0-0.511,0.078-0.904,0.236
		c-0.393,0.157-0.694,0.235-0.902,0.235l-1.729-0.157l-1.335,0.315l-1.885-0.158l-1.65,1.179h-0.313
		c-0.21,0-0.445-0.091-0.707-0.275c-0.263-0.183-0.445-0.276-0.55-0.276l-1.179,0.235l-0.943-0.235
		c-0.209,0-0.627,0.499-1.256,1.494c0,0.104-0.105,0.156-0.314,0.156h-0.157l-1.178-0.314c-0.209,0-0.629,0.367-1.257,1.099
		c-0.995,0.368-1.964,0.76-2.906,1.178c-0.733,1.049-1.361,1.677-1.885,1.886L14.051,42.605z M19.264,79.759H17.3
		c-0.314,0-0.877,0.301-1.688,0.903c-0.813,0.603-1.218,1.009-1.218,1.217c0,0.21,0.614,0.799,1.847,1.769
		c1.229,0.968,2.002,1.453,2.316,1.453c0.942,0,2.068-2.147,3.377-6.442l-0.785,0.315l-0.942-0.157
		C19.578,79.341,19.264,79.654,19.264,79.759z"/>
	<path fill="#F9A01B" d="M144.828,105.521l1.253-1.1c0.783,0,1.252-0.352,1.409-1.061c0.156-0.707,0.718-1.268,1.684-1.688
		s1.866-1.271,2.703-2.553c0.834-1.283,1.696-1.924,2.583-1.924c0.313,0,0.679,0.26,1.096,0.785
		c0.417,0.523,0.627,0.941,0.627,1.256c0,1.727-0.523,3.508-1.571,5.34l-0.313,2.201l-0.55,1.02
		c-0.785,0.42-1.295,0.865-1.531,1.338c-0.236,0.469-0.851,1.047-1.845,1.727l-0.786,1.1c-1.152,0.367-1.924,0.969-2.316,1.807
		s-0.941,1.309-1.648,1.414s-1.479,0.629-2.315,1.57c-0.524,0.262-1.152,0.498-1.885,0.707l-0.158,0.787
		c-0.523,0.521-1.349,0.941-2.475,1.256c-1.125,0.314-1.962,0.615-2.512,0.902c-0.55,0.289-0.929,0.432-1.138,0.432
		c-0.995,0-1.912-0.195-2.749-0.588s-1.701-0.641-2.591-0.746c-0.314-0.314-0.499-0.654-0.55-1.021
		c-0.053-0.367-0.313-0.85-0.786-1.453c-0.471-0.602-0.705-1.428-0.705-2.475l0.314-1.492c0-0.209-0.132-0.471-0.393-0.787
		c-0.264-0.313-0.394-0.574-0.394-0.785c0-0.207,0.052-0.365,0.158-0.471c0.104-0.104,0.156-0.26,0.156-0.471
		c0-0.262-0.053-0.549-0.156-0.863c-0.106-0.314-0.158-0.576-0.158-0.785l0.472-3.85c0-0.314-0.105-0.473-0.313-0.473
		c-0.21,0-0.59,0.262-1.14,0.785c-0.55,0.527-1.192,0.785-1.924,0.785c-0.42,0.316-0.76,0.971-1.023,1.965
		c-0.42,0.523-0.942,0.996-1.57,1.414L121.474,110c-0.104,0.365-0.498,0.666-1.178,0.902c-0.682,0.236-1.153,0.537-1.414,0.902
		l-0.786,0.787l-1.492-0.158c-0.104,0.105-0.394,0.563-0.865,1.377c-0.472,0.811-1.074,1.479-1.806,2.002l-5.972,4.869
		c-0.628,0.42-1.545,0.941-2.748,1.57l-0.472,0.473c-4.19,2.775-7.149,4.162-8.878,4.162c-1.415,0-3.063-0.393-4.949-1.178
		c-1.885-0.785-2.906-1.729-3.063-2.828l-0.785-3.221c-0.471-0.732-0.707-1.754-0.707-3.063c0-0.629,0.052-1.047,0.157-1.258v-0.471
		l-0.157-2.594c0-0.627,0.497-0.941,1.492-0.941l-0.157-2.121c0-0.209,0.458-1.031,1.375-2.473c0.915-1.439,1.532-2.266,1.846-2.475
		l0.785-1.021c-0.053-0.629,0.314-1.297,1.102-2.004c0.785-0.707,1.415-1.426,1.888-2.158c0.471-0.734,1.362-1.543,2.673-2.436
		l2.359-2.357c1.835-1.832,3.827-3.299,5.978-4.398c0.313-0.104,0.956-0.627,1.926-1.57s2.071-1.637,3.304-2.082
		c1.231-0.443,2.438-1.006,3.616-1.689c1.18-0.679,2.111-1.021,2.794-1.021h0.628c0.209,0,1.599-0.654,4.168-1.963h0.474
		c0.208,0,0.706,0.21,1.493,0.629h0.157l1.259-0.629c0.209-0.105,0.471-0.156,0.785-0.156c3.249,0,5.033,2.25,5.349,6.753
		c0.104,0.943,0.367,1.414,0.787,1.414c0.522,0,1.271-0.955,2.239-2.865c0.97-1.912,3.027-2.868,6.17-2.868
		c2.251,0,3.378,1.441,3.378,4.319c0,3.405-1.52,6.625-4.556,9.662c-0.211,0.418-0.368,0.891-0.472,1.414l-1.1,3.221v0.156
		c0,0.314-0.225,0.746-0.668,1.297c-0.445,0.551-0.668,1.033-0.668,1.451l0.157,1.965l-0.313,2.199c0,0.996,0.183,1.65,0.548,1.963
		c1.671-0.418,2.885-1.111,3.642-2.08c0.758-0.969,1.293-1.506,1.605-1.611l0.783-0.313
		C143.653,106.701,144.202,106.047,144.828,105.521z M118.745,105.521c0.211-1.152,0.852-2.029,1.926-2.631
		c1.073-0.602,1.715-1.217,1.925-1.846c0.993-0.734,2.421-2.043,4.281-3.928c1.858-1.885,2.789-3.035,2.789-3.457
		c0-0.156-0.105-0.234-0.314-0.234h-0.157l-0.628,0.392l-1.414-0.157l-1.493,0.157l-1.1-0.549l-1.021,0.157l-1.571-0.314
		c-0.838,0-1.559,0.172-2.16,0.51c-0.603,0.342-1.755,0.723-3.457,1.141c-1.702,0.419-3.233,1.139-4.596,2.16
		c-1.363,1.02-2.356,1.531-2.985,1.531c-0.367,0.785-1.598,1.912-3.692,3.377c-1.257,0.42-2.069,1.334-2.435,2.748
		c-1.363,1.1-2.043,1.73-2.043,1.887l-0.55,1.334c-0.42,0.367-0.942,0.668-1.57,0.904s-0.996,0.785-1.1,1.65
		c-0.106,0.863-0.46,1.648-1.061,2.355c-0.603,0.707-0.903,1.271-0.903,1.689c0,2.564,0.496,3.85,1.492,3.85
		c0.418,0,1.296-0.275,2.631-0.826c1.336-0.551,2.107-0.93,2.317-1.139c0.208-0.209,0.629-0.418,1.257-0.629l1.493-0.785
		c0.209-0.209,0.445-0.34,0.707-0.395c0.262-0.051,0.522-0.221,0.786-0.508c0.262-0.289,0.732-0.604,1.413-0.943
		s1.204-0.799,1.571-1.375c0.89-0.523,2.33-1.336,4.321-2.436l1.649-1.256c1.151-0.523,1.858-0.969,2.121-1.336
		C117.436,106.256,117.96,105.891,118.745,105.521z"/>
	<path fill="#F9A01B" d="M156.272,97.197l0.631-0.865c1.368-0.314,2.235-0.837,2.604-1.57c0.157-0.366,1.474-1.729,3.944-4.086
		c2.472-2.355,3.84-3.611,4.104-3.77c1.669-3.036,2.687-5.314,3.052-6.834c0.626-0.313,0.939-0.679,0.939-1.098l0.627-1.257
		l0.704-0.157l0.313-0.314v-0.707c0-0.943,1.018-3.142,3.053-6.598c2.04-4.242,3.139-6.585,3.296-7.031
		c0.156-0.443,0.471-1.099,0.942-1.964c0.471-0.863,1.19-2.525,2.16-4.987c0.968-2.462,2.474-5.028,4.516-7.697
		c0.209-0.105,0.523-0.694,0.943-1.769c0.418-1.072,1.072-2.132,1.964-3.181l0.941-1.649c0.314-0.523,0.864-1.44,1.65-2.75
		c0.785-1.308,1.504-2.342,2.159-3.102c0.654-0.759,1.151-1.558,1.493-2.396c0.34-0.836,0.746-1.439,1.218-1.806
		c0.471-0.367,0.955-1.034,1.452-2.004c0.497-0.968,1.27-1.452,2.317-1.452c2.042,0,3.521,0.838,4.438,2.513
		c0.916,1.676,1.375,3.142,1.375,4.398c0,0.156-0.314,1.283-0.942,3.378l-1.179,7.068c-1.048,0.524-1.57,1.127-1.57,1.807
		c0,2.775-1.074,5.655-3.221,8.64c-0.21,0.209-0.38,0.891-0.511,2.042c-0.131,1.153-0.59,2.094-1.374,2.828
		c-0.785,0.733-1.492,1.963-2.121,3.691l-7.305,10.446l-0.629,0.629c-0.314,0.209-0.681,0.655-1.1,1.335l-1.256-0.392
		c-1.414,0-2.121,0.444-2.121,1.334c0,0.314,0.104,0.733,0.314,1.257v0.157c0,0.054-1.938,2.802-5.813,8.248
		c-0.21,0.314-0.577,1.335-1.1,3.063l-1.1,2.357c-1.1,1.52-1.873,2.998-2.317,4.438c-0.445,1.441-1.035,2.605-1.768,3.496
		c-1.049,2.355-1.57,3.586-1.57,3.689c0,0.314,0.156,0.473,0.471,0.473s1.06-0.785,2.239-2.357c1.178-1.57,2.146-2.617,2.905-3.141
		c0.759-0.523,1.401-1.258,1.926-2.199l0.787-0.551c0.209-0.104,0.654-0.418,1.337-0.943l0.787,0.158
		c0.42-0.314,0.681-0.68,0.786-1.1c0.104-0.418,0.262-0.733,0.474-0.941c1.363-0.159,2.215-0.654,2.556-1.493
		c0.342-0.837,0.748-1.257,1.221-1.257c0.419,0,0.97-0.484,1.65-1.453c0.684-0.969,1.641-1.754,2.873-2.356
		c1.232-0.602,2.15-1.14,2.754-1.61c0.603-0.471,1.822-1.033,3.658-1.688c1.836-0.654,3.068-0.982,3.698-0.982h0.471l0.63,0.156
		l1.182-0.156c1.836,0,3.669,0.511,5.503,1.532c1.833,1.021,2.618,2.604,2.356,4.751l-0.628,4.87l-0.863,3.85
		c-0.105,0.629-0.524,2.016-1.257,4.164c-0.734,2.146-1.101,3.375-1.101,3.689l-0.314,1.494l0.313,2.041l-0.155,1.65
		c0,0.523,0.261,0.785,0.781,0.785c0.209,0,0.784-0.473,1.724-1.414c0.573,0.105,1.121-0.209,1.643-0.943
		c0.522-0.732,1.227-1.492,2.115-2.277c0-0.209,0.339-0.404,1.018-0.588c0.677-0.184,1.618-0.799,2.817-1.848
		c0.209-0.471,1.226-1.479,3.054-3.023c1.826-1.543,3.575-2.736,5.246-3.574l0.471-0.627c0.885-0.891,1.693-1.336,2.425-1.336
		c0.73,0,1.097,0.393,1.097,1.178c0,0.523-0.131,1.074-0.393,1.65c-0.262,0.578-0.444,1.322-0.549,2.238
		c-0.105,0.916-0.629,2.238-1.569,3.965l-0.313,0.785c-0.366,0.893-0.811,1.416-1.333,1.574c-0.523,0.156-1.085,0.588-1.686,1.293
		c-0.602,0.709-1.845,1.377-3.727,2.004c-0.837,1.572-1.491,2.357-1.962,2.357l-1.41-0.629c-1.099,0.891-1.647,1.807-1.647,2.748
		c-1.36,1.154-2.171,1.914-2.432,2.279l-1.569-0.156c-0.419,0-0.628,0.576-0.628,1.727c0,0.105-0.536,0.459-1.606,1.061
		c-1.073,0.604-1.896,1.139-2.472,1.609c-0.575,0.473-1.804,0.709-3.687,0.709c-0.21,0-0.523-0.184-0.942-0.551
		c-0.418-0.365-1.032-0.68-1.843-0.943c-0.81-0.262-1.372-0.875-1.686-1.846c-0.314-0.967-0.654-1.729-1.021-2.277
		c-0.366-0.551-0.549-0.982-0.549-1.295l0.157-1.572l-0.393-1.648l0.706-1.102c-0.313-0.73-0.471-1.229-0.471-1.49l0.785-4.793
		c0.575-3.457,1.047-5.705,1.413-6.754c0.104-0.105,0.157-0.42,0.157-0.943l-0.157-1.963l0.157-1.1c0-0.787-0.263-1.205-0.785-1.256
		c-0.523-0.053-0.838-0.186-0.942-0.395c-0.683-0.313-1.075-0.471-1.18-0.471c-0.42,0-0.787,0.328-1.102,0.982
		s-0.734,1.243-1.258,1.766l-1.966-0.313v0.156c0,0.42-0.708,1.23-2.123,2.436c-1.311,0.314-2.438,0.994-3.381,2.043
		c-0.42,0-1.141,0.404-2.162,1.217c-1.023,0.811-1.69,1.27-2.005,1.373l-0.63,1.258l-1.257,0.393
		c-0.368,1.047-1.233,1.727-2.595,2.041l-0.788,1.494c-1.101,0.104-1.859,0.666-2.279,1.688s-0.734,1.533-0.942,1.533
		c-0.105,0-0.276-0.064-0.513-0.197c-0.235-0.129-0.458-0.195-0.668-0.195c-1.154,0-1.782,0.863-1.887,2.592
		c0,0.209-1.075,1.439-3.225,3.691s-3.302,3.404-3.459,3.455c-0.157,0.055-0.459,0.59-0.904,1.609
		c-0.446,1.021-1.063,1.781-1.848,2.279c-0.787,0.498-1.377,0.902-1.77,1.217c-0.394,0.316-0.694,0.471-0.904,0.471
		c-1.102,0-1.992-0.785-2.673-2.355c-0.683-1.572-1.023-2.381-1.023-2.434l0.473-1.65l-0.156-1.414c0-0.051,0.326-1.111,0.981-3.18
		c0.656-2.07,1.401-3.693,2.241-4.871c0.838-1.18,1.493-3.102,1.966-5.773c-2.358,1.57-3.775,2.355-4.246,2.355
		c-1.049,0-1.572-0.68-1.572-2.043C153.827,101.438,154.642,99.186,156.272,97.197z"/>
	<path fill="#F9A01B" d="M231.06,93.977l1.105,0.471c0.105-0.891,0.604-1.65,1.499-2.279h0.631c0.525,0,1.209-0.705,2.051-2.119
		l1.342-0.785c0.21,0.104,0.525,0.155,0.947,0.155c0.314,0,0.616-0.207,0.906-0.628c0.289-0.418,1.012-1.229,2.172-2.435h0.314
		c0.315,0,0.696-0.235,1.144-0.706c0.447-0.473,1.039-0.708,1.774-0.708l2.684-0.707c0.838-0.208,1.31-0.314,1.415-0.314
		c0.471-0.157,1.623,0.799,3.456,2.866c1.832,2.07,2.749,4.072,2.749,6.01c0,1.1-0.577,1.755-1.729,1.965l-0.393,0.313v1.572
		l-1.335,2.906c-0.367,0.785-0.813,1.283-1.335,1.492c-0.471,0.838-0.813,1.414-1.021,1.729l-1.1,0.156l-0.472,0.471v1.963
		c-0.471,0.629-1.151,2.004-2.042,4.125s-1.335,3.471-1.335,4.045c0,0.996,0.208,1.494,0.629,1.494c0.314,0,0.628-0.133,0.941-0.395
		c0.314-0.26,0.746-0.561,1.297-0.902c0.55-0.34,0.954-0.693,1.216-1.061c0.261-0.365,0.812-0.693,1.648-0.982
		c0.837-0.287,1.622-0.824,2.354-1.609c0.733-0.785,1.256-1.309,1.57-1.57c0.313-0.262,0.654-0.615,1.021-1.063
		c0.366-0.443,0.602-0.666,0.706-0.666c0.314,0,0.812-0.104,1.492-0.314c0.104-0.574,0.208-0.996,0.313-1.258l1.884-0.941
		l4.553-4.084l0.628-0.785c0.837-0.211,1.36-0.367,1.569-0.473c0.419-1.414,1.125-2.436,2.12-3.064c0-0.207,0.262-0.364,0.785-0.469
		c0.417-0.839,0.953-1.506,1.607-2.004c0.654-0.497,1.19-1.113,1.609-1.846l1.806-1.492c0.523-0.21,0.89-0.523,1.099-0.943
		c2.721-2.408,4.409-3.782,5.063-4.124c0.653-0.34,1.714-0.51,3.18-0.51c1.464,0,2.654,0.563,3.569,1.688
		c0.917,1.127,1.911,1.977,2.985,2.553c1.072,0.576,1.61,1.676,1.61,3.299c0,1.519-1.178,4.426-3.534,8.719
		c-1.52,4.504-2.305,7.266-2.357,8.285c-0.052,1.021-0.287,1.611-0.706,1.768c-0.42,0.158-0.629,0.342-0.629,0.551v0.314
		c0,1.256,0.209,1.885,0.629,1.885c0.313,0,0.746-0.262,1.295-0.785c0.551-0.523,1.661-1.1,3.334-1.729l0.705,0.158
		c1.512-2.305,2.529-3.547,3.052-3.732c0.521-0.182,1.043-0.652,1.565-1.414c0.521-0.758,1.16-1.162,1.918-1.217
		c0.756-0.051,1.239-0.182,1.448-0.393c0.051-1.258,1.081-2.672,3.09-4.24c2.009-1.57,3.17-2.357,3.484-2.357
		c0.521,0,0.939,0.393,1.252,1.178c0.313,0.785,0.64,1.324,0.978,1.611c0.339,0.289,0.51,0.537,0.51,0.746v1.414
		c0,0.682-0.34,1.127-1.019,1.334c-0.522,1.152-0.994,1.834-1.41,2.041l-1.411-0.156c-0.263,0.316-0.484,0.604-0.668,0.865
		s-0.301,0.367-0.353,0.314c-0.417,0.104-1.162,0.797-2.233,2.08c-1.071,1.285-2.024,2.346-2.86,3.182l-0.313,0.471
		c-0.418,0.314-0.811,0.525-1.176,0.629l-1.412,1.178c-0.521-0.313-0.835-0.471-0.938-0.471c-0.106,0-0.328,0.211-0.667,0.629
		c-0.34,0.42-1.021,0.955-2.039,1.609c-1.018,0.656-1.789,1.402-2.311,2.24l-1.255,1.256l-1.646,0.234
		c-0.157,0-0.419,0.236-0.783,0.709l-1.411,1.807c-0.68,0.891-1.751,1.334-3.214,1.334c-0.314,0-0.72-0.275-1.216-0.824
		c-0.495-0.549-0.965-1.021-1.409-1.414s-1.439-1.57-2.983-3.533c-1.544-1.965-2.313-2.998-2.313-3.104l0.471-2.75l-0.157-1.885
		c0-0.365,0.247-0.93,0.746-1.689c0.497-0.758,0.746-1.164,0.746-1.217l-0.156-3.064c0.104-0.104,0.208-0.26,0.314-0.471
		l1.098-1.805c-0.104-0.523-0.156-1.102-0.156-1.729l0.314-2.592c-0.942,0.418-1.769,1.27-2.476,2.551
		c-0.707,1.285-1.638,1.926-2.788,1.926c-0.996,1.781-1.757,2.645-2.279,2.592c-0.21,0.209-0.367,0.418-0.471,0.627l-1.101,0.631
		l-1.335-0.16l-0.472,1.965c-1.153,0.629-1.899,1.193-2.239,1.689c-0.342,0.498-0.878,1.01-1.61,1.531l-1.336,1.258h-1.257
		c-0.21,1.412-1.022,2.592-2.437,3.533l-0.628,0.785l-1.414-0.156c-0.523,1.676-1.18,2.697-1.966,3.064
		c-0.891,0-2.108,0.813-3.653,2.434c-1.545,1.625-2.631,2.436-3.259,2.436c-4.559,0-8.251-2.854-11.078-8.563
		c-0.105-0.209-0.354-0.6-0.746-1.178c-0.394-0.574-0.589-1.465-0.589-2.672c0-2.041,0.274-3.428,0.824-4.162
		c0.55-0.732,1.258-2.107,2.121-4.123c0.864-2.014,1.504-2.895,1.925-2.631c0.104-0.209,0.157-0.523,0.157-0.943
		c0.836-0.994,1.256-1.754,1.256-2.277c0-0.209-0.105-0.314-0.314-0.314c-0.105,0-0.42,0.158-0.941,0.471l-1.105,0.473
		c-0.474,0.105-0.816,0.314-1.026,0.629c-0.211,0.313-0.578,0.613-1.105,0.902c-0.526,0.287-0.947,0.537-1.261,0.746h-0.237
		c-0.316-0.314-0.526-0.471-0.633-0.471c-0.316,0.838-0.579,1.363-0.788,1.57l-0.947,0.158c-1.16,1.205-1.896,1.805-2.211,1.805
		c-0.211,0-0.686-0.182-1.422-0.549c-0.736-0.365-1.104-0.732-1.104-1.1l0.553-3.063v-1.414c0-0.105,0.21-0.314,0.631-0.629
		c0.105,0,0.526-0.563,1.264-1.689C229.193,94.539,230.061,93.977,231.06,93.977z"/>
	<path fill="#F9A01B" d="M311.496,107.172v-0.551c0-0.73,0.052-1.309,0.157-1.729c-0.314-0.836-0.472-1.596-0.472-2.277
		c0-0.104,0.262-0.836,0.785-2.199l0.707-2.434c0.366-0.943,0.576-1.439,0.628-1.494c-0.313-0.836-0.47-1.308-0.47-1.414
		c0-1.203,0.339-2.199,1.019-2.984c0.681-0.785,1.257-1.885,1.729-3.299l1.57-4.791l2.589-6.283
		c0.052-0.157,0.301-0.576,0.745-1.258c0.444-0.679,0.811-1.268,1.1-1.767c0.287-0.497,0.693-1.218,1.218-2.161l0.785-0.156
		c0.209-0.209,0.314-0.419,0.314-0.629c0-0.105-0.105-0.523-0.314-1.257l2.75-4.555l1.648-3.377c0.523-0.89,1.1-1.466,1.729-1.728
		c1.047-1.937,1.963-3.116,2.749-3.536c0.313-0.993,0.89-2.066,1.728-3.22l1.493-0.156c0.262-0.733,0.523-1.283,0.785-1.65
		l0.157-1.571c0,0.315,0.13,0.224,0.393-0.275c0.262-0.497,0.654-1.426,1.179-2.788l2.121-2.435l0.628-1.099
		c0.262-0.367,0.68-1.074,1.256-2.121c0.786-0.314,1.44-0.89,1.964-1.728l1.65-1.336c-0.105-0.575,0.522-1.858,1.885-3.848
		c0.89-0.365,1.7-0.837,2.436-1.414l1.099-0.314c0-1.832,0.654-3.089,1.964-3.771l0.942-0.627c0.838-0.418,1.31-0.629,1.414-0.629
		l0.55-0.156c0.629-0.209,1.361-0.315,2.199-0.315c1.938,0,3.691,0.721,5.263,2.161c1.571,1.44,2.356,3.077,2.356,4.909
		c0,0.733-0.393,1.492-1.178,2.277l-0.314,0.629c-0.734,2.88-1.257,4.32-1.571,4.32c-0.21,0-0.498,0.157-0.864,0.471
		c-0.105,1.729-0.21,2.698-0.313,2.906c-0.943,0.157-1.414,1.336-1.414,3.535c-0.105,0.314-0.485,0.851-1.139,1.61
		c-0.655,0.76-1.166,1.807-1.532,3.142c-0.367,1.336-0.76,2.002-1.178,2.002h-0.864l0.235,1.179c0,0.733-0.354,1.453-1.061,2.16
		c-0.706,0.707-1.139,1.453-1.296,2.238s-0.785,1.728-1.885,2.827l-0.785,1.258c-0.314,0.523-0.734,1.074-1.257,1.649
		c-0.524,0.577-0.97,1.467-1.336,2.67l-2.042,3.771c-1.414,2.566-2.487,3.796-3.221,3.692c-0.471,2.042-0.785,3.22-0.942,3.534
		c-0.157,0.313-0.523,0.603-1.1,0.865c-0.577,0.262-1.021,0.72-1.336,1.374c-0.313,0.655-0.655,1.139-1.021,1.453l-1.413,2.905
		c-0.839,0.367-1.441,1.047-1.807,2.042c-0.839,0.212-1.363,0.918-1.571,2.122c-0.21,0.209-0.472,0.68-0.785,1.414l-2.749,2.748
		c-1.414,0.996-2.174,2.135-2.278,3.418c-0.105,1.281-0.786,1.924-2.042,1.924c-0.892,0-2.2-0.393-3.928-1.178h-0.157
		c-0.157,0.732-0.523,1.545-1.099,2.436l0.313,2.119c0,0.262-0.42,1.912-1.257,4.949c0.418,0.785,0.628,1.334,0.628,1.648
		l-0.157,1.729l0.394,2.121c0.262,1.729,0.89,2.592,1.885,2.592l1.884,0.314c0.104,0,0.759-0.393,1.962-1.178l2.904-1.57
		c0.104,0,0.157,0.051,0.157,0.156c0.523,0.211,0.941,0.313,1.255,0.313c0.523,0,0.786-0.418,0.786-1.256v-1.021
		c0.314-0.521,0.693-0.836,1.138-0.943c0.444-0.102,0.852-0.338,1.218-0.705c0.365-0.365,0.654-0.551,0.863-0.551h0.784
		c0.785,0,1.178-0.916,1.178-2.748c0.208-0.105,0.471-0.314,0.785-0.629h0.941c0.418,0,0.877-0.512,1.374-1.531
		c0.496-1.021,0.85-1.637,1.06-1.846c0.941-0.105,1.596-0.262,1.962-0.473c1.675-3.035,2.957-4.555,3.848-4.555h0.471
		c0.889-0.838,1.373-1.582,1.452-2.238c0.078-0.654,0.34-1.086,0.783-1.297c0.444-0.208,0.852-0.471,1.218-0.785
		c0.366-0.315,0.602-0.471,0.708-0.471c0.783,0,1.176,0.289,1.176,0.863l-0.235,2.199l0.55,2.357c0,0.209-0.223,0.615-0.667,1.217
		c-0.445,0.604-0.667,1.271-0.667,2.004c0,1.518-0.263,2.33-0.785,2.434c-0.522,0.107-0.955,0.459-1.295,1.061
		c-0.342,0.602-0.903,1.152-1.688,1.648c-0.785,0.5-1.387,1.219-1.805,2.162l-1.335,0.313l-0.784,0.473
		c-0.628,1.623-1.296,2.617-2.003,2.984s-1.584,1.467-2.629,3.299c-0.157,0-0.235,0.053-0.235,0.158l-1.256-0.158
		c-0.472,0.838-0.942,1.336-1.414,1.492s-0.863,0.459-1.177,0.904s-0.877,0.824-1.688,1.139c-0.812,0.314-1.322,0.682-1.53,1.1
		c-0.211,0.42-0.523,0.654-0.943,0.705c-0.418,0.055-0.811,0.25-1.177,0.592c-0.365,0.34-0.68,0.51-0.94,0.51
		c-0.106,0-0.473-0.053-1.101-0.158h-0.313c-0.891,0.629-1.624,0.943-2.198,0.943c-0.681,0-1.178,0.105-1.491,0.313
		c-0.314-0.207-0.799-0.363-1.453-0.471c-0.654-0.104-1.399-0.365-2.237-0.785c-0.891,0.211-1.439,0.314-1.648,0.314
		c-0.89,0-2.016-0.875-3.375-2.631c-1.361-1.754-2.04-3.469-2.04-5.145c0-0.053-0.303-0.459-0.904-1.217
		c-0.603-0.76-0.902-1.584-0.902-2.475v-0.787l0.156-0.941v-1.492l0.157-0.471c0.786-0.105,1.179-0.211,1.179-0.316L311.496,107.172
		z M327.435,86.356l1.649-0.942c0.209-0.836,0.89-1.846,2.043-3.023c1.151-1.179,1.963-1.768,2.435-1.768h0.628
		c0-0.366,0.079-0.732,0.236-1.1c0.156-0.366,0.235-0.865,0.235-1.493c0-0.313,0.707-1.178,2.121-2.592l0.628-1.414
		c0.472-1.36,1.649-2.485,3.535-3.376c0.732-1.519,1.282-2.279,1.648-2.279l0.629-0.156c0.209-0.785,0.629-1.492,1.258-2.121
		l0.313-0.472v-1.256c0-0.105,0.354-0.536,1.06-1.295c0.707-0.759,1.218-1.466,1.532-2.122c0.314-0.654,0.747-1.165,1.296-1.531
		c0.55-0.366,0.93-1.021,1.14-1.964l1.257-0.158c0-0.679,0.051-1.125,0.156-1.334l0.157-0.785c0.262-0.629,1.179-2.279,2.749-4.948
		l1.257-2.907c0-0.315,0.222-0.694,0.667-1.14c0.444-0.443,0.669-1.086,0.669-1.924l0.628-2.591c0-1.205-0.21-1.807-0.628-1.807
		c-0.524,0.367-1.009,0.629-1.454,0.785c-0.445,0.157-0.878,1.1-1.296,2.828c-1.571,0.367-2.475,1.113-2.71,2.239
		c-0.235,1.126-0.877,2.082-1.924,2.867l-0.55,0.942c-0.106,0.576-0.603,1.178-1.492,1.807c-0.891,0.628-1.729,1.702-2.514,3.22
		c-2.619,3.613-4.059,5.55-4.32,5.813l-0.785,0.943l-1.179-0.157c0.209,0.838,0.314,1.309,0.314,1.414
		c0,0.313-0.157,0.617-0.472,0.903c-0.314,0.288-0.55,0.642-0.707,1.061c-0.156,0.42-0.471,0.902-0.942,1.453
		c-0.471,0.549-0.903,1.441-1.296,2.671s-0.746,1.951-1.061,2.159l-1.1-0.156c-0.681,0.42-1.021,0.838-1.021,1.256l0.235,1.099
		c0,0.21-0.145,0.46-0.433,0.747c-0.288,0.289-0.563,0.851-0.823,1.688c-0.263,0.838-0.918,2.109-1.965,3.81
		c-1.048,1.702-1.872,3.509-2.475,5.42c-0.603,1.912-1.191,3.129-1.767,3.652c0.104,0.104,0.261,0.156,0.472,0.156
		C326.151,88.477,326.807,87.77,327.435,86.356z"/>
	<path fill="#F9A01B" d="M441.876,52.267l1.335-1.256c0.835-3.352,2.166-5.289,3.992-5.813l0.471-0.471
		c-0.627-0.628-0.94-1.179-0.94-1.65c0-0.208,0.104-0.575,0.313-1.099l0.313-1.57c0.104-0.576,0.494-1.505,1.174-2.79
		c0.678-1.282,1.147-3.417,1.408-6.401v-0.471c0-1.099-0.549-2.932-1.643-5.498v-0.315c0-0.941,0.325-1.897,0.978-2.866
		c0.653-0.97,1.292-1.454,1.919-1.454c3.966,0,6.326,0.72,7.086,2.16c0.758,1.441,1.452,2.474,2.08,3.102
		c1.413,0.996,2.12,3.037,2.12,6.126c0,1.939-0.38,3.235-1.138,3.889c-0.76,0.655-1.271,1.323-1.533,2.002
		c-0.262,0.682-0.667,1.324-1.216,1.925c-0.551,0.603-0.825,0.957-0.825,1.06l0.313,1.571c0,1.205-0.42,1.964-1.257,2.278v0.471
		h0.786c0.522,0,0.954-0.158,1.297-0.471c0.341-0.314,1.1-0.628,2.278-0.943c1.178-0.314,2.004-0.667,2.475-1.06
		c0.472-0.394,0.905-0.668,1.297-0.824c0.394-0.158,0.852-0.393,1.375-0.707l4.715-2.593c1.624-0.89,3.209-1.65,4.755-2.277
		c1.546-0.629,2.738-1.362,3.577-2.2l2.672-0.785l1.336,0.157c0.209,0,0.551-0.379,1.021-1.139c0.473-0.759,0.891-1.139,1.259-1.139
		l0.942,0.158c0.838-0.419,1.415-0.629,1.729-0.629l1.022-0.158l2.043-1.806l1.65-0.157c1.467-1.309,3.118-1.885,4.951-1.728
		c0.262-0.157,0.68-0.497,1.257-1.021c0.575-0.523,1.231-0.785,1.965-0.785c0.157,0,0.604-0.208,1.337-0.628l1.257-0.786
		c0.419-0.575,0.891-0.915,1.415-1.021l1.964-0.627c0.523-0.315,0.891-0.471,1.1-0.471l1.023,0.313
		c1.57-1.256,2.751-1.885,3.536-1.885c2.985,0,4.479,1.362,4.479,4.085c0,2.461-1.021,4.74-3.064,6.833l-4.795,2.907
		c-0.105,0.051-0.813,0.195-2.123,0.431c-1.31,0.236-3.878,1.323-7.702,3.261l-1.18-0.157c-0.523,0.524-1.048,0.785-1.572,0.785
		l-0.942-0.156c-1.101,0.523-2.006,0.863-2.713,1.021c-0.706,0.157-1.623,0.563-2.75,1.218c-1.127,0.655-2.411,1.166-3.852,1.531
		c-1.442,0.367-2.62,0.824-3.538,1.375c-0.916,0.549-1.636,0.824-2.162,0.824h-0.785c-0.419,0-2.253,0.733-5.501,2.2
		c-0.944,0.367-1.601,0.602-1.967,0.707s-1.31,0.42-2.828,0.943l-3.538,2.042c-0.208,0.053-1.23,0.55-3.064,1.493h-1.492
		c-0.159,0-1.103,0.577-2.831,1.728c-0.105,0-0.289,0.053-0.55,0.158h-0.157l-1.101-0.158c-0.21,0-0.591,0.25-1.141,0.747
		c-0.55,0.498-1.271,0.877-2.161,1.139s-1.414,0.628-1.571,1.099L451,58.472c-0.472,0.838-0.931,1.375-1.378,1.611
		c-0.443,0.236-0.85,1.113-1.217,2.63l-4.477,9.19l-0.942,0.472c0.209,0.891,0.315,1.387,0.315,1.492
		c-0.211,0.314-0.538,0.981-0.983,2.002s-0.825,1.716-1.139,2.082c-0.313,0.368-0.785,1.309-1.414,2.828
		c4.346,2.723,6.703,4.005,7.069,3.849l0.313,0.313v0.472c0,0.523,0.326,0.904,0.983,1.139c0.654,0.234,1.164,0.484,1.532,0.747
		c0.366,0.263,1.205,0.392,2.517,0.392l1.886,1.885l0.942-0.157c0.42,0,1.035,0.275,1.85,0.825c0.811,0.55,1.702,1.035,2.673,1.453
		c0.969,0.42,1.677,0.813,2.12,1.178c0.447,0.367,1.167,0.682,2.164,0.942c0.995,0.265,1.494,0.472,1.494,0.63
		c0,0.943,1.257,1.57,3.771,1.885c1.574,0.785,2.465,1.414,2.675,1.885c0.209,0.471,0.721,0.838,1.531,1.1
		c0.813,0.264,1.665,0.682,2.558,1.258l2.043,0.785c0.209,0.209,0.394,0.498,0.55,0.863c0.158,0.367,0.839,0.721,2.043,1.063
		c1.206,0.338,1.915,0.744,2.124,1.217c0.209,0.471,0.629,0.916,1.258,1.334l1.415-0.314c2.621,1.311,4.245,2.277,4.874,2.906
		c0.313,0.105,0.904,0.287,1.77,0.551c0.863,0.262,1.454,0.641,1.77,1.139c0.313,0.498,0.942,0.902,1.887,1.217
		c2.723,0.84,4.35,3.039,4.873,6.598c-0.472,1.102-1.073,2.229-1.807,3.379c-1.048,0.42-1.78,0.746-2.198,0.98
		c-0.42,0.236-1.389,0.539-2.907,0.904l-0.628,0.549c0,0.105-0.104,0.158-0.314,0.158c-2.355,0-3.874-1.205-4.553-3.613
		c-0.106-0.314-0.367-0.629-0.785-0.943c-0.422,0.523-0.736,0.785-0.944,0.785c-0.629,0-1.283-0.221-1.963-0.666
		c-0.683-0.445-1.506-1.141-2.475-2.082c-0.972-0.943-2.147-1.857-3.535-2.75c-1.387-0.889-2.448-1.621-3.182-2.199
		c-2.146-2.199-5.131-4.137-8.952-5.813c-0.315-0.207-0.747-0.574-1.298-1.1c-0.549-0.523-1.896-1.322-4.044-2.396
		c-2.147-1.072-4.188-2.943-6.126-5.615l-0.629-0.313c-0.837-0.682-1.583-1.338-2.238-1.965c-0.654-0.63-1.558-1.048-2.709-1.256
		c-1.1-0.682-2.018-1.389-2.748-2.122c-5.498-3.663-8.667-5.706-9.504-6.127c0,2.464-0.366,3.691-1.1,3.691l-0.865-0.155
		c-0.208,0-0.522,0.811-0.942,2.434v1.1l-1.02,3.379c-0.629,2.303-1.466,3.533-2.515,3.691v1.178
		c-1.042,1.678-1.68,2.973-1.915,3.887c-0.234,0.918-0.612,1.939-1.134,3.064c-0.521,1.127-0.99,2.5-1.407,4.123
		c-0.417,1.625-1.381,4.191-2.893,7.699v0.156l0.472,1.336v0.629c0,0.42-0.211,1.229-0.632,2.434
		c0.525,1.049,0.789,1.625,0.789,1.729c0,0.314-0.132,0.746-0.396,1.295c-0.262,0.551-0.501,1.061-0.714,1.533
		c-0.214,0.471-1.2,0.994-2.954,1.57c-0.315-0.158-0.813-0.551-1.492-1.178c-1.833-0.209-3.169-1.072-4.007-2.592
		c0-0.105-0.185-0.523-0.549-1.258c-0.367-0.732-0.551-1.439-0.551-2.121c0-0.104-0.183-0.719-0.55-1.846
		c-0.366-1.125-0.55-1.949-0.55-2.473c0-3.145,0.785-5.865,2.356-8.17l0.157-1.021c0.156-0.576,0.497-1.387,1.021-2.434l1.1-2.357
		l0.157-1.102c0.104-0.785,0.354-1.451,0.745-2.002c0.394-0.549,1.112-1.975,2.161-4.279l0.628-1.021
		c0.575-1.309,0.929-2.044,1.061-2.199c0.13-0.158,0.195-0.365,0.195-0.63l0.158-0.862c0.365-0.315,0.55-0.682,0.55-1.101
		c0.209-0.104,0.575-0.366,1.101-0.785c0.471-1.466,1.124-3.089,1.963-4.87l2.436-5.342c0.156-0.261,0.235-0.443,0.235-0.549
		c0-0.366-3.942-3.325-11.824-8.875c-0.883-0.629-1.322-1.492-1.322-2.593c0-1.728,1.779-3.428,5.338-5.104
		c0.314-0.105,1.439-0.786,3.376-2.043c1.937-1.256,3.324-1.884,4.161-1.884c0.315,0,1.716-0.72,4.203-2.161
		c2.485-1.439,3.834-2.187,4.042-2.238c0.21-0.051,0.394-0.157,0.55-0.315c0.157-0.156,0.563-0.366,1.218-0.627
		c0.653-0.263,1.504-0.681,2.552-1.257C441.352,52.634,441.876,52.32,441.876,52.267z M429.535,74.339l0.937,0.472h0.312
		c0.468,0,1.586-2.409,3.354-7.228l2.436-5.812l-0.942-0.158c-0.263,0-0.604,0.262-1.021,0.785c-4.944,1.886-7.96,3.273-9.054,4.163
		l-0.702,0.393c-1.143,0.523-1.715,1.466-1.715,2.827C424.905,71.564,427.038,73.083,429.535,74.339z"/>
	<path fill="#F9A01B" d="M514.516,87.691l1.18-0.314l0.471-1.021c2.564-1.519,4.396-2.958,5.499-4.32
		c0.104-0.208,0.34-0.419,0.707-0.628c0.366-0.209,0.76-0.576,1.179-1.101c1.936-1.937,4.24-2.907,6.912-2.907
		c3.142,0,4.816,1.912,5.026,5.735l0.472,1.177c0.418,0.736,1.007,2.228,1.767,4.478c0.759,2.252,1.139,3.641,1.139,4.164
		c0,1.413-0.444,2.827-1.335,4.242c-0.734,0.365-2.486,2.328-5.263,5.891l-0.785,0.549c-0.42,0.941-0.97,1.885-1.65,2.828
		c-1.047,0.367-1.57,0.76-1.57,1.178v1.414c0,0.105-0.118,0.314-0.354,0.629c-0.234,0.314-0.563,0.916-0.981,1.805l-0.627,0.943
		c-0.21,0.209-0.42,0.641-0.63,1.297c-0.209,0.654-0.51,1.244-0.902,1.766c-0.393,0.525-0.589,0.943-0.589,1.258
		c0,0.785,1.021,1.178,3.064,1.178c0.103,0,0.496-0.156,1.176-0.471l1.1,0.314c0.105,0,0.366-0.17,0.787-0.51
		c0.417-0.342,1.059-0.615,1.923-0.826c0.864-0.209,1.624-0.523,2.278-0.943c0.654-0.418,1.439-0.785,2.355-1.098
		c0.916-0.314,1.793-0.824,2.632-1.533c0.838-0.705,1.661-1.217,2.474-1.531c0.812-0.314,1.571-0.797,2.278-1.453
		c0.707-0.652,1.505-1.268,2.396-1.846c0.891-0.576,2.303-1.832,4.242-3.77c1.254-0.994,2.119-1.543,2.591-1.65
		c0.104,0,0.563-0.691,1.374-2.082c0.811-1.385,1.74-2.08,2.788-2.08c1.1,0,1.649,0.523,1.649,1.57c0,0.576-0.262,1.127-0.785,1.65
		v0.471l0.157,1.256c0.104,0.158,0.156,0.393,0.156,0.707c0,0.211-0.194,0.525-0.589,0.943c-0.393,0.418-0.667,0.955-0.823,1.609
		c-0.158,0.656-0.654,1.088-1.493,1.297c-0.314,1.152-0.72,1.807-1.217,1.965c-0.498,0.156-1.191,0.68-2.081,1.568
		c-0.892,0.893-2.148,1.939-3.771,3.143c-1.623,1.205-2.735,2.135-3.338,2.789c-0.602,0.656-1.008,0.982-1.216,0.982
		c-0.106,0-0.314-0.105-0.629-0.314s-0.523-0.314-0.628-0.314c-0.314,0-0.523,0.367-0.628,1.1l-0.313,0.785
		c-0.682,0.42-1.075,0.629-1.18,0.629l-0.471-0.158h-0.314c-0.628,0-0.942,0.234-0.942,0.707l0.472,0.785v0.158
		c0,0.734-0.42,1.1-1.257,1.1c-0.577,0-2.252,0.969-5.024,2.904l-2.279,0.473l-1.883,1.021c-0.629-0.367-1.023-0.549-1.18-0.549
		l-1.255,0.393l-2.279,0.156c-0.054,0-1.009-0.523-2.866-1.57c-1.86-1.047-2.973-2.094-3.338-3.143
		c-0.366-1.047-0.838-2.107-1.413-3.182c-0.577-1.072-0.864-1.818-0.864-2.238c0-2.514,0.207-4.307,0.629-5.381
		c0.417-1.072,0.68-1.871,0.785-2.395c0.103-0.523,0.404-1.086,0.902-1.689c0.497-0.602,0.903-1.584,1.217-2.945
		c1.52-3.035,2.565-4.896,3.144-5.576c0.575-0.682,1.021-1.52,1.334-2.514l1.022-1.414c0.104-0.104,0.261-0.511,0.471-1.219
		c0.208-0.705,0.471-1.111,0.786-1.217c0.418-0.732,0.628-1.203,0.628-1.414c0-1.517-0.681-2.277-2.042-2.277
		c-0.263,0-0.55,0.274-0.865,0.824c-0.313,0.551-1.032,1.088-2.158,1.611c-1.128,0.523-1.82,0.916-2.083,1.178
		c-0.262,0.262-0.825,0.59-1.69,0.982c-0.862,0.392-1.609,1.008-2.238,1.846l-1.334,0.629c-0.419,0.994-0.786,1.545-1.103,1.648
		c-0.313,0.105-1.282,0.367-2.905,0.787c-0.104,0.051-0.366,0.365-0.788,0.941c-0.419,0.576-1.021,0.863-1.805,0.863
		c-0.629,0.629-1.258,1.363-1.888,2.199c-0.209,0-0.76,0.211-1.648,0.629l-1.572,0.393c-0.42,0.313-0.877,0.813-1.375,1.492
		c-0.499,0.682-1.427,1.02-2.79,1.02c-0.784,0-1.178-0.627-1.178-1.883c0-2.564,0.903-4.607,2.71-6.127
		c1.808-1.52,3.128-2.329,3.967-2.436c0.838-0.104,1.361-0.418,1.572-0.941c0.207-0.523,0.72-0.956,1.531-1.297
		c0.812-0.34,1.754-1.1,2.828-2.279c1.073-1.177,2.238-1.974,3.495-2.395L514.516,87.691z"/>
	<path fill="#F9A01B" d="M557.008,98.611l1.26-1.102h0.471c0.366,0,0.917-0.393,1.65-1.178l0.788-0.314
		c1.048-1.57,1.965-2.487,2.751-2.749l1.26-0.942c0.208-0.209,0.511-0.393,0.902-0.549c0.394-0.158,1.023-0.669,1.889-1.533
		c0.864-0.864,1.56-1.297,2.084-1.297c0.523,0,0.942,0.054,1.258,0.158c0.313-0.629,0.941-1.242,1.886-1.846
		c0.944-0.602,1.704-1.322,2.281-2.159l1.023-0.472c0.838-0.418,1.585-0.956,2.239-1.61c0.655-0.654,1.506-0.982,2.557-0.982
		c1.52,0,3.105,0.773,4.754,2.317c1.649,1.545,2.473,3.023,2.473,4.438l-1.333,6.127c-0.892,4.504-1.886,6.861-2.984,7.068
		l-0.314,1.65c-0.735,0.523-1.101,0.941-1.101,1.256l0.471,1.887c0,0.262-0.288,0.654-0.863,1.178c-0.104,0-0.156,0.156-0.156,0.471
		v3.221c0,0.576-0.367,1.049-1.101,1.414c0.104,0.105,0.262,0.209,0.472,0.314c0.314-0.314,1.02-0.473,2.121-0.473l1.256,0.158
		l1.726-1.729c0.364-0.104,0.874-0.354,1.528-0.746c0.652-0.393,1.765-0.902,3.334-1.531l10.277-7.855
		c1.411-1.414,2.481-2.119,3.215-2.119c0.784,0,1.177,0.498,1.177,1.492c0,1.15-0.224,2.107-0.667,2.865
		c-0.446,0.76-0.853,1.678-1.217,2.75c-0.367,1.074-0.8,1.82-1.297,2.238c-0.497,0.42-0.902,0.879-1.217,1.375
		c-0.313,0.498-1.166,1.217-2.553,2.16c-1.387,0.941-2.565,1.898-3.534,2.867s-1.767,1.662-2.395,2.08l-3.376,2.436l-0.472,0.785
		c-0.105,0.105-0.59,0.328-1.453,0.668c-0.863,0.342-1.638,0.775-2.317,1.297l-1.413,0.785c-0.313,0.211-0.824,0.34-1.53,0.393
		c-0.708,0.053-1.323,0.354-1.847,0.904c-0.525,0.549-0.943,0.822-1.257,0.822l-1.178-0.156l-1.569,0.471
		c-0.891,0-1.978-0.535-3.26-1.607c-1.284-1.074-1.925-2.213-1.925-3.418v-0.471l0.156-1.1c0-0.209-0.156-0.746-0.471-1.611
		c-0.314-0.863-0.471-1.348-0.471-1.453l0.156-1.1l-0.156-0.471c0-1.414,0.104-2.305,0.314-2.67
		c0.208-0.365,0.364-0.877,0.471-1.533c0.104-0.652,0.208-1.191,0.314-1.609l0.394-1.963c0.207-0.631,0.471-1.049,0.785-1.258
		c0.104-0.418,0.313-1.125,0.628-2.121l0.314-1.414l0.784-1.1c0.42-0.418,0.669-0.98,0.747-1.689
		c0.078-0.705,0.353-1.453,0.823-2.238c0.472-0.785,0.708-1.256,0.708-1.414c0-0.627-0.313-0.942-0.942-0.942
		c-0.209,0-0.864,0.42-1.964,1.259l-1.414-0.473c-0.106,0-0.394,0.263-0.864,0.785c0,0.211-0.235,0.367-0.708,0.473
		c-0.472,0.104-0.916,0.498-1.334,1.178l-0.631,0.156l-1.021-0.471h-0.314c-0.523,0-0.837,0.576-0.942,1.729
		c-0.577,0.838-1.337,1.387-2.278,1.648l-1.728,0.473c-0.578,0.207-0.996,0.68-1.258,1.414c-0.265,0.732-0.787,1.4-1.573,2.002
		c-0.785,0.602-1.31,0.902-1.57,0.902c-1.467,0-2.2-0.811-2.2-2.434l0.629-3.691L557.008,98.611z M590.941,59.337l-0.472-3.064
		v-0.472c0-2.46,0.836-3.821,2.514-4.083c0.364-0.052,1.465-0.393,3.298-1.022c0.943,0.21,1.925,1.035,2.946,2.475
		c1.021,1.44,1.531,2.71,1.531,3.809c0,0.106-0.077,0.341-0.235,0.707c-0.158,0.367-0.264,1.06-0.314,2.081
		c-0.052,1.021-0.563,1.912-1.531,2.67c-0.971,0.76-2.004,1.14-3.103,1.14c-0.734,0-1.665-0.51-2.788-1.532
		C591.66,61.025,591.046,60.122,590.941,59.337z"/>
	<path fill="#F9A01B" d="M618.294,88.32l1.1-1.964c0.314-0.471,0.721-0.956,1.219-1.454c0.5-0.497,1.036-1.779,1.613-3.849
		c0.576-2.068,1.219-3.494,1.926-4.28c0.706-0.786,1.742-1.178,3.105-1.178c0.785,0,1.821,0.38,3.105,1.14
		c1.283,0.759,2.542,3.05,3.774,6.873s1.847,6.519,1.847,8.089c0,0.629,0.185,1.428,0.551,2.396
		c0.367,0.972,0.603,1.717,0.709,2.239c-0.42,0.891-0.63,1.389-0.63,1.492l0.157,3.221l-0.941,2.592v1.885
		c-0.629,1.049-0.942,1.703-0.942,1.965c0,0.313,0.104,0.627,0.313,0.941c2.459-1.047,3.949-1.896,4.473-2.553
		c0.522-0.654,1.031-1.061,1.529-1.217c0.495-0.156,1.319-0.838,2.471-2.043l1.488-0.785c0.524-0.629,0.968-1.191,1.334-1.689
		c0.366-0.496,0.797-0.85,1.295-1.059c0.494-0.209,1.082-0.576,1.762-1.1c0.681-0.525,1.673-1.127,2.98-1.807l0.785-0.943
		c0.783-0.889,1.712-1.598,2.783-2.121c1.072-0.523,1.66-0.785,1.764-0.785c0.366,0,0.746,0.484,1.138,1.453
		c0.393,0.969,0.59,1.924,0.59,2.867c0,0.893-0.513,1.768-1.533,2.631s-1.712,1.506-2.078,1.924
		c-0.366,0.42-1.202,0.785-2.511,1.102c-0.104,0.053-0.969,1.125-2.589,3.219l-1.57,0.943l-0.784,1.021
		c-0.105,0.209-0.81,0.418-2.12,0.627c-0.051,0-0.169,0.264-0.352,0.787c-0.185,0.521-0.747,0.891-1.688,1.1
		c-1.883,1.727-2.851,2.697-2.901,2.904l-1.649,0.314c-0.314,0.996-0.573,1.598-0.784,1.809c-1.257,0.313-1.962,0.838-2.118,1.57
		c-0.158,0.105-0.419,0.209-0.786,0.313l-0.313,0.236c-1.202,0.943-2.38,1.52-3.53,1.729l-1.805,0.471l-0.628,0.943
		c0,0.262-0.642,0.602-1.923,1.021s-2.237,0.941-2.863,1.57l-1.334,1.021c-1.623,0.627-2.644,1.205-3.061,1.729h-1.101
		c-0.731,0-1.883,0.537-3.451,1.607c-1.569,1.076-2.825,1.611-3.767,1.611c-3.033,0-5.114-0.379-6.238-1.139
		c-1.123-0.758-2.053-1.699-2.784-2.828c-0.731-1.125-1.398-2.027-2.002-2.709c-0.601-0.68-0.902-1.229-0.902-1.648
		c0-0.365,0.25-0.732,0.745-1.102c0.497-0.365,1.034-1.111,1.609-2.238c0.574-1.125,2.04-1.846,4.395-2.158
		c0.104,0,0.482-0.158,1.137-0.473c0.652-0.314,1.19-0.471,1.608-0.471c0.523,0,1.177,0.471,1.962,1.412
		c0,0.105,0.104,0.158,0.314,0.158l1.256-0.158c0.574,0.42,0.968,0.629,1.178,0.629c1.254,0,2.587-0.629,4.001-1.885l0.313-0.156
		h0.627c0.158,0,0.421-0.445,0.786-1.336L621.69,110l2.746-3.535v-0.787c0-0.156,0.157-0.627,0.472-1.412v-1.178
		c0-0.473,0.313-0.773,0.94-0.904c0.628-0.131,0.941-0.459,0.941-0.982l-0.157-0.627c-0.419-0.576-0.626-1.021-0.626-1.336
		l0.783-1.57l-0.157-1.65l0.314-0.627c-0.21-0.734-0.314-1.152-0.314-1.259l0.314-1.964c0-0.051-0.143-0.549-0.433-1.492
		c-0.289-0.941-0.511-1.412-0.669-1.412c-0.313,0-1.31,0.811-2.986,2.434c-1.679,1.625-2.676,2.777-2.989,3.457
		s-0.982,1.295-2.005,1.846c-1.021,0.549-1.717,1.164-2.084,1.846c-0.368,0.68-0.814,1.074-1.337,1.178l-5.27,4.242l-5.74,4.242
		c-0.42,0.471-0.682,0.705-0.787,0.705c-1.939,0-2.91-1.072-2.91-3.221c0-0.68,0.395-1.908,1.18-3.689
		c0.367-0.209,0.643-0.365,0.825-0.473c0.185-0.105,0.275-0.182,0.275-0.236c0-0.051-0.051-0.078-0.157-0.078l0.472,0.314h0.157
		c1.939-1.307,3.197-2.068,3.773-2.277c0.578-0.209,1.103-0.785,1.573-1.729l3.304-2.356c0.837-0.63,2.121-1.778,3.851-3.456
		C616.721,90.337,617.821,89.105,618.294,88.32z"/>
	<path fill="#F9A01B" d="M651.119,97.197l0.63-0.865c1.367-0.314,2.236-0.837,2.604-1.57c0.157-0.366,1.473-1.729,3.945-4.086
		c2.471-2.355,3.839-3.611,4.103-3.77c1.669-3.036,2.686-5.314,3.052-6.834c0.626-0.313,0.938-0.679,0.938-1.098l0.628-1.257
		l0.704-0.157l0.313-0.314v-0.707c0-0.943,1.018-3.142,3.054-6.598c2.038-4.242,3.138-6.585,3.294-7.031
		c0.157-0.443,0.472-1.099,0.942-1.964c0.472-0.863,1.191-2.525,2.16-4.987c0.969-2.462,2.475-5.028,4.518-7.697
		c0.208-0.105,0.521-0.694,0.941-1.769c0.419-1.072,1.073-2.132,1.964-3.181l0.942-1.649c0.314-0.523,0.864-1.44,1.65-2.75
		c0.785-1.308,1.504-2.342,2.16-3.102c0.654-0.759,1.15-1.558,1.492-2.396c0.34-0.836,0.746-1.439,1.217-1.806
		c0.472-0.367,0.954-1.034,1.454-2.004c0.496-0.968,1.269-1.452,2.317-1.452c2.041,0,3.52,0.838,4.438,2.513
		c0.916,1.676,1.374,3.142,1.374,4.398c0,0.156-0.313,1.283-0.942,3.378l-1.179,7.068c-1.048,0.524-1.57,1.127-1.57,1.807
		c0,2.775-1.073,5.655-3.221,8.64c-0.211,0.209-0.381,0.891-0.509,2.042c-0.134,1.153-0.592,2.094-1.377,2.828
		c-0.785,0.733-1.49,1.963-2.12,3.691l-7.305,10.446l-0.629,0.629c-0.313,0.209-0.68,0.655-1.099,1.335l-1.257-0.392
		c-1.413,0-2.121,0.444-2.121,1.334c0,0.314,0.104,0.733,0.313,1.257v0.157c0,0.054-1.938,2.802-5.813,8.248
		c-0.207,0.314-0.575,1.335-1.097,3.063l-1.102,2.357c-1.099,1.52-1.873,2.998-2.316,4.438c-0.446,1.441-1.035,2.605-1.768,3.496
		c-1.048,2.355-1.571,3.586-1.571,3.689c0,0.314,0.157,0.473,0.472,0.473s1.062-0.785,2.238-2.357
		c1.178-1.57,2.146-2.617,2.905-3.141c0.76-0.523,1.401-1.258,1.927-2.199l0.786-0.551c0.211-0.104,0.655-0.418,1.339-0.943
		l0.786,0.158c0.421-0.314,0.681-0.68,0.786-1.1c0.105-0.418,0.261-0.733,0.473-0.941c1.364-0.159,2.215-0.654,2.557-1.493
		c0.342-0.837,0.748-1.257,1.22-1.257c0.42,0,0.97-0.484,1.653-1.453c0.681-0.969,1.639-1.754,2.871-2.356
		c1.232-0.602,2.149-1.14,2.754-1.61c0.604-0.471,1.822-1.033,3.659-1.688c1.835-0.654,3.068-0.982,3.697-0.982h0.472l0.629,0.156
		l1.18-0.156c1.838,0,3.672,0.511,5.505,1.532c1.832,1.021,2.619,2.604,2.357,4.751l-0.627,4.87l-0.865,3.85
		c-0.106,0.629-0.524,2.016-1.257,4.164c-0.733,2.146-1.101,3.375-1.101,3.689l-0.313,1.494l0.313,2.041l-0.155,1.65
		c0,0.523,0.26,0.785,0.781,0.785c0.209,0,0.783-0.473,1.724-1.414c0.573,0.105,1.12-0.209,1.643-0.943
		c0.522-0.732,1.227-1.492,2.115-2.277c0-0.209,0.339-0.404,1.018-0.588c0.678-0.184,1.617-0.799,2.818-1.848
		c0.207-0.471,1.226-1.479,3.054-3.023c1.824-1.543,3.574-2.736,5.244-3.574l0.47-0.627c0.887-0.891,1.695-1.336,2.427-1.336
		c0.73,0,1.097,0.393,1.097,1.178c0,0.523-0.132,1.074-0.394,1.65c-0.261,0.578-0.443,1.322-0.548,2.238
		c-0.105,0.916-0.628,2.238-1.568,3.965l-0.314,0.785c-0.365,0.893-0.81,1.416-1.334,1.574c-0.521,0.156-1.083,0.588-1.686,1.293
		c-0.602,0.709-1.844,1.377-3.726,2.004c-0.837,1.572-1.49,2.357-1.961,2.357l-1.412-0.629c-1.099,0.891-1.646,1.807-1.646,2.748
		c-1.361,1.154-2.172,1.914-2.432,2.279l-1.569-0.156c-0.418,0-0.628,0.576-0.628,1.727c0,0.105-0.536,0.459-1.607,1.061
		c-1.073,0.604-1.896,1.139-2.471,1.609c-0.575,0.473-1.803,0.709-3.687,0.709c-0.209,0-0.524-0.184-0.941-0.551
		c-0.418-0.365-1.033-0.68-1.843-0.943c-0.811-0.262-1.372-0.875-1.687-1.846c-0.314-0.967-0.654-1.729-1.021-2.277
		c-0.367-0.551-0.55-0.982-0.55-1.295l0.157-1.572l-0.393-1.648l0.707-1.102c-0.314-0.73-0.472-1.229-0.472-1.49l0.785-4.793
		c0.575-3.457,1.047-5.705,1.414-6.754c0.104-0.105,0.158-0.42,0.158-0.943l-0.158-1.963l0.158-1.1c0-0.787-0.265-1.205-0.786-1.256
		c-0.524-0.053-0.838-0.186-0.942-0.395c-0.684-0.313-1.075-0.471-1.179-0.471c-0.421,0-0.789,0.328-1.103,0.982
		c-0.315,0.654-0.734,1.243-1.258,1.766l-1.966-0.313v0.156c0,0.42-0.707,1.23-2.124,2.436c-1.31,0.314-2.437,0.994-3.38,2.043
		c-0.421,0-1.141,0.404-2.163,1.217c-1.021,0.811-1.689,1.27-2.004,1.373l-0.629,1.258l-1.259,0.393
		c-0.366,1.047-1.232,1.727-2.595,2.041l-0.786,1.494c-1.101,0.104-1.861,0.666-2.28,1.688c-0.42,1.021-0.733,1.533-0.942,1.533
		c-0.105,0-0.276-0.064-0.513-0.197c-0.234-0.129-0.458-0.195-0.669-0.195c-1.153,0-1.782,0.863-1.886,2.592
		c0,0.209-1.074,1.439-3.223,3.691c-2.151,2.252-3.304,3.404-3.461,3.455c-0.157,0.055-0.46,0.59-0.904,1.609
		c-0.446,1.021-1.062,1.781-1.848,2.279c-0.787,0.498-1.377,0.902-1.77,1.217c-0.393,0.316-0.695,0.471-0.905,0.471
		c-1.101,0-1.991-0.785-2.672-2.355c-0.683-1.572-1.022-2.381-1.022-2.434l0.473-1.65l-0.157-1.414c0-0.051,0.326-1.111,0.981-3.18
		c0.655-2.07,1.401-3.693,2.24-4.871c0.839-1.18,1.494-3.102,1.967-5.773c-2.359,1.57-3.775,2.355-4.246,2.355
		c-1.049,0-1.572-0.68-1.572-2.043C648.673,101.438,649.487,99.186,651.119,97.197z"/>
	<path fill="#F9A01B" d="M788.765,110.393h0.314l0.788,0.313c0.105,0,0.21-0.051,0.314-0.156c0-0.891,0.42-1.648,1.26-2.277
		c0.264-0.996,0.854-1.752,1.772-2.279c0.917-0.523,2.374-1.387,4.37-2.592l1.967-1.727l0.946-0.473l0.629-0.785
		c0.577-0.678,1.128-1.02,1.652-1.02c0.787,0,1.182,0.287,1.182,0.863l-0.709,1.57l0.315,2.592c0,0.941-0.327,1.781-0.983,2.516
		c-0.655,0.732-1.664,1.805-3.026,3.219l-4.013,4.242l-2.124,1.098c-0.524,0.316-0.996,0.684-1.415,1.102l-3.066,2.592
		c0,0.734-0.236,1.283-0.708,1.648h-1.259l-0.628,0.316c-0.37,0.994-1.444,1.963-3.228,2.904l-1.1,0.785
		c-0.368,0.316-0.708,0.471-1.023,0.471L778.792,125l-1.494,0.314c-0.42,0-0.984-0.207-1.692-0.627
		c-0.708-0.418-1.428-0.746-2.162-0.98c-0.732-0.236-1.664-1.205-2.791-2.908c-1.128-1.701-1.745-2.814-1.849-3.338
		c0-0.209-0.119-0.563-0.355-1.061c-0.235-0.496-0.354-0.799-0.354-0.904c0-0.102,0.236-0.627,0.709-1.57v-0.156
		c0-0.156-0.145-0.521-0.433-1.1c-0.29-0.576-0.432-1.283-0.432-2.121c0-0.471-0.156-1.074-0.473-1.807
		c0.418-0.418,0.628-0.732,0.628-0.943c0-0.207-0.078-0.51-0.234-0.902c-0.157-0.393-0.236-0.693-0.236-0.904l0.471-3.848
		l-0.312-1.963l0.156-1.887c0-1.098-0.471-1.648-1.41-1.648c-0.417,0-0.939,0.287-1.564,0.863l-0.548,0.158
		c-1.409,0.68-2.4,1.244-2.975,1.688c-0.575,0.445-1.175,0.668-1.799,0.668c-0.315,0.314-0.915,0.604-1.803,0.865l-0.627,0.471
		c-0.207,0.209-0.624,0.523-1.251,0.943c0,0.156-0.979,1.033-2.936,2.629c-1.955,1.6-3.717,3.104-5.282,4.518
		c-1.566,1.414-2.701,2.188-3.404,2.316c-0.705,0.133-1.058,0.801-1.058,2.004c0,0.211-0.47,0.629-1.409,1.258
		c-0.104,0-0.65,0.574-1.643,1.727c-0.835-0.629-1.306-0.941-1.409-0.941c-0.684,0-1.183,0.863-1.496,2.592
		c-0.315,0.68-1.155,1.1-2.521,1.256c-0.105,0.053-0.288,0.445-0.551,1.178l-0.315,0.316h-0.788c-0.105,0-0.473,0.299-1.102,0.902
		c-0.631,0.602-1.182,0.98-1.654,1.139c-0.682,1.414-1.261,2.119-1.731,2.119c-0.211,0-0.514-0.102-0.905-0.314
		c-0.395-0.207-0.88-0.391-1.455-0.549c-0.578-0.156-1.219-0.797-1.925-1.924c-0.707-1.125-1.063-2.082-1.063-2.867
		c0-5.813,1.126-8.98,3.379-9.504l0.157-0.314v-0.629c0-0.68,0.301-1.164,0.902-1.453c0.603-0.287,1.219-0.863,1.846-1.729
		c0.629-0.863,1.048-1.348,1.257-1.453h1.021c0.21,0,0.315-0.549,0.315-1.648c0-0.314,0.129-0.602,0.392-0.863
		s0.418-0.643,0.471-1.141c0.052-0.494,0.434-1.309,1.14-2.434c0.707-1.125,1.06-1.793,1.06-2.004l-0.157-0.313
		c-1.309,1.203-2.25,1.857-2.827,1.963c-0.577,0.104-1.362,0.863-2.356,2.277l-1.256-0.234c-2.203,1.623-3.564,2.541-4.091,2.748
		c-0.525,0.211-1.104,0.813-1.733,1.807c0,0.314-0.183,0.523-0.552,0.627c-0.369,0.105-1.051,0.527-2.048,1.258h-0.473
		c-1.312,0-1.97-0.943-1.97-2.828l1.648-4.477c0.47-1.414,1.583-2.604,3.335-3.574c1.753-0.968,3.229-1.896,4.434-2.787
		c1.203-0.891,2.407-1.361,3.612-1.414l0.548-0.785c1.777-0.682,2.982-1.755,3.608-3.221c0.629-1.466,1.492-2.199,2.592-2.199
		c2.876,0,5.075,1.06,6.592,3.182c1.517,2.119,2.275,3.809,2.275,5.065l0.157,2.12c0,0.734-0.157,1.754-0.471,3.064
		c-0.629,0.941-0.942,1.648-0.942,2.121c0,0.42,0.261,0.627,0.785,0.627c0.313,0,0.731-0.223,1.254-0.666
		c0.524-0.447,1.112-0.852,1.767-1.219c0.654-0.365,1.033-0.682,1.14-0.943c0.522-1.256,1.437-2.121,2.744-2.592
		c1.309-0.472,2.12-0.863,2.435-1.178l0.785-0.629l0.628-1.178c1.411-0.628,2.354-1.203,2.824-1.729
		c0.472-0.523,1.098-0.863,1.883-1.021c0.786-0.156,1.677-0.627,2.669-1.414l1.179-0.313l1.099-0.629
		c0.104-0.104,0.418-0.236,0.941-0.393c0.521-0.157,1.294-0.433,2.313-0.826c1.02-0.392,1.714-0.588,2.081-0.588
		c2.667,0,4.771,1.073,6.316,3.22c1.543,2.148,2.315,3.876,2.315,5.184l-0.157,1.415l0.315,2.121v0.314l-0.629,4.32l0.157,1.492
		c0,2.461-0.523,4.162-1.571,5.105c-0.262,0.104-0.393,0.367-0.393,0.785v0.707l1.57,3.299c0.472,1.152,0.838,1.727,1.102,1.727
		l2.521-0.705c0.733-0.209,1.337-0.76,1.812-1.65c0.419-0.207,1.152-0.836,2.203-1.885
		C787.584,110.813,788.083,110.393,788.765,110.393z"/>
	<path fill="#F9A01B" d="M862.827,105.521l1.251-1.1c0.783,0,1.252-0.352,1.409-1.061c0.156-0.707,0.718-1.268,1.684-1.688
		s1.867-1.271,2.703-2.553c0.834-1.283,1.694-1.924,2.583-1.924c0.313,0,0.679,0.26,1.096,0.785
		c0.417,0.523,0.628,0.941,0.628,1.256c0,1.727-0.524,3.508-1.571,5.34l-0.313,2.201l-0.55,1.02
		c-0.786,0.42-1.296,0.865-1.531,1.338c-0.235,0.469-0.85,1.047-1.844,1.727l-0.785,1.1c-1.154,0.367-1.927,0.969-2.319,1.807
		s-0.94,1.309-1.646,1.414c-0.708,0.105-1.48,0.629-2.318,1.57c-0.523,0.262-1.151,0.498-1.885,0.707l-0.156,0.787
		c-0.524,0.521-1.349,0.941-2.475,1.256c-1.125,0.314-1.962,0.615-2.513,0.902c-0.549,0.289-0.93,0.432-1.137,0.432
		c-0.996,0-1.912-0.195-2.748-0.588c-0.839-0.393-1.703-0.641-2.593-0.746c-0.313-0.314-0.498-0.654-0.55-1.021
		s-0.314-0.85-0.786-1.453c-0.471-0.602-0.704-1.428-0.704-2.475l0.313-1.492c0-0.209-0.132-0.471-0.394-0.787
		c-0.262-0.313-0.392-0.574-0.392-0.785c0-0.207,0.052-0.365,0.156-0.471c0.104-0.104,0.157-0.26,0.157-0.471
		c0-0.262-0.053-0.549-0.157-0.863s-0.156-0.576-0.156-0.785l0.472-3.85c0-0.314-0.105-0.473-0.315-0.473
		c-0.208,0-0.588,0.262-1.138,0.785c-0.552,0.527-1.192,0.785-1.926,0.785c-0.419,0.316-0.76,0.971-1.021,1.965
		c-0.42,0.523-0.942,0.996-1.571,1.414L839.472,110c-0.107,0.365-0.498,0.666-1.179,0.902c-0.682,0.236-1.153,0.537-1.415,0.902
		l-0.785,0.787l-1.491-0.158c-0.105,0.105-0.395,0.563-0.865,1.377c-0.472,0.811-1.074,1.479-1.808,2.002l-5.97,4.869
		c-0.63,0.42-1.545,0.941-2.749,1.57l-0.472,0.473c-4.19,2.775-7.149,4.162-8.878,4.162c-1.414,0-3.064-0.393-4.948-1.178
		c-1.886-0.785-2.907-1.729-3.064-2.828l-0.785-3.221c-0.472-0.732-0.708-1.754-0.708-3.063c0-0.629,0.054-1.047,0.159-1.258v-0.471
		l-0.159-2.594c0-0.627,0.498-0.941,1.493-0.941l-0.157-2.121c0-0.209,0.459-1.031,1.376-2.473c0.915-1.439,1.53-2.266,1.846-2.475
		l0.785-1.021c-0.054-0.629,0.313-1.297,1.101-2.004c0.785-0.707,1.416-1.426,1.889-2.158c0.471-0.734,1.362-1.543,2.673-2.436
		l2.358-2.357c1.835-1.832,3.827-3.299,5.978-4.398c0.313-0.104,0.957-0.627,1.926-1.57s2.071-1.637,3.305-2.082
		c1.231-0.443,2.436-1.006,3.616-1.689c1.18-0.679,2.111-1.021,2.793-1.021h0.628c0.21,0,1.6-0.654,4.168-1.963h0.473
		c0.209,0,0.708,0.21,1.494,0.629h0.156l1.261-0.629c0.208-0.105,0.471-0.156,0.785-0.156c3.249,0,5.032,2.25,5.348,6.753
		c0.105,0.943,0.367,1.414,0.787,1.414c0.522,0,1.269-0.955,2.239-2.865c0.971-1.912,3.028-2.868,6.17-2.868
		c2.252,0,3.378,1.441,3.378,4.319c0,3.405-1.519,6.625-4.557,9.662c-0.21,0.418-0.366,0.891-0.471,1.414l-1.1,3.221v0.156
		c0,0.314-0.224,0.746-0.668,1.297s-0.667,1.033-0.667,1.451l0.158,1.965l-0.316,2.199c0,0.996,0.183,1.65,0.55,1.963
		c1.671-0.418,2.884-1.111,3.642-2.08s1.292-1.506,1.604-1.611l0.784-0.313C861.651,106.701,862.2,106.047,862.827,105.521z
		 M836.742,105.521c0.21-1.152,0.853-2.029,1.926-2.631c1.072-0.602,1.714-1.217,1.925-1.846c0.993-0.734,2.421-2.043,4.281-3.928
		c1.858-1.885,2.789-3.035,2.789-3.457c0-0.156-0.105-0.234-0.313-0.234h-0.158l-0.629,0.392l-1.413-0.157l-1.493,0.157l-1.1-0.549
		l-1.021,0.157l-1.572-0.314c-0.839,0-1.559,0.172-2.158,0.51c-0.604,0.342-1.756,0.723-3.458,1.141
		c-1.702,0.419-3.234,1.139-4.597,2.16c-1.362,1.02-2.356,1.531-2.984,1.531c-0.366,0.785-1.599,1.912-3.691,3.377
		c-1.258,0.42-2.07,1.334-2.437,2.748c-1.362,1.1-2.043,1.73-2.043,1.887l-0.55,1.334c-0.42,0.367-0.943,0.668-1.571,0.904
		c-0.629,0.236-0.994,0.785-1.099,1.65c-0.105,0.863-0.459,1.648-1.061,2.355c-0.604,0.707-0.904,1.271-0.904,1.689
		c0,2.564,0.498,3.85,1.493,3.85c0.418,0,1.297-0.275,2.631-0.826c1.337-0.551,2.107-0.93,2.318-1.139
		c0.208-0.209,0.628-0.418,1.257-0.629l1.493-0.785c0.208-0.209,0.443-0.34,0.707-0.395c0.261-0.051,0.521-0.221,0.785-0.508
		c0.261-0.289,0.732-0.604,1.414-0.943c0.68-0.34,1.204-0.799,1.57-1.375c0.89-0.523,2.33-1.336,4.322-2.436l1.648-1.256
		c1.152-0.523,1.858-0.969,2.12-1.336C835.433,106.256,835.956,105.891,836.742,105.521z"/>
</g>
</svg>
