<?xml version="1.0" encoding="utf-8"?>
<!-- Generator: Adobe Illustrator 16.0.0, SVG Export Plug-In . SVG Version: 6.00 Build 0)  -->
<!DOCTYPE svg PUBLIC "-//W3C//DTD SVG 1.1//EN" "http://www.w3.org/Graphics/SVG/1.1/DTD/svg11.dtd">
<svg version="1.1" id="Layer_1" xmlns="http://www.w3.org/2000/svg" xmlns:xlink="http://www.w3.org/1999/xlink" x="0px" y="0px"
	 width="877px" height="168px" viewBox="0 0 877 168" enable-background="new 0 0 877 168" xml:space="preserve">
<g>
	<path fill="#F9A01B" d="M112.78,51.263l-0.122,0.67c-0.122,0.69-0.69,1.38-1.704,2.069c-1.015,0.69-2.029,1.034-3.043,1.034
		c-2.556,0-3.834-1.217-3.834-3.651c0-0.852,0.659-1.896,1.978-3.134c1.318-1.237,3.083-2.1,5.294-2.587
		c2.211-0.487,3.793-0.963,4.747-1.431c0.953-0.466,2.424-0.821,4.413-1.064c0.324,0.325,0.648,0.486,0.974,0.486
		c0.527,0,0.892-0.183,1.095-0.547c0.203-0.365,0.67-0.467,1.4-0.305h0.304l3.226-0.853l0.974,0.365c0.162,0,0.354-0.08,0.578-0.243
		c0.222-0.161,0.496-0.283,0.821-0.365h0.974l1.156-0.243c0.892-0.243,1.419-0.426,1.582-0.548l1.035,0.122
		c0.771,0,2.039-0.203,3.804-0.609c1.765-0.404,3.104-0.628,4.017-0.669c0.913-0.04,1.583-0.101,2.009-0.183
		c0.426-0.081,0.679-0.122,0.761-0.122c0.243,0,0.547,0.122,0.913,0.365c0.365,0.244,0.628,0.365,0.792,0.365
		c0.162,0,1.298-0.243,3.408-0.73h0.365l2.739,0.609c0.73-0.405,1.217-0.609,1.46-0.609c0.852,0,1.562,0.285,2.13,0.853l1.156-0.487
		l0.608,0.122c0.244,0,0.609-0.04,1.096-0.122h0.487c0.283,0,0.588,0.041,0.913,0.122c0.081,0.082,0.162,0.122,0.243,0.122
		c0.405,0,0.73-0.04,0.974-0.122h0.792l2.617,0.608l1.096-0.122c0.081,0,0.324,0.122,0.73,0.365l0.669-0.121
		c0.405,0.284,1.136,0.669,2.191,1.156c0.202-0.081,0.507-0.162,0.913-0.243h0.122c0.081,0,0.487,0.243,1.217,0.729l1.765,0.853
		l0.485-0.243c1.132,0.568,1.717,0.893,1.758,0.974l0.485,1.034c0.484,0.243,1.03,0.568,1.637,0.974
		c0.121,0.406,0.363,0.873,0.727,1.4v0.486c0,0.082,0.313,0.376,0.939,0.883c0.625,0.508,0.939,0.883,0.939,1.126
		c0,0.082-0.041,0.365-0.121,0.852v0.122c0,0.082,0.141,0.345,0.424,0.791c0.283,0.447,0.424,0.974,0.424,1.582l-0.121,0.853
		l0.121,0.791l-0.61,4.077c-0.366,0.406-0.61,0.802-0.732,1.188s-0.427,0.68-0.914,0.882c-0.488,0.204-0.884,0.619-1.188,1.248
		c-0.305,0.63-0.743,1.045-1.312,1.247c-0.568,0.204-1.107,0.559-1.615,1.065c-0.507,0.508-1.087,0.761-1.737,0.761l-6.522,1.947
		l-0.731-0.243c-0.732,1.178-1.809,1.765-3.231,1.765c-0.366,0-1.179,0.143-2.438,0.427l-1.219,0.304l-0.976-0.121l-2.255,0.426
		c-0.691,0.121-1.199,0.273-1.524,0.456s-0.731,0.274-1.219,0.274l-1.645,0.852c-0.082,0.082-0.205,0.122-0.366,0.122
		c-0.325,0-0.529-0.04-0.609-0.122l-0.854-0.243c-0.325,0.082-0.619,0.224-0.883,0.426c-0.265,0.203-0.519,0.305-0.762,0.305
		l-0.732-0.609l-1.158,0.975c-0.488,0.081-1.138,0.264-1.95,0.547c-0.529-0.283-0.874-0.426-1.037-0.426l-2.133,0.913l-1.22-0.365
		l-0.122,0.365c-0.569,0-1.148,0.203-1.737,0.608c-0.59,0.406-1.087,0.608-1.493,0.608c-0.285,0-0.589-0.161-0.915-0.486
		c-0.163,0-0.325-0.081-0.488-0.243c-0.407,0.284-0.711,0.578-0.915,0.882c-0.204,0.305-0.65,0.6-1.341,0.883l-1.462-0.426
		c0,0.121-0.386,0.334-1.158,0.639c-0.772,0.305-1.179,0.559-1.219,0.761l-0.609,0.852c-0.286,0.69-0.509,1.259-0.671,1.704
		c-0.163,0.447-0.366,0.802-0.61,1.065c-0.243,0.265-0.467,0.721-0.67,1.369c-0.203,0.649-0.568,1.36-1.096,2.13l-0.123,0.73
		c-0.244,0.325-0.61,0.69-1.098,1.096l-1.401,2.617c-0.406,0.608-0.609,1.034-0.609,1.277c0,0.609,0.548,1.197,1.645,1.766
		l6.456,5.478l1.036,0.608h0.122l-0.243,1.096c0.324,0.203,0.528,0.304,0.609,0.304c0.244,0,0.365-0.183,0.365-0.548h0.365
		c0.081,0,0.284,0.183,0.609,0.548l0.669,0.365c0.284,0.284,0.812,0.751,1.584,1.399c0.771,0.649,1.157,1.096,1.157,1.339
		l-0.123,0.487h0.366c0.162-0.162,0.284-0.243,0.365-0.243c0.162,0,0.609,0.243,1.34,0.73l0.792,0.365
		c1.625,1.177,2.608,1.968,2.954,2.373c0.345,0.406,0.853,0.862,1.522,1.369c0.669,0.508,1.208,1.086,1.615,1.734l7.004,5.234
		c5.847,4.382,9.136,7.303,9.867,8.764c0.162,0.243,0.548,0.486,1.157,0.73c0.608,0.243,1.481,0.922,2.619,2.038
		s1.828,1.979,2.071,2.587v2.13c0,0.162-0.204,0.365-0.608,0.608l-0.792,0.73c-1.055,1.096-1.967,1.644-2.738,1.644
		c-1.907,0-3.307-0.426-4.199-1.278l-0.304-0.121h-0.607c-0.65,0-1.015-0.569-1.096-1.704l-0.244-0.792
		c-2.029-0.649-3.57-1.684-4.624-3.104l-3.469-3.226c-0.082-0.082-0.751-0.862-2.008-2.343c-1.257-1.48-2.363-2.546-3.316-3.195
		c-0.954-0.648-1.704-1.318-2.251-2.008c-0.548-0.689-1.278-1.34-2.191-1.948c-0.913-0.608-1.876-1.633-2.89-3.073
		c-1.015-1.439-1.583-2.2-1.704-2.282c-1.826-0.974-2.698-2.048-2.616-3.226c-0.244-0.161-0.833-0.324-1.765-0.486
		c-0.487-0.527-0.791-0.812-0.913-0.853c-0.122-0.04-0.223-0.101-0.304-0.183l0.122-0.974c-1.217-0.365-2.068-0.821-2.555-1.369
		c-0.487-0.548-1.136-1.288-1.947-2.222c-0.812-0.933-1.512-1.652-2.1-2.16c-0.588-0.507-0.902-0.902-0.942-1.187
		c-0.041-0.284-0.426-0.629-1.156-1.035c-0.285,0.487-0.589,0.873-0.913,1.156c-0.325,0.284-0.568,0.608-0.73,0.974l-0.243,0.365
		c-0.569,0.569-0.852,1.197-0.852,1.887c-0.608,0.487-0.995,1.36-1.156,2.617l-2.738,6.208l-0.487,2.251l-0.363,3.835
		c-0.122,1.095-0.586,1.643-1.392,1.643l-1.21,0.122c-0.324-0.162-1.08-0.314-2.27-0.457c-1.19-0.142-2.17-1.328-2.937-3.56
		c-0.081-0.244-0.314-0.648-0.698-1.218c-0.384-0.567-0.577-1.074-0.577-1.521c0-0.324,0.122-0.852,0.365-1.582l0.244-1.399
		c0-0.244,0.507-1.4,1.521-3.47l3.223-6.146l1.581-2.373c0.202-0.324,0.425-0.943,0.668-1.856c0.243-0.913,0.618-1.674,1.125-2.282
		s0.761-1.055,0.761-1.339c0-0.487-0.376-0.974-1.125-1.461c-0.75-0.486-1.166-0.953-1.247-1.399l-0.244-0.608
		c-2.149-1.258-3.223-2.679-3.223-4.261c0-0.852,1.074-1.917,3.223-3.195c2.148-1.277,3.597-1.998,4.348-2.16
		c0.75-0.162,1.489-0.446,2.219-0.853l1.034-0.243l0.851-0.73c0.487-0.161,1.085-0.313,1.794-0.456
		c0.709-0.142,1.317-0.974,1.824-2.495c0.506-1.521,0.962-2.404,1.368-2.647c0.81-1.663,1.357-2.921,1.641-3.773
		c0.081-0.161,0.314-0.537,0.698-1.126c0.384-0.588,0.778-1.562,1.183-2.921c0.405-1.359,0.688-2.039,0.85-2.039
		s0.485-0.081,0.971-0.243l-0.606-1.644c0-0.161,0.162-0.405,0.485-0.73c-0.567-0.689-0.849-1.521-0.849-2.495
		c0-1.582,1.112-2.373,3.337-2.373c0.404,0,1.213,0.355,2.429,1.064c1.214,0.711,1.862,1.228,1.944,1.552
		c0.081,0.325,0.344,0.843,0.791,1.553c0.446,0.71,0.669,1.309,0.669,1.795c0,1.582-0.264,2.617-0.791,3.104
		c-0.528,0.487-1.076,1.563-1.643,3.226l-1.643,4.626l-0.244,1.156l-0.304,0.486l1.521-0.365c0.324-0.892,1.706-1.399,4.146-1.521
		l3.842-1.217h1.159l3.72-1.034c0.163,0,0.752-0.081,1.769-0.244h0.366l0.732-0.121c0.162,0.081,0.324,0.243,0.488,0.486h0.244
		c0.447,0,0.691-0.264,0.732-0.791c0.04-0.526,0.63-0.791,1.769-0.791c0.162,0,0.313,0.102,0.456,0.304
		c0.143,0.204,0.295,0.305,0.458,0.305c0.081-0.446,0.396-0.761,0.945-0.943c0.549-0.183,0.945-0.273,1.189-0.273l0.976,0.121
		c-0.082-0.08-0.123-0.202-0.123-0.365c0-0.365,1.24-0.75,3.721-1.156c0.69-0.243,1.239-0.548,1.646-0.912
		c0.407-0.365,1.688-0.893,3.843-1.583l3.659-1.096c1.504-0.486,2.541-1.947,3.11-4.382c-0.082-0.08-0.447-0.628-1.095-1.643
		c0-0.081-0.305-0.122-0.913-0.122c-0.163-0.161-0.447-0.354-0.852-0.578c-0.406-0.223-0.873-0.598-1.4-1.126l-0.73,0.243
		c-0.569-0.324-1.228-0.578-1.978-0.761c-0.751-0.183-1.552-0.598-2.404-1.247c-0.325,0.162-0.527,0.243-0.608,0.243
		c-0.082,0-0.528-0.202-1.339-0.608l-1.643-0.73h-0.974l-0.426-0.122c-0.244-0.283-0.447-0.426-0.608-0.426l-0.609,0.122
		c-0.163,0.082-0.365,0.121-0.608,0.121h-1.035c-0.082,0-0.406-0.202-0.974-0.608h-2.008l-1.096,0.244
		c-0.163,0-0.426-0.162-0.791-0.487l-1.096,0.243l-1.095-0.486l-1.644,0.243c-0.325-0.243-0.568-0.365-0.73-0.365l-4.869,0.487
		c-0.163,0-0.304-0.081-0.426-0.244c-0.122-0.161-0.315-0.283-0.578-0.365c-0.264-0.08-0.558-0.243-0.882-0.486
		c-0.852,0.486-1.684,0.73-2.496,0.73l-1.886-0.244l-0.365,0.122h-0.244c-0.082,0-0.447-0.081-1.095-0.243
		c0,0.162-0.041,0.284-0.122,0.365l-0.913-0.244l-3.347,0.609h-0.122l-0.608-0.122c-0.163,0-0.396,0.061-0.7,0.183
		c-0.304,0.122-0.538,0.183-0.7,0.183l-1.339-0.122l-1.035,0.244l-1.46-0.122l-1.278,0.913h-0.243c-0.163,0-0.345-0.07-0.548-0.213
		c-0.204-0.142-0.345-0.214-0.426-0.214l-0.913,0.183l-0.73-0.183c-0.163,0-0.487,0.387-0.974,1.157
		c0,0.081-0.082,0.121-0.244,0.121h-0.122l-0.913-0.243c-0.163,0-0.487,0.284-0.974,0.852c-0.771,0.285-1.521,0.589-2.251,0.913
		c-0.569,0.813-1.056,1.299-1.461,1.461L112.78,51.263z M116.819,80.05h-1.521c-0.243,0-0.68,0.233-1.308,0.7
		c-0.63,0.467-0.943,0.781-0.943,0.942c0,0.163,0.476,0.619,1.43,1.37c0.953,0.751,1.552,1.126,1.795,1.126
		c0.73,0,1.602-1.663,2.617-4.991l-0.608,0.244l-0.73-0.122C117.063,79.726,116.819,79.969,116.819,80.05z"/>
	<path fill="#F9A01B" d="M214.108,100.012l0.971-0.853c0.607,0,0.97-0.273,1.092-0.821s0.556-0.983,1.305-1.309
		c0.749-0.324,1.446-0.983,2.094-1.978c0.646-0.994,1.314-1.491,2.001-1.491c0.243,0,0.526,0.203,0.849,0.608
		c0.323,0.406,0.486,0.73,0.486,0.974c0,1.339-0.406,2.719-1.217,4.139l-0.242,1.704l-0.426,0.791
		c-0.608,0.325-1.004,0.67-1.187,1.035c-0.183,0.364-0.659,0.812-1.429,1.339l-0.609,0.852c-0.893,0.284-1.491,0.751-1.795,1.399
		c-0.305,0.649-0.729,1.015-1.277,1.096c-0.548,0.082-1.146,0.487-1.794,1.218c-0.406,0.203-0.893,0.386-1.46,0.547l-0.122,0.609
		c-0.406,0.405-1.045,0.73-1.917,0.974s-1.521,0.478-1.946,0.699c-0.426,0.224-0.72,0.335-0.882,0.335
		c-0.771,0-1.481-0.152-2.13-0.456c-0.648-0.305-1.318-0.496-2.007-0.578c-0.244-0.243-0.386-0.507-0.426-0.791
		c-0.041-0.284-0.243-0.659-0.608-1.126c-0.365-0.466-0.547-1.105-0.547-1.917l0.244-1.156c0-0.162-0.102-0.365-0.304-0.609
		c-0.204-0.243-0.305-0.445-0.305-0.608c0-0.161,0.04-0.283,0.122-0.365c0.081-0.081,0.122-0.202,0.122-0.365
		c0-0.202-0.041-0.426-0.122-0.669c-0.082-0.243-0.122-0.446-0.122-0.608l0.365-2.982c0-0.243-0.082-0.365-0.243-0.365
		c-0.163,0-0.457,0.203-0.883,0.608c-0.426,0.406-0.923,0.608-1.491,0.608c-0.325,0.244-0.589,0.752-0.792,1.521
		c-0.325,0.406-0.73,0.771-1.217,1.096l-0.244,0.365c-0.082,0.284-0.386,0.518-0.913,0.7c-0.527,0.183-0.893,0.416-1.095,0.699
		l-0.609,0.609l-1.156-0.122c-0.082,0.082-0.305,0.437-0.67,1.065s-0.832,1.146-1.399,1.552l-4.626,3.773
		c-0.487,0.325-1.197,0.729-2.13,1.217l-0.365,0.365c-3.247,2.151-5.539,3.226-6.878,3.226c-1.096,0-2.374-0.305-3.835-0.913
		c-1.46-0.608-2.251-1.339-2.374-2.19l-0.608-2.496c-0.365-0.567-0.548-1.358-0.548-2.373c0-0.487,0.04-0.812,0.122-0.974v-0.365
		l-0.122-2.009c0-0.486,0.385-0.729,1.156-0.729l-0.122-1.644c0-0.162,0.354-0.801,1.065-1.917c0.709-1.115,1.187-1.755,1.43-1.917
		l0.609-0.791c-0.041-0.487,0.243-1.005,0.853-1.553c0.608-0.548,1.096-1.104,1.462-1.673c0.365-0.568,1.056-1.196,2.072-1.887
		l1.828-1.826c1.422-1.42,2.965-2.556,4.631-3.408c0.243-0.081,0.741-0.486,1.492-1.217c0.751-0.73,1.605-1.268,2.56-1.613
		c0.955-0.344,1.889-0.78,2.802-1.309c0.914-0.526,1.636-0.791,2.165-0.791h0.487c0.162,0,1.238-0.507,3.229-1.521h0.366
		c0.162,0,0.547,0.163,1.157,0.487h0.122l0.976-0.487c0.162-0.081,0.365-0.121,0.608-0.121c2.518,0,3.9,1.744,4.145,5.233
		c0.081,0.73,0.284,1.096,0.609,1.096c0.405,0,0.984-0.74,1.735-2.222c0.751-1.48,2.345-2.222,4.78-2.222
		c1.744,0,2.617,1.117,2.617,3.348c0,2.638-1.177,5.133-3.53,7.485c-0.163,0.325-0.285,0.69-0.365,1.096l-0.852,2.495v0.122
		c0,0.243-0.173,0.578-0.518,1.004c-0.345,0.427-0.517,0.802-0.517,1.126l0.122,1.521l-0.243,1.704c0,0.771,0.142,1.278,0.425,1.521
		c1.294-0.324,2.235-0.861,2.822-1.612c0.586-0.751,1.001-1.166,1.244-1.248l0.606-0.243
		C213.198,100.925,213.624,100.418,214.108,100.012z M193.899,100.012c0.163-0.893,0.66-1.572,1.492-2.039
		c0.831-0.466,1.329-0.943,1.491-1.43c0.77-0.568,1.876-1.583,3.317-3.043c1.44-1.461,2.162-2.353,2.162-2.679
		c0-0.121-0.082-0.182-0.244-0.182h-0.122l-0.487,0.304l-1.096-0.122l-1.157,0.122l-0.852-0.426l-0.791,0.122l-1.217-0.244
		c-0.649,0-1.208,0.133-1.674,0.396c-0.467,0.265-1.36,0.559-2.679,0.883c-1.319,0.325-2.505,0.883-3.561,1.674
		s-1.826,1.187-2.313,1.187c-0.284,0.608-1.238,1.481-2.86,2.617c-0.975,0.325-1.604,1.034-1.887,2.13
		c-1.056,0.852-1.583,1.339-1.583,1.461l-0.426,1.034c-0.325,0.284-0.73,0.518-1.217,0.7s-0.771,0.608-0.852,1.278
		c-0.082,0.669-0.356,1.277-0.822,1.825c-0.467,0.548-0.7,0.984-0.7,1.309c0,1.988,0.385,2.982,1.156,2.982
		c0.324,0,1.004-0.213,2.039-0.64c1.035-0.426,1.633-0.72,1.795-0.882c0.162-0.162,0.487-0.324,0.974-0.487l1.158-0.608
		c0.162-0.162,0.344-0.264,0.547-0.305c0.203-0.04,0.405-0.172,0.609-0.396c0.203-0.223,0.567-0.466,1.095-0.73
		c0.527-0.263,0.933-0.618,1.217-1.064c0.689-0.405,1.806-1.035,3.348-1.887l1.278-0.974c0.892-0.405,1.439-0.751,1.643-1.035
		C192.885,100.58,193.291,100.296,193.899,100.012z"/>
	<path fill="#F9A01B" d="M222.976,93.561l0.489-0.67c1.06-0.243,1.732-0.648,2.017-1.217c0.122-0.283,1.141-1.339,3.056-3.165
		c1.915-1.825,2.976-2.799,3.179-2.921c1.293-2.353,2.082-4.117,2.365-5.295c0.485-0.243,0.728-0.526,0.728-0.852l0.486-0.974
		l0.546-0.122l0.242-0.243v-0.548c0-0.73,0.789-2.435,2.365-5.112c1.581-3.286,2.432-5.102,2.553-5.447
		c0.122-0.344,0.365-0.852,0.73-1.521c0.365-0.669,0.922-1.957,1.673-3.864c0.75-1.907,1.917-3.896,3.5-5.964
		c0.162-0.081,0.405-0.538,0.73-1.37c0.324-0.831,0.831-1.652,1.521-2.465l0.73-1.277c0.244-0.405,0.669-1.116,1.278-2.131
		c0.608-1.014,1.166-1.814,1.673-2.403c0.507-0.588,0.892-1.207,1.157-1.856c0.263-0.648,0.578-1.115,0.943-1.399
		c0.365-0.284,0.74-0.801,1.125-1.553c0.385-0.75,0.983-1.125,1.795-1.125c1.583,0,2.729,0.649,3.438,1.947
		c0.709,1.299,1.065,2.435,1.065,3.408c0,0.121-0.244,0.994-0.73,2.617l-0.913,5.477c-0.812,0.406-1.217,0.873-1.217,1.4
		c0,2.15-0.833,4.382-2.496,6.694c-0.163,0.162-0.294,0.69-0.396,1.582c-0.102,0.894-0.457,1.623-1.065,2.191
		s-1.156,1.521-1.643,2.86l-5.66,8.094l-0.487,0.487c-0.244,0.162-0.528,0.508-0.852,1.034l-0.974-0.304
		c-1.096,0-1.644,0.345-1.644,1.034c0,0.243,0.081,0.568,0.244,0.974v0.122c0,0.041-1.501,2.171-4.503,6.391
		c-0.163,0.243-0.447,1.034-0.852,2.373l-0.852,1.826c-0.852,1.177-1.451,2.322-1.795,3.438c-0.345,1.116-0.802,2.019-1.37,2.708
		c-0.812,1.826-1.217,2.779-1.217,2.86c0,0.243,0.122,0.365,0.365,0.365c0.243,0,0.821-0.608,1.734-1.826
		c0.913-1.217,1.663-2.028,2.251-2.435c0.588-0.404,1.085-0.974,1.492-1.703l0.609-0.427c0.163-0.08,0.508-0.324,1.037-0.73
		l0.61,0.122c0.325-0.243,0.527-0.526,0.609-0.852c0.081-0.324,0.203-0.568,0.366-0.73c1.056-0.122,1.716-0.507,1.98-1.156
		c0.265-0.648,0.579-0.974,0.945-0.974c0.325,0,0.751-0.375,1.28-1.126c0.529-0.751,1.271-1.359,2.226-1.826
		c0.955-0.466,1.666-0.883,2.134-1.248c0.467-0.364,1.412-0.8,2.834-1.308c1.423-0.507,2.377-0.761,2.865-0.761h0.365l0.488,0.121
		l0.915-0.121c1.422,0,2.843,0.396,4.264,1.187c1.421,0.791,2.029,2.019,1.827,3.682l-0.487,3.773l-0.669,2.982
		c-0.082,0.486-0.406,1.563-0.974,3.226c-0.569,1.664-0.852,2.616-0.852,2.86l-0.244,1.156l0.243,1.582l-0.121,1.278
		c0,0.406,0.202,0.608,0.605,0.608c0.162,0,0.607-0.365,1.335-1.096c0.444,0.082,0.868-0.161,1.273-0.73
		c0.404-0.567,0.95-1.156,1.639-1.765c0-0.161,0.262-0.313,0.788-0.456c0.525-0.142,1.253-0.618,2.184-1.431
		c0.162-0.365,0.95-1.146,2.366-2.343c1.415-1.196,2.77-2.12,4.064-2.77l0.364-0.486c0.687-0.689,1.313-1.035,1.88-1.035
		c0.566,0,0.849,0.305,0.849,0.913c0,0.406-0.102,0.832-0.304,1.278c-0.203,0.447-0.344,1.025-0.425,1.734
		c-0.082,0.71-0.487,1.734-1.215,3.073l-0.243,0.608c-0.284,0.69-0.628,1.096-1.033,1.218c-0.405,0.121-0.841,0.456-1.307,1.004
		s-1.428,1.065-2.887,1.552c-0.648,1.218-1.155,1.826-1.52,1.826l-1.093-0.487c-0.851,0.69-1.276,1.4-1.276,2.13
		c-1.054,0.894-1.682,1.482-1.884,1.766l-1.216-0.122c-0.324,0-0.486,0.447-0.486,1.339c0,0.082-0.416,0.355-1.246,0.821
		c-0.831,0.468-1.469,0.883-1.915,1.248c-0.446,0.365-1.397,0.548-2.856,0.548c-0.163,0-0.406-0.142-0.729-0.426
		c-0.324-0.284-0.8-0.527-1.428-0.73c-0.627-0.203-1.063-0.679-1.307-1.431c-0.243-0.75-0.507-1.339-0.79-1.765
		c-0.284-0.426-0.426-0.761-0.426-1.004l0.122-1.218l-0.304-1.277l0.547-0.853c-0.243-0.567-0.365-0.953-0.365-1.156l0.608-3.712
		c0.446-2.679,0.811-4.422,1.095-5.234c0.081-0.081,0.122-0.324,0.122-0.73l-0.122-1.521l0.122-0.852
		c0-0.609-0.204-0.934-0.609-0.974c-0.406-0.04-0.649-0.143-0.73-0.305c-0.529-0.243-0.833-0.365-0.914-0.365
		c-0.325,0-0.61,0.254-0.854,0.761c-0.243,0.508-0.568,0.964-0.974,1.369l-1.523-0.243v0.122c0,0.325-0.549,0.953-1.645,1.887
		c-1.016,0.243-1.889,0.771-2.62,1.582c-0.325,0-0.884,0.314-1.676,0.943s-1.31,0.984-1.553,1.064l-0.488,0.975l-0.975,0.304
		c-0.285,0.813-0.955,1.339-2.01,1.582l-0.61,1.157c-0.853,0.081-1.441,0.517-1.767,1.308c-0.325,0.792-0.569,1.188-0.73,1.188
		c-0.082,0-0.214-0.051-0.396-0.152c-0.183-0.101-0.355-0.152-0.518-0.152c-0.894,0-1.381,0.67-1.462,2.009
		c0,0.162-0.833,1.116-2.498,2.86c-1.666,1.745-2.559,2.638-2.681,2.678c-0.122,0.041-0.355,0.456-0.701,1.247
		s-0.823,1.38-1.431,1.766c-0.61,0.386-1.067,0.699-1.371,0.943c-0.305,0.243-0.539,0.364-0.701,0.364
		c-0.853,0-1.543-0.608-2.071-1.825c-0.529-1.218-0.792-1.846-0.792-1.887l0.366-1.278l-0.122-1.096
		c0-0.039,0.253-0.861,0.761-2.464s1.086-2.861,1.736-3.773c0.649-0.913,1.157-2.404,1.523-4.474
		c-1.828,1.218-2.925,1.826-3.291,1.826c-0.812,0-1.218-0.527-1.218-1.583C221.081,96.847,221.712,95.103,222.976,93.561z"/>
	<path fill="#F9A01B" d="M280.922,91.065l0.856,0.365c0.082-0.689,0.469-1.278,1.162-1.766h0.489c0.407,0,0.937-0.547,1.589-1.643
		l1.04-0.608c0.163,0.081,0.407,0.121,0.734,0.121c0.244,0,0.478-0.161,0.702-0.486c0.225-0.324,0.785-0.953,1.683-1.887h0.244
		c0.245,0,0.54-0.183,0.886-0.548s0.805-0.548,1.375-0.548l2.079-0.548c0.649-0.161,1.015-0.243,1.096-0.243
		c0.365-0.122,1.257,0.619,2.678,2.221c1.42,1.604,2.13,3.155,2.13,4.656c0,0.852-0.447,1.359-1.339,1.521l-0.304,0.243v1.218
		l-1.035,2.251c-0.284,0.609-0.629,0.995-1.034,1.157c-0.365,0.649-0.63,1.095-0.792,1.339l-0.852,0.121l-0.365,0.365v1.521
		c-0.365,0.487-0.893,1.552-1.582,3.195c-0.69,1.644-1.035,2.688-1.035,3.134c0,0.771,0.162,1.157,0.487,1.157
		c0.244,0,0.487-0.102,0.73-0.305c0.243-0.202,0.578-0.436,1.004-0.7c0.426-0.263,0.74-0.537,0.942-0.821
		c0.203-0.283,0.629-0.537,1.277-0.761c0.648-0.223,1.257-0.639,1.825-1.248c0.568-0.608,0.973-1.014,1.216-1.217
		c0.243-0.202,0.507-0.477,0.791-0.821c0.283-0.345,0.466-0.518,0.547-0.518c0.244,0,0.628-0.081,1.156-0.243
		c0.08-0.446,0.161-0.771,0.243-0.974l1.459-0.73l3.528-3.165l0.486-0.608c0.648-0.162,1.054-0.283,1.216-0.365
		c0.325-1.096,0.872-1.887,1.643-2.374c0-0.161,0.203-0.283,0.608-0.364c0.323-0.649,0.739-1.166,1.246-1.553
		c0.507-0.385,0.922-0.861,1.248-1.43l1.399-1.156c0.405-0.162,0.689-0.405,0.851-0.73c2.108-1.866,3.416-2.931,3.923-3.195
		c0.507-0.264,1.328-0.396,2.464-0.396c1.134,0,2.057,0.437,2.766,1.309c0.709,0.873,1.48,1.532,2.313,1.978
		c0.831,0.447,1.248,1.299,1.248,2.557c0,1.177-0.913,3.429-2.738,6.755c-1.177,3.49-1.786,5.63-1.826,6.421
		c-0.041,0.791-0.223,1.248-0.547,1.369c-0.325,0.122-0.487,0.265-0.487,0.427v0.243c0,0.974,0.162,1.46,0.487,1.46
		c0.243,0,0.578-0.202,1.004-0.608c0.426-0.405,1.287-0.852,2.583-1.339l0.546,0.122c1.171-1.785,1.959-2.748,2.365-2.891
		c0.404-0.142,0.808-0.507,1.212-1.096c0.404-0.588,0.899-0.902,1.486-0.943c0.586-0.04,0.96-0.142,1.122-0.305
		c0.04-0.974,0.838-2.069,2.395-3.286s2.456-1.826,2.7-1.826c0.404,0,0.728,0.305,0.97,0.913c0.243,0.608,0.496,1.025,0.758,1.248
		c0.263,0.224,0.395,0.416,0.395,0.578v1.096c0,0.527-0.264,0.873-0.79,1.034c-0.405,0.893-0.77,1.421-1.093,1.582l-1.093-0.121
		c-0.204,0.243-0.375,0.467-0.518,0.669c-0.142,0.204-0.233,0.284-0.273,0.244c-0.323,0.081-0.9,0.618-1.73,1.612
		c-0.83,0.995-1.569,1.816-2.217,2.465l-0.242,0.365c-0.324,0.243-0.628,0.406-0.911,0.486l-1.094,0.913
		c-0.405-0.243-0.647-0.365-0.728-0.365c-0.082,0-0.254,0.163-0.517,0.487c-0.263,0.325-0.79,0.74-1.58,1.247
		c-0.789,0.508-1.386,1.086-1.791,1.735l-0.972,0.974l-1.275,0.183c-0.122,0-0.324,0.183-0.607,0.548l-1.093,1.399
		c-0.527,0.69-1.357,1.034-2.49,1.034c-0.244,0-0.558-0.213-0.941-0.639c-0.384-0.426-0.749-0.791-1.093-1.096
		c-0.344-0.304-1.115-1.217-2.311-2.738c-1.196-1.521-1.793-2.322-1.793-2.404l0.365-2.13l-0.122-1.461
		c0-0.283,0.192-0.72,0.578-1.309c0.385-0.587,0.578-0.902,0.578-0.943l-0.122-2.373c0.081-0.081,0.162-0.202,0.244-0.365
		l0.852-1.399c-0.082-0.405-0.122-0.853-0.122-1.339l0.244-2.009c-0.73,0.325-1.371,0.984-1.918,1.978
		c-0.548,0.995-1.269,1.491-2.161,1.491c-0.772,1.38-1.361,2.05-1.766,2.009c-0.163,0.162-0.284,0.325-0.365,0.486l-0.852,0.487
		l-1.035-0.122l-0.366,1.521c-0.893,0.487-1.471,0.924-1.734,1.309c-0.265,0.387-0.68,0.782-1.248,1.188l-1.036,0.974h-0.974
		c-0.163,1.095-0.792,2.008-1.888,2.738l-0.487,0.608l-1.096-0.121c-0.406,1.299-0.914,2.09-1.522,2.373
		c-0.69,0-1.634,0.63-2.831,1.887c-1.197,1.258-2.039,1.887-2.525,1.887c-3.532,0-6.392-2.211-8.583-6.634
		c-0.082-0.162-0.274-0.466-0.578-0.913c-0.305-0.445-0.457-1.135-0.457-2.069c0-1.582,0.213-2.656,0.639-3.226
		c0.426-0.567,0.974-1.633,1.643-3.194s1.166-2.242,1.491-2.039c0.081-0.162,0.122-0.405,0.122-0.73
		c0.648-0.771,0.974-1.358,0.974-1.765c0-0.162-0.082-0.244-0.244-0.244c-0.082,0-0.325,0.122-0.73,0.365l-0.856,0.365
		c-0.367,0.082-0.632,0.244-0.795,0.487c-0.164,0.243-0.449,0.478-0.857,0.7c-0.408,0.223-0.734,0.416-0.978,0.578h-0.184
		c-0.245-0.244-0.408-0.365-0.49-0.365c-0.245,0.649-0.449,1.056-0.611,1.217l-0.734,0.122c-0.898,0.934-1.468,1.399-1.713,1.399
		c-0.164,0-0.531-0.142-1.101-0.426c-0.571-0.283-0.856-0.568-0.856-0.853l0.428-2.373v-1.096c0-0.081,0.163-0.243,0.489-0.486
		c0.082,0,0.408-0.436,0.979-1.309C279.476,91.502,280.148,91.065,280.922,91.065z"/>
	<path fill="#F9A01B" d="M343.246,101.29v-0.427c0-0.567,0.04-1.014,0.122-1.339c-0.244-0.648-0.365-1.237-0.365-1.765
		c0-0.081,0.203-0.648,0.608-1.704l0.548-1.887c0.284-0.73,0.446-1.115,0.487-1.156c-0.243-0.648-0.365-1.014-0.365-1.096
		c0-0.933,0.263-1.704,0.79-2.313s0.974-1.461,1.339-2.556l1.216-3.713l2.006-4.868c0.04-0.122,0.233-0.446,0.577-0.975
		c0.344-0.526,0.628-0.982,0.852-1.369c0.223-0.385,0.537-0.943,0.943-1.674l0.608-0.121c0.162-0.162,0.244-0.324,0.244-0.487
		c0-0.081-0.082-0.405-0.244-0.974l2.13-3.529l1.278-2.617c0.405-0.689,0.852-1.136,1.339-1.339c0.812-1.501,1.521-2.414,2.13-2.739
		c0.243-0.77,0.689-1.602,1.339-2.495l1.156-0.121c0.203-0.568,0.405-0.994,0.608-1.278l0.122-1.218
		c0,0.244,0.101,0.174,0.304-0.213c0.203-0.385,0.507-1.104,0.913-2.16l1.643-1.887l0.487-0.852
		c0.203-0.284,0.527-0.832,0.974-1.644c0.609-0.243,1.116-0.689,1.521-1.339l1.278-1.035c-0.082-0.445,0.405-1.439,1.46-2.981
		c0.689-0.283,1.318-0.648,1.887-1.096l0.852-0.243c0-1.42,0.507-2.394,1.521-2.922l0.73-0.486c0.649-0.324,1.014-0.487,1.096-0.487
		l0.426-0.121c0.487-0.162,1.055-0.244,1.704-0.244c1.501,0,2.86,0.559,4.078,1.674c1.217,1.116,1.826,2.384,1.826,3.804
		c0,0.568-0.304,1.156-0.913,1.765l-0.244,0.487c-0.568,2.231-0.974,3.348-1.217,3.348c-0.163,0-0.386,0.121-0.67,0.364
		c-0.082,1.34-0.163,2.091-0.243,2.252c-0.73,0.122-1.096,1.035-1.096,2.739c-0.082,0.243-0.375,0.659-0.882,1.247
		c-0.508,0.589-0.903,1.4-1.187,2.435c-0.285,1.035-0.589,1.552-0.913,1.552h-0.669l0.183,0.913c0,0.568-0.274,1.126-0.822,1.674
		c-0.547,0.548-0.882,1.126-1.004,1.734c-0.122,0.608-0.609,1.339-1.461,2.19l-0.608,0.975c-0.244,0.405-0.569,0.832-0.974,1.277
		c-0.406,0.447-0.751,1.137-1.035,2.069l-1.583,2.922c-1.095,1.988-1.927,2.941-2.495,2.86c-0.365,1.582-0.608,2.495-0.73,2.738
		c-0.122,0.243-0.406,0.467-0.852,0.67c-0.447,0.203-0.791,0.558-1.035,1.064c-0.243,0.508-0.508,0.883-0.791,1.126l-1.095,2.252
		c-0.65,0.284-1.117,0.812-1.4,1.582c-0.649,0.163-1.056,0.711-1.217,1.644c-0.163,0.162-0.365,0.527-0.608,1.096l-2.13,2.13
		c-1.095,0.771-1.684,1.653-1.765,2.647c-0.082,0.994-0.609,1.491-1.583,1.491c-0.69,0-1.704-0.305-3.043-0.913h-0.122
		c-0.122,0.568-0.406,1.197-0.852,1.887l0.243,1.643c0,0.204-0.325,1.481-0.974,3.835c0.324,0.608,0.487,1.034,0.487,1.277
		l-0.122,1.339l0.304,1.644c0.203,1.339,0.689,2.008,1.461,2.008l1.459,0.244c0.081,0,0.587-0.305,1.521-0.913l2.25-1.217
		c0.081,0,0.122,0.04,0.122,0.121c0.405,0.163,0.729,0.243,0.973,0.243c0.405,0,0.609-0.324,0.609-0.974v-0.791
		c0.243-0.405,0.537-0.648,0.881-0.73c0.344-0.08,0.659-0.263,0.943-0.548c0.283-0.283,0.507-0.426,0.668-0.426h0.608
		c0.608,0,0.912-0.709,0.912-2.13c0.162-0.081,0.365-0.243,0.609-0.487h0.729c0.324,0,0.679-0.396,1.064-1.187
		c0.385-0.791,0.659-1.268,0.821-1.43c0.729-0.081,1.236-0.203,1.521-0.365c1.297-2.353,2.291-3.53,2.98-3.53h0.365
		c0.688-0.648,1.064-1.227,1.125-1.734c0.061-0.507,0.264-0.842,0.608-1.004s0.659-0.365,0.943-0.608
		c0.283-0.244,0.466-0.365,0.548-0.365c0.607,0,0.912,0.224,0.912,0.669l-0.183,1.704l0.426,1.826c0,0.162-0.173,0.478-0.518,0.943
		c-0.344,0.467-0.516,0.984-0.516,1.552c0,1.177-0.204,1.806-0.609,1.887c-0.405,0.082-0.74,0.355-1.003,0.821
		c-0.265,0.467-0.7,0.893-1.309,1.278s-1.075,0.943-1.398,1.674l-1.035,0.243l-0.607,0.365c-0.487,1.258-1.004,2.029-1.552,2.313
		c-0.548,0.284-1.227,1.137-2.037,2.556c-0.122,0-0.183,0.041-0.183,0.122l-0.973-0.122c-0.365,0.65-0.73,1.035-1.096,1.157
		c-0.365,0.121-0.668,0.355-0.912,0.699c-0.244,0.346-0.679,0.64-1.308,0.883s-1.024,0.527-1.186,0.852
		c-0.163,0.325-0.406,0.508-0.73,0.548c-0.324,0.041-0.629,0.193-0.912,0.457s-0.527,0.396-0.729,0.396
		c-0.082,0-0.365-0.04-0.852-0.122h-0.242c-0.69,0.487-1.258,0.73-1.703,0.73c-0.528,0-0.913,0.082-1.156,0.243
		c-0.243-0.161-0.619-0.283-1.125-0.365c-0.507-0.08-1.085-0.283-1.734-0.608c-0.689,0.163-1.115,0.243-1.277,0.243
		c-0.689,0-1.562-0.679-2.615-2.038c-1.055-1.359-1.581-2.688-1.581-3.986c0-0.04-0.234-0.355-0.7-0.943
		c-0.467-0.588-0.7-1.227-0.7-1.917v-0.609l0.122-0.729v-1.156l0.122-0.365c0.609-0.081,0.913-0.162,0.913-0.244L343.246,101.29z
		 M355.595,85.162l1.278-0.73c0.162-0.648,0.689-1.431,1.583-2.343c0.892-0.913,1.521-1.37,1.887-1.37h0.487
		c0-0.283,0.061-0.567,0.183-0.852c0.122-0.283,0.183-0.67,0.183-1.156c0-0.243,0.547-0.913,1.643-2.009l0.487-1.096
		c0.365-1.054,1.278-1.926,2.739-2.616c0.568-1.177,0.994-1.766,1.278-1.766l0.487-0.121c0.162-0.608,0.487-1.156,0.974-1.644
		l0.243-0.365v-0.974c0-0.081,0.274-0.415,0.822-1.004c0.548-0.588,0.943-1.136,1.187-1.644c0.244-0.507,0.579-0.902,1.004-1.187
		c0.426-0.283,0.72-0.791,0.882-1.521l0.974-0.122c0-0.526,0.04-0.872,0.122-1.034l0.122-0.608c0.203-0.487,0.913-1.766,2.13-3.834
		l0.974-2.252c0-0.244,0.172-0.538,0.517-0.883c0.344-0.344,0.518-0.842,0.518-1.491l0.487-2.008c0-0.934-0.163-1.4-0.487-1.4
		c-0.406,0.284-0.782,0.487-1.126,0.608c-0.345,0.122-0.68,0.853-1.004,2.191c-1.217,0.284-1.917,0.862-2.1,1.734
		c-0.183,0.873-0.68,1.613-1.491,2.222l-0.426,0.73c-0.082,0.446-0.467,0.912-1.156,1.399c-0.69,0.487-1.339,1.319-1.948,2.495
		c-2.029,2.8-3.145,4.301-3.347,4.504l-0.608,0.73l-0.913-0.122c0.162,0.649,0.244,1.015,0.244,1.096
		c0,0.243-0.122,0.478-0.365,0.699c-0.244,0.224-0.426,0.498-0.548,0.822c-0.122,0.325-0.365,0.699-0.73,1.126
		c-0.365,0.426-0.7,1.116-1.004,2.069s-0.578,1.512-0.822,1.673l-0.852-0.121c-0.528,0.325-0.791,0.649-0.791,0.974l0.183,0.852
		c0,0.163-0.112,0.356-0.335,0.578c-0.223,0.224-0.437,0.66-0.639,1.309c-0.204,0.649-0.71,1.634-1.521,2.952
		c-0.813,1.318-1.451,2.719-1.917,4.199c-0.467,1.481-0.923,2.425-1.369,2.83c0.081,0.081,0.203,0.121,0.365,0.121
		C354.601,86.805,355.108,86.257,355.595,85.162z"/>
	<path fill="#F9A01B" d="M444.266,58.749l1.035-0.974c0.646-2.597,1.678-4.098,3.093-4.504l0.364-0.365
		c-0.485-0.486-0.729-0.913-0.729-1.278c0-0.161,0.081-0.445,0.243-0.852l0.243-1.217c0.08-0.446,0.383-1.166,0.909-2.161
		c0.525-0.993,0.89-2.647,1.092-4.96v-0.365c0-0.852-0.426-2.271-1.273-4.26v-0.244c0-0.729,0.252-1.47,0.758-2.221
		s1.001-1.126,1.486-1.126c3.073,0,4.902,0.558,5.49,1.674s1.125,1.917,1.612,2.403c1.095,0.771,1.643,2.354,1.643,4.747
		c0,1.502-0.294,2.506-0.882,3.013c-0.589,0.508-0.984,1.025-1.188,1.552c-0.203,0.528-0.517,1.025-0.942,1.491
		c-0.427,0.467-0.639,0.741-0.639,0.821l0.242,1.218c0,0.934-0.325,1.521-0.974,1.765v0.365h0.609c0.404,0,0.739-0.122,1.004-0.365
		s0.853-0.486,1.766-0.73c0.913-0.243,1.553-0.517,1.918-0.821s0.701-0.518,1.005-0.639c0.305-0.122,0.659-0.305,1.065-0.548
		l3.653-2.009c1.258-0.689,2.486-1.278,3.684-1.765c1.197-0.487,2.121-1.055,2.771-1.704l2.07-0.608l1.035,0.121
		c0.162,0,0.426-0.294,0.791-0.882s0.689-0.883,0.975-0.883l0.73,0.122c0.649-0.324,1.097-0.487,1.34-0.487l0.792-0.122l1.583-1.399
		l1.278-0.122c1.137-1.014,2.416-1.46,3.837-1.339c0.202-0.121,0.526-0.385,0.974-0.791c0.446-0.405,0.953-0.608,1.522-0.608
		c0.121,0,0.467-0.161,1.035-0.486l0.974-0.609c0.325-0.445,0.69-0.709,1.097-0.791l1.522-0.486
		c0.405-0.244,0.689-0.365,0.852-0.365l0.793,0.243c1.217-0.974,2.131-1.461,2.739-1.461c2.313,0,3.471,1.056,3.471,3.165
		c0,1.907-0.792,3.673-2.375,5.295l-3.715,2.252c-0.082,0.04-0.63,0.151-1.645,0.334c-1.016,0.183-3.005,1.025-5.969,2.526
		l-0.913-0.122c-0.406,0.406-0.813,0.608-1.219,0.608l-0.73-0.121c-0.853,0.405-1.554,0.669-2.102,0.791
		c-0.547,0.121-1.258,0.437-2.131,0.943c-0.873,0.508-1.868,0.903-2.984,1.187c-1.117,0.284-2.03,0.639-2.741,1.065
		c-0.71,0.426-1.269,0.639-1.675,0.639h-0.608c-0.325,0-1.746,0.568-4.263,1.704c-0.731,0.284-1.239,0.467-1.523,0.548
		s-1.015,0.325-2.191,0.73l-2.741,1.582c-0.162,0.041-0.954,0.426-2.375,1.156h-1.156c-0.123,0-0.854,0.447-2.193,1.339
		c-0.082,0-0.224,0.041-0.426,0.122h-0.122l-0.853-0.122c-0.163,0-0.458,0.193-0.884,0.578c-0.426,0.386-0.984,0.68-1.675,0.883
		c-0.689,0.203-1.096,0.486-1.218,0.852l-0.975,1.887c-0.365,0.649-0.721,1.065-1.066,1.248c-0.345,0.183-0.659,0.862-0.943,2.038
		l-3.469,7.121l-0.73,0.365c0.162,0.69,0.244,1.075,0.244,1.156c-0.163,0.243-0.417,0.761-0.761,1.552
		c-0.346,0.791-0.64,1.329-0.883,1.612c-0.243,0.285-0.608,1.015-1.096,2.191c3.367,2.11,5.193,3.104,5.478,2.982l0.243,0.243v0.365
		c0,0.406,0.253,0.7,0.761,0.883c0.508,0.182,0.903,0.375,1.188,0.578c0.283,0.203,0.934,0.304,1.949,0.304l1.461,1.461l0.731-0.122
		c0.324,0,0.802,0.213,1.432,0.64c0.629,0.426,1.319,0.801,2.071,1.125c0.751,0.326,1.299,0.63,1.644,0.913
		c0.346,0.284,0.903,0.528,1.676,0.73c0.771,0.204,1.157,0.365,1.157,0.487c0,0.73,0.975,1.217,2.924,1.46
		c1.219,0.609,1.909,1.096,2.071,1.461s0.559,0.649,1.188,0.853c0.63,0.203,1.29,0.527,1.98,0.974l1.584,0.608
		c0.161,0.162,0.305,0.386,0.426,0.669c0.122,0.285,0.649,0.559,1.583,0.822c0.935,0.264,1.483,0.578,1.646,0.943
		s0.487,0.71,0.975,1.034l1.097-0.243c2.03,1.015,3.289,1.765,3.776,2.252c0.243,0.081,0.7,0.223,1.371,0.426
		c0.669,0.203,1.127,0.497,1.37,0.883s0.73,0.699,1.462,0.943c2.11,0.649,3.37,2.354,3.776,5.111
		c-0.365,0.853-0.832,1.726-1.399,2.617c-0.813,0.325-1.38,0.578-1.704,0.761c-0.325,0.183-1.075,0.417-2.252,0.7l-0.486,0.426
		c0,0.082-0.082,0.122-0.244,0.122c-1.825,0-3.002-0.934-3.528-2.8c-0.082-0.243-0.284-0.487-0.608-0.73
		c-0.325,0.406-0.569,0.608-0.73,0.608c-0.487,0-0.995-0.172-1.521-0.517c-0.528-0.345-1.167-0.883-1.917-1.613
		c-0.752-0.73-1.664-1.439-2.739-2.13c-1.075-0.689-1.896-1.257-2.465-1.704c-1.663-1.704-3.976-3.205-6.937-4.504
		c-0.244-0.161-0.578-0.445-1.005-0.852c-0.426-0.405-1.471-1.024-3.134-1.856c-1.664-0.831-3.245-2.282-4.746-4.352l-0.487-0.243
		c-0.649-0.527-1.228-1.035-1.734-1.521c-0.508-0.487-1.207-0.812-2.1-0.974c-0.852-0.527-1.563-1.075-2.13-1.644
		c-4.26-2.839-6.715-4.422-7.363-4.747c0,1.908-0.284,2.86-0.852,2.86l-0.67-0.121c-0.162,0-0.405,0.629-0.73,1.886v0.853
		l-0.791,2.617c-0.486,1.785-1.136,2.738-1.947,2.86v0.913c-0.809,1.299-1.303,2.303-1.484,3.012
		c-0.182,0.711-0.475,1.502-0.878,2.374c-0.404,0.873-0.768,1.938-1.091,3.195s-1.07,3.246-2.241,5.964v0.122l0.365,1.034v0.487
		c0,0.325-0.163,0.953-0.489,1.887c0.406,0.812,0.611,1.258,0.611,1.339c0,0.243-0.103,0.578-0.307,1.004
		c-0.203,0.426-0.388,0.821-0.553,1.187c-0.166,0.365-0.93,0.771-2.289,1.218c-0.244-0.122-0.63-0.427-1.156-0.913
		c-1.421-0.162-2.456-0.831-3.104-2.009c0-0.081-0.143-0.405-0.426-0.974c-0.284-0.567-0.426-1.115-0.426-1.644
		c0-0.08-0.143-0.557-0.426-1.43c-0.284-0.872-0.426-1.511-0.426-1.917c0-2.435,0.608-4.544,1.826-6.329l0.122-0.792
		c0.122-0.445,0.385-1.074,0.792-1.886l0.852-1.826l0.122-0.853c0.081-0.608,0.274-1.125,0.578-1.552
		c0.305-0.426,0.861-1.53,1.674-3.316l0.486-0.791c0.446-1.014,0.72-1.583,0.822-1.704c0.101-0.122,0.151-0.283,0.151-0.487
		l0.122-0.669c0.283-0.244,0.426-0.527,0.426-0.853c0.162-0.081,0.446-0.283,0.853-0.608c0.365-1.136,0.872-2.394,1.521-3.773
		l1.887-4.139c0.121-0.202,0.183-0.344,0.183-0.426c0-0.283-3.055-2.576-9.162-6.877c-0.684-0.487-1.025-1.156-1.025-2.009
		c0-1.339,1.379-2.656,4.137-3.955c0.243-0.081,1.115-0.609,2.615-1.583c1.501-0.974,2.576-1.46,3.225-1.46
		c0.244,0,1.329-0.558,3.256-1.674c1.926-1.115,2.971-1.694,3.133-1.734s0.305-0.122,0.426-0.244
		c0.122-0.121,0.436-0.283,0.942-0.486s1.166-0.527,1.978-0.974C443.859,59.033,444.266,58.79,444.266,58.749z M434.704,75.851
		l0.726,0.365h0.241c0.362,0,1.229-1.866,2.6-5.6l1.887-4.503l-0.73-0.122c-0.204,0-0.467,0.203-0.791,0.608
		c-3.831,1.461-6.168,2.536-7.015,3.226l-0.544,0.305c-0.886,0.405-1.329,1.136-1.329,2.19
		C431.117,73.7,432.77,74.877,434.704,75.851z"/>
	<path fill="#F9A01B" d="M500.549,86.196l0.913-0.243l0.365-0.791c1.987-1.177,3.407-2.292,4.261-3.348
		c0.081-0.161,0.264-0.324,0.548-0.486c0.283-0.162,0.588-0.446,0.913-0.853c1.5-1.5,3.286-2.252,5.355-2.252
		c2.435,0,3.732,1.481,3.895,4.443l0.365,0.912c0.324,0.569,0.781,1.726,1.369,3.47s0.883,2.82,0.883,3.226
		c0,1.095-0.345,2.19-1.034,3.286c-0.569,0.284-1.928,1.806-4.078,4.564l-0.608,0.426c-0.325,0.73-0.751,1.461-1.278,2.191
		c-0.812,0.284-1.217,0.588-1.217,0.912v1.096c0,0.082-0.092,0.244-0.274,0.487s-0.437,0.71-0.761,1.399l-0.486,0.73
		c-0.163,0.162-0.325,0.497-0.487,1.004c-0.162,0.508-0.396,0.965-0.699,1.369c-0.305,0.406-0.457,0.73-0.457,0.975
		c0,0.608,0.791,0.912,2.374,0.912c0.08,0,0.385-0.121,0.912-0.365l0.853,0.244c0.081,0,0.283-0.132,0.608-0.396
		c0.324-0.264,0.821-0.477,1.491-0.64c0.669-0.161,1.257-0.405,1.765-0.73c0.507-0.324,1.115-0.608,1.825-0.852
		c0.709-0.243,1.389-0.639,2.039-1.187c0.648-0.548,1.287-0.943,1.917-1.187c0.628-0.244,1.217-0.618,1.765-1.126
		c0.548-0.507,1.166-0.983,1.856-1.431c0.689-0.446,1.784-1.42,3.286-2.921c0.973-0.771,1.643-1.196,2.008-1.278
		c0.08,0,0.436-0.537,1.064-1.613c0.629-1.074,1.349-1.612,2.161-1.612c0.852,0,1.277,0.406,1.277,1.217
		c0,0.447-0.203,0.873-0.608,1.278v0.365l0.122,0.974c0.08,0.122,0.121,0.305,0.121,0.548c0,0.163-0.151,0.406-0.456,0.73
		c-0.305,0.325-0.518,0.74-0.639,1.247c-0.122,0.508-0.507,0.843-1.156,1.005c-0.243,0.893-0.558,1.399-0.943,1.521
		c-0.386,0.121-0.923,0.527-1.612,1.217c-0.69,0.69-1.664,1.502-2.921,2.435c-1.258,0.934-2.12,1.653-2.586,2.16
		c-0.467,0.508-0.781,0.761-0.943,0.761c-0.082,0-0.243-0.08-0.487-0.243c-0.243-0.162-0.405-0.243-0.486-0.243
		c-0.243,0-0.405,0.284-0.486,0.852l-0.243,0.608c-0.527,0.325-0.832,0.487-0.913,0.487l-0.365-0.122h-0.243
		c-0.486,0-0.73,0.183-0.73,0.548l0.365,0.608v0.122c0,0.568-0.325,0.853-0.974,0.853c-0.447,0-1.745,0.751-3.894,2.251
		l-1.766,0.365l-1.459,0.791c-0.487-0.283-0.792-0.426-0.913-0.426l-0.974,0.305l-1.766,0.121c-0.041,0-0.781-0.404-2.221-1.217
		c-1.44-0.812-2.303-1.622-2.586-2.435c-0.284-0.811-0.649-1.633-1.096-2.465c-0.446-0.831-0.669-1.409-0.669-1.734
		c0-1.947,0.161-3.337,0.486-4.169c0.324-0.831,0.527-1.45,0.608-1.855s0.314-0.842,0.7-1.309s0.7-1.228,0.943-2.282
		c1.177-2.353,1.987-3.794,2.435-4.321c0.446-0.527,0.791-1.177,1.034-1.947l0.792-1.096c0.08-0.081,0.202-0.396,0.364-0.943
		s0.365-0.861,0.609-0.943c0.324-0.567,0.486-0.933,0.486-1.096c0-1.176-0.527-1.765-1.582-1.765c-0.203,0-0.426,0.213-0.67,0.639
		c-0.243,0.427-0.801,0.843-1.673,1.248c-0.873,0.406-1.41,0.71-1.613,0.913s-0.64,0.456-1.31,0.761
		c-0.669,0.304-1.247,0.781-1.734,1.43l-1.034,0.487c-0.325,0.771-0.609,1.197-0.854,1.277c-0.243,0.082-0.994,0.285-2.252,0.609
		c-0.081,0.041-0.284,0.284-0.609,0.729c-0.325,0.447-0.791,0.67-1.399,0.67c-0.487,0.487-0.975,1.056-1.462,1.704
		c-0.162,0-0.589,0.162-1.278,0.487l-1.218,0.304c-0.325,0.243-0.68,0.63-1.065,1.156c-0.386,0.528-1.105,0.791-2.161,0.791
		c-0.608,0-0.913-0.486-0.913-1.46c0-1.987,0.7-3.57,2.1-4.747c1.4-1.177,2.424-1.805,3.074-1.887
		c0.649-0.081,1.055-0.324,1.218-0.73c0.161-0.405,0.558-0.74,1.187-1.004s1.359-0.853,2.191-1.766
		c0.831-0.912,1.734-1.53,2.708-1.855L500.549,86.196z"/>
	<path fill="#F9A01B" d="M533.473,94.656l0.976-0.853h0.365c0.283,0,0.71-0.304,1.278-0.913l0.61-0.243
		c0.812-1.217,1.522-1.927,2.132-2.13l0.976-0.73c0.161-0.161,0.396-0.305,0.699-0.426c0.305-0.122,0.793-0.518,1.463-1.187
		c0.67-0.67,1.208-1.005,1.615-1.005c0.405,0,0.73,0.041,0.975,0.122c0.243-0.487,0.729-0.963,1.461-1.431
		c0.731-0.466,1.321-1.023,1.768-1.673l0.793-0.365c0.649-0.324,1.228-0.74,1.735-1.248c0.508-0.507,1.167-0.761,1.98-0.761
		c1.178,0,2.406,0.6,3.684,1.796c1.278,1.197,1.917,2.343,1.917,3.438l-1.034,4.747c-0.69,3.489-1.461,5.315-2.313,5.477
		l-0.243,1.278c-0.569,0.406-0.853,0.73-0.853,0.974l0.365,1.461c0,0.203-0.224,0.508-0.67,0.913c-0.081,0-0.121,0.121-0.121,0.365
		v2.495c0,0.446-0.284,0.812-0.853,1.096c0.081,0.081,0.203,0.162,0.365,0.243c0.244-0.243,0.791-0.365,1.644-0.365l0.973,0.122
		l1.337-1.339c0.283-0.081,0.678-0.274,1.185-0.579c0.506-0.304,1.368-0.699,2.584-1.187l7.962-6.086
		c1.094-1.096,1.924-1.643,2.492-1.643c0.607,0,0.911,0.386,0.911,1.156c0,0.893-0.173,1.634-0.517,2.221
		c-0.346,0.589-0.66,1.299-0.943,2.131c-0.284,0.832-0.619,1.41-1.005,1.734c-0.385,0.325-0.698,0.68-0.942,1.064
		c-0.243,0.387-0.903,0.943-1.978,1.674c-1.075,0.73-1.988,1.471-2.738,2.222c-0.751,0.751-1.369,1.288-1.855,1.612l-2.616,1.887
		l-0.365,0.608c-0.082,0.082-0.456,0.254-1.126,0.518c-0.669,0.265-1.269,0.6-1.795,1.004l-1.095,0.609
		c-0.243,0.162-0.639,0.264-1.187,0.304c-0.548,0.041-1.025,0.274-1.431,0.7c-0.406,0.426-0.73,0.639-0.974,0.639l-0.913-0.121
		l-1.216,0.364c-0.69,0-1.532-0.415-2.525-1.247c-0.995-0.831-1.491-1.714-1.491-2.647v-0.365l0.121-0.852
		c0-0.162-0.121-0.578-0.365-1.248c-0.243-0.669-0.364-1.044-0.364-1.126l0.121-0.852l-0.121-0.365c0-1.096,0.08-1.785,0.243-2.069
		c0.161-0.283,0.283-0.679,0.365-1.187c0.081-0.507,0.161-0.923,0.243-1.248l0.305-1.521c0.161-0.487,0.365-0.812,0.608-0.974
		c0.081-0.324,0.243-0.872,0.486-1.644l0.244-1.096l0.608-0.852c0.324-0.324,0.518-0.761,0.578-1.309s0.273-1.126,0.639-1.734
		s0.548-0.974,0.548-1.096c0-0.486-0.243-0.73-0.73-0.73c-0.162,0-0.669,0.325-1.521,0.975l-1.096-0.365
		c-0.082,0-0.305,0.203-0.67,0.608c0,0.162-0.183,0.284-0.548,0.365s-0.71,0.386-1.034,0.913l-0.488,0.121l-0.791-0.365h-0.243
		c-0.406,0-0.649,0.447-0.73,1.339c-0.447,0.649-1.035,1.076-1.766,1.278l-1.339,0.365c-0.447,0.162-0.771,0.527-0.975,1.096
		c-0.204,0.568-0.609,1.086-1.218,1.552c-0.608,0.467-1.015,0.7-1.217,0.7c-1.137,0-1.705-0.629-1.705-1.887l0.487-2.86
		L533.473,94.656z M559.764,64.227l-0.365-2.374v-0.365c0-1.906,0.648-2.961,1.947-3.164c0.283-0.04,1.136-0.305,2.557-0.792
		c0.73,0.163,1.491,0.802,2.282,1.918s1.187,2.1,1.187,2.951c0,0.082-0.061,0.265-0.183,0.548c-0.122,0.284-0.203,0.821-0.243,1.612
		c-0.041,0.792-0.437,1.481-1.187,2.069c-0.752,0.589-1.553,0.883-2.404,0.883c-0.568,0-1.289-0.396-2.16-1.187
		C560.321,65.535,559.845,64.835,559.764,64.227z"/>
	<path fill="#F9A01B" d="M580.958,86.684l0.852-1.521c0.244-0.365,0.559-0.74,0.944-1.126c0.387-0.386,0.803-1.379,1.25-2.982
		c0.446-1.603,0.944-2.708,1.492-3.316c0.547-0.609,1.35-0.913,2.406-0.913c0.608,0,1.411,0.295,2.406,0.883
		c0.994,0.588,1.969,2.363,2.924,5.325s1.432,5.051,1.432,6.268c0,0.487,0.143,1.106,0.427,1.856
		c0.284,0.752,0.467,1.33,0.549,1.734c-0.325,0.69-0.487,1.076-0.487,1.156l0.122,2.496l-0.73,2.008v1.461
		c-0.487,0.812-0.73,1.318-0.73,1.521c0,0.243,0.081,0.486,0.243,0.73c1.905-0.812,3.061-1.471,3.466-1.979
		c0.404-0.507,0.799-0.821,1.185-0.943c0.384-0.121,1.022-0.648,1.914-1.582l1.154-0.608c0.405-0.487,0.749-0.923,1.033-1.309
		c0.283-0.385,0.617-0.659,1.002-0.821c0.384-0.162,0.84-0.446,1.366-0.853c0.527-0.405,1.296-0.872,2.31-1.399l0.608-0.73
		c0.606-0.689,1.325-1.237,2.156-1.644c0.83-0.405,1.286-0.608,1.366-0.608c0.284,0,0.578,0.376,0.882,1.126
		c0.304,0.751,0.456,1.491,0.456,2.222c0,0.69-0.396,1.369-1.187,2.038c-0.791,0.67-1.328,1.167-1.611,1.491
		c-0.283,0.325-0.932,0.608-1.945,0.853c-0.081,0.041-0.75,0.873-2.006,2.495l-1.217,0.73l-0.607,0.791
		c-0.082,0.162-0.628,0.325-1.642,0.486c-0.04,0-0.132,0.204-0.273,0.609c-0.143,0.405-0.578,0.69-1.308,0.852
		c-1.459,1.339-2.209,2.09-2.249,2.252l-1.277,0.243c-0.243,0.771-0.445,1.238-0.607,1.4c-0.974,0.243-1.521,0.649-1.642,1.217
		c-0.122,0.082-0.324,0.162-0.608,0.243l-0.243,0.183c-0.932,0.73-1.844,1.178-2.735,1.339l-1.398,0.365l-0.486,0.73
		c0,0.203-0.498,0.467-1.49,0.791c-0.993,0.325-1.732,0.73-2.219,1.218l-1.033,0.791c-1.258,0.486-2.048,0.934-2.371,1.339h-0.853
		c-0.567,0-1.459,0.416-2.675,1.247c-1.216,0.832-2.188,1.248-2.918,1.248c-2.351,0-3.963-0.294-4.834-0.883
		c-0.87-0.588-1.59-1.317-2.157-2.19c-0.566-0.872-1.084-1.572-1.551-2.1c-0.465-0.527-0.699-0.953-0.699-1.278
		c0-0.283,0.193-0.567,0.577-0.853c0.386-0.283,0.802-0.861,1.247-1.734c0.445-0.872,1.581-1.43,3.405-1.673
		c0.08,0,0.374-0.122,0.881-0.365c0.506-0.244,0.922-0.365,1.246-0.365c0.405,0,0.912,0.365,1.521,1.095
		c0,0.082,0.081,0.122,0.243,0.122l0.973-0.122c0.445,0.325,0.75,0.487,0.912,0.487c0.972,0,2.006-0.487,3.102-1.461l0.242-0.121
		h0.486c0.122,0,0.325-0.345,0.608-1.035l1.033-2.13l2.128-2.738v-0.609c0-0.121,0.122-0.486,0.365-1.095v-0.913
		c0-0.365,0.243-0.599,0.729-0.7c0.486-0.101,0.729-0.354,0.729-0.761l-0.122-0.486c-0.324-0.446-0.485-0.792-0.485-1.035
		l0.607-1.217l-0.122-1.278l0.244-0.486c-0.163-0.568-0.244-0.893-0.244-0.975l0.244-1.521c0-0.039-0.112-0.426-0.336-1.156
		s-0.396-1.095-0.518-1.095c-0.243,0-1.016,0.629-2.315,1.886c-1.3,1.259-2.072,2.151-2.315,2.679s-0.762,1.004-1.554,1.43
		s-1.33,0.903-1.614,1.431c-0.286,0.527-0.631,0.832-1.036,0.912l-4.083,3.287l-4.447,3.286c-0.325,0.365-0.528,0.548-0.61,0.548
		c-1.502,0-2.254-0.831-2.254-2.495c0-0.527,0.305-1.48,0.913-2.86c0.285-0.162,0.498-0.283,0.64-0.365
		c0.144-0.081,0.214-0.142,0.214-0.183c0-0.04-0.04-0.062-0.122-0.062l0.365,0.244h0.122c1.503-1.014,2.478-1.603,2.924-1.766
		c0.447-0.161,0.854-0.608,1.219-1.339l2.56-1.825c0.649-0.487,1.644-1.379,2.984-2.678
		C579.738,88.246,580.592,87.292,580.958,86.684z"/>
	<path fill="#F9A01B" d="M606.391,93.561l0.489-0.67c1.059-0.243,1.731-0.648,2.017-1.217c0.122-0.283,1.141-1.339,3.057-3.165
		c1.915-1.825,2.975-2.799,3.179-2.921c1.293-2.353,2.081-4.117,2.364-5.295c0.485-0.243,0.728-0.526,0.728-0.852l0.486-0.974
		l0.546-0.122l0.242-0.243v-0.548c0-0.73,0.788-2.435,2.365-5.112c1.58-3.286,2.432-5.102,2.553-5.447
		c0.122-0.344,0.365-0.852,0.73-1.521c0.365-0.669,0.923-1.957,1.674-3.864c0.75-1.907,1.917-3.896,3.5-5.964
		c0.161-0.081,0.404-0.538,0.729-1.37c0.324-0.831,0.831-1.652,1.521-2.465l0.73-1.277c0.243-0.405,0.67-1.116,1.278-2.131
		c0.608-1.014,1.166-1.814,1.674-2.403c0.507-0.588,0.892-1.207,1.156-1.856c0.264-0.648,0.578-1.115,0.943-1.399
		s0.739-0.801,1.126-1.553c0.385-0.75,0.983-1.125,1.795-1.125c1.582,0,2.729,0.649,3.438,1.947c0.71,1.299,1.065,2.435,1.065,3.408
		c0,0.121-0.243,0.994-0.73,2.617l-0.913,5.477c-0.812,0.406-1.217,0.873-1.217,1.4c0,2.15-0.832,4.382-2.495,6.694
		c-0.163,0.162-0.295,0.69-0.396,1.582c-0.103,0.894-0.457,1.623-1.065,2.191s-1.156,1.521-1.644,2.86l-5.659,8.094l-0.487,0.487
		c-0.243,0.162-0.527,0.508-0.852,1.034l-0.975-0.304c-1.095,0-1.643,0.345-1.643,1.034c0,0.243,0.081,0.568,0.243,0.974v0.122
		c0,0.041-1.502,2.171-4.504,6.391c-0.162,0.243-0.446,1.034-0.852,2.373l-0.853,1.826c-0.852,1.177-1.451,2.322-1.795,3.438
		c-0.346,1.116-0.802,2.019-1.369,2.708c-0.813,1.826-1.218,2.779-1.218,2.86c0,0.243,0.122,0.365,0.365,0.365
		c0.244,0,0.822-0.608,1.734-1.826c0.913-1.217,1.663-2.028,2.252-2.435c0.588-0.404,1.085-0.974,1.492-1.703l0.609-0.427
		c0.163-0.08,0.508-0.324,1.037-0.73l0.609,0.122c0.325-0.243,0.527-0.526,0.609-0.852c0.081-0.324,0.202-0.568,0.366-0.73
		c1.057-0.122,1.716-0.507,1.98-1.156c0.265-0.648,0.579-0.974,0.945-0.974c0.325,0,0.751-0.375,1.28-1.126
		c0.528-0.751,1.271-1.359,2.225-1.826c0.955-0.466,1.666-0.883,2.134-1.248c0.468-0.364,1.412-0.8,2.835-1.308
		c1.423-0.507,2.378-0.761,2.865-0.761h0.365l0.488,0.121l0.914-0.121c1.423,0,2.844,0.396,4.265,1.187
		c1.42,0.791,2.029,2.019,1.826,3.682l-0.486,3.773l-0.67,2.982c-0.082,0.486-0.406,1.563-0.974,3.226
		c-0.568,1.664-0.853,2.616-0.853,2.86l-0.243,1.156l0.242,1.582l-0.12,1.278c0,0.406,0.201,0.608,0.605,0.608
		c0.162,0,0.606-0.365,1.335-1.096c0.444,0.082,0.868-0.161,1.273-0.73c0.404-0.567,0.95-1.156,1.639-1.765
		c0-0.161,0.263-0.313,0.788-0.456c0.525-0.142,1.254-0.618,2.184-1.431c0.161-0.365,0.95-1.146,2.366-2.343
		c1.414-1.196,2.77-2.12,4.063-2.77l0.364-0.486c0.687-0.689,1.313-1.035,1.88-1.035s0.85,0.305,0.85,0.913
		c0,0.406-0.102,0.832-0.305,1.278c-0.202,0.447-0.344,1.025-0.425,1.734c-0.082,0.71-0.486,1.734-1.215,3.073l-0.244,0.608
		c-0.283,0.69-0.627,1.096-1.032,1.218c-0.405,0.121-0.841,0.456-1.307,1.004s-1.429,1.065-2.887,1.552
		c-0.648,1.218-1.155,1.826-1.52,1.826l-1.094-0.487c-0.852,0.69-1.276,1.4-1.276,2.13c-1.054,0.894-1.683,1.482-1.884,1.766
		l-1.216-0.122c-0.324,0-0.486,0.447-0.486,1.339c0,0.082-0.416,0.355-1.246,0.821c-0.831,0.468-1.469,0.883-1.914,1.248
		s-1.397,0.548-2.856,0.548c-0.162,0-0.406-0.142-0.729-0.426c-0.324-0.284-0.801-0.527-1.428-0.73
		c-0.628-0.203-1.063-0.679-1.307-1.431c-0.244-0.75-0.507-1.339-0.791-1.765s-0.426-0.761-0.426-1.004l0.122-1.218l-0.305-1.277
		l0.548-0.853c-0.243-0.567-0.365-0.953-0.365-1.156l0.608-3.712c0.446-2.679,0.812-4.422,1.096-5.234
		c0.081-0.081,0.122-0.324,0.122-0.73l-0.122-1.521l0.122-0.852c0-0.609-0.204-0.934-0.608-0.974
		c-0.406-0.04-0.649-0.143-0.73-0.305c-0.529-0.243-0.833-0.365-0.914-0.365c-0.325,0-0.61,0.254-0.854,0.761
		c-0.244,0.508-0.569,0.964-0.975,1.369l-1.522-0.243v0.122c0,0.325-0.549,0.953-1.646,1.887c-1.016,0.243-1.889,0.771-2.62,1.582
		c-0.325,0-0.883,0.314-1.675,0.943c-0.793,0.629-1.31,0.984-1.554,1.064l-0.487,0.975l-0.975,0.304
		c-0.284,0.813-0.955,1.339-2.011,1.582l-0.609,1.157c-0.853,0.081-1.441,0.517-1.767,1.308c-0.325,0.792-0.568,1.188-0.73,1.188
		c-0.082,0-0.214-0.051-0.396-0.152c-0.183-0.101-0.355-0.152-0.519-0.152c-0.894,0-1.381,0.67-1.461,2.009
		c0,0.162-0.833,1.116-2.498,2.86c-1.666,1.745-2.56,2.638-2.681,2.678c-0.122,0.041-0.356,0.456-0.701,1.247
		c-0.346,0.791-0.822,1.38-1.432,1.766s-1.066,0.699-1.371,0.943c-0.304,0.243-0.538,0.364-0.7,0.364
		c-0.854,0-1.544-0.608-2.071-1.825c-0.529-1.218-0.792-1.846-0.792-1.887l0.366-1.278l-0.122-1.096
		c0-0.039,0.253-0.861,0.761-2.464s1.086-2.861,1.736-3.773c0.649-0.913,1.157-2.404,1.523-4.474
		c-1.828,1.218-2.925,1.826-3.29,1.826c-0.813,0-1.219-0.527-1.219-1.583C604.495,96.847,605.127,95.103,606.391,93.561z"/>
	<path fill="#F9A01B" d="M713.042,103.785h0.243l0.61,0.243c0.081,0,0.162-0.04,0.243-0.122c0-0.689,0.325-1.277,0.977-1.765
		c0.204-0.771,0.661-1.358,1.373-1.765c0.711-0.405,1.84-1.075,3.386-2.009l1.524-1.339l0.732-0.365l0.487-0.608
		c0.447-0.526,0.874-0.791,1.281-0.791c0.609,0,0.915,0.224,0.915,0.669l-0.549,1.218l0.244,2.008c0,0.73-0.254,1.38-0.762,1.948
		s-1.29,1.399-2.346,2.495l-3.108,3.286l-1.646,0.852c-0.407,0.244-0.772,0.528-1.097,0.853l-2.377,2.009
		c0,0.568-0.183,0.994-0.548,1.277h-0.976l-0.486,0.244c-0.286,0.771-1.119,1.521-2.5,2.251l-0.853,0.609
		c-0.285,0.243-0.549,0.364-0.792,0.364l-1.707-0.243l-1.157,0.243c-0.325,0-0.763-0.161-1.311-0.486
		c-0.549-0.324-1.106-0.578-1.676-0.761c-0.568-0.183-1.29-0.933-2.163-2.252c-0.874-1.318-1.352-2.181-1.432-2.587
		c0-0.161-0.093-0.436-0.275-0.821c-0.183-0.385-0.273-0.618-0.273-0.7c0-0.08,0.183-0.486,0.549-1.217v-0.122
		c0-0.121-0.112-0.404-0.336-0.852c-0.224-0.446-0.335-0.994-0.335-1.644c0-0.365-0.121-0.831-0.365-1.399
		c0.324-0.324,0.487-0.567,0.487-0.73c0-0.161-0.062-0.396-0.183-0.7c-0.122-0.304-0.183-0.537-0.183-0.699l0.365-2.982
		l-0.243-1.521l0.121-1.461c0-0.852-0.364-1.277-1.092-1.277c-0.323,0-0.728,0.223-1.212,0.669l-0.425,0.122
		c-1.091,0.527-1.859,0.964-2.305,1.309s-0.91,0.517-1.395,0.517c-0.243,0.244-0.708,0.468-1.396,0.67l-0.485,0.365
		c-0.161,0.162-0.484,0.406-0.97,0.73c0,0.121-0.759,0.802-2.274,2.038c-1.516,1.238-2.88,2.404-4.094,3.5
		c-1.213,1.096-2.092,1.694-2.638,1.795c-0.546,0.102-0.819,0.619-0.819,1.552c0,0.163-0.363,0.487-1.091,0.975
		c-0.081,0-0.505,0.446-1.273,1.339c-0.646-0.487-1.011-0.73-1.092-0.73c-0.529,0-0.916,0.669-1.159,2.008
		c-0.244,0.528-0.895,0.853-1.952,0.974c-0.082,0.041-0.225,0.346-0.428,0.913l-0.244,0.244h-0.61c-0.082,0-0.366,0.233-0.854,0.699
		c-0.489,0.467-0.916,0.761-1.282,0.883c-0.528,1.096-0.977,1.643-1.342,1.643c-0.163,0-0.397-0.08-0.701-0.243
		c-0.306-0.161-0.682-0.304-1.128-0.426c-0.447-0.122-0.943-0.618-1.491-1.491c-0.548-0.872-0.822-1.612-0.822-2.222
		c0-4.503,0.872-6.958,2.617-7.363l0.122-0.244v-0.486c0-0.527,0.232-0.902,0.7-1.126c0.466-0.223,0.943-0.67,1.43-1.339
		c0.487-0.67,0.812-1.044,0.974-1.126h0.791c0.162,0,0.244-0.426,0.244-1.278c0-0.243,0.101-0.466,0.304-0.669
		s0.324-0.497,0.365-0.883c0.04-0.385,0.335-1.014,0.883-1.887c0.548-0.872,0.821-1.389,0.821-1.552l-0.122-0.243
		c-1.014,0.934-1.744,1.44-2.19,1.521c-0.447,0.081-1.056,0.669-1.826,1.765l-0.974-0.183c-1.706,1.258-2.762,1.969-3.169,2.13
		c-0.407,0.163-0.855,0.63-1.343,1.4c0,0.243-0.143,0.405-0.428,0.486c-0.286,0.082-0.814,0.406-1.587,0.974h-0.365
		c-1.018,0-1.526-0.73-1.526-2.19l1.276-3.469c0.364-1.096,1.227-2.019,2.584-2.77c1.358-0.75,2.503-1.47,3.436-2.16
		c0.933-0.689,1.865-1.055,2.798-1.096l0.425-0.608c1.378-0.527,2.311-1.359,2.797-2.495c0.487-1.136,1.155-1.704,2.008-1.704
		c2.229,0,3.932,0.821,5.107,2.465c1.175,1.643,1.763,2.951,1.763,3.925l0.122,1.644c0,0.568-0.122,1.359-0.364,2.373
		c-0.487,0.73-0.73,1.278-0.73,1.644c0,0.325,0.202,0.486,0.608,0.486c0.242,0,0.566-0.172,0.972-0.517s0.861-0.659,1.368-0.943
		c0.507-0.283,0.801-0.527,0.883-0.73c0.405-0.974,1.113-1.644,2.127-2.009s1.643-0.669,1.886-0.912l0.608-0.487l0.486-0.913
		c1.094-0.486,1.823-0.933,2.188-1.339c0.365-0.405,0.851-0.669,1.459-0.791c0.609-0.122,1.299-0.487,2.068-1.096l0.912-0.243
		l0.852-0.487c0.08-0.08,0.324-0.183,0.729-0.304c0.404-0.122,1.003-0.335,1.793-0.64c0.79-0.304,1.327-0.456,1.612-0.456
		c2.066,0,3.697,0.832,4.894,2.495c1.196,1.664,1.795,3.003,1.795,4.017l-0.122,1.096l0.244,1.644v0.243l-0.487,3.348l0.122,1.156
		c0,1.907-0.406,3.226-1.218,3.956c-0.203,0.081-0.304,0.284-0.304,0.608v0.548l1.217,2.556c0.365,0.893,0.649,1.339,0.853,1.339
		l1.953-0.548c0.568-0.161,1.036-0.588,1.403-1.278c0.325-0.161,0.894-0.648,1.708-1.46
		C712.126,104.11,712.513,103.785,713.042,103.785z"/>
	<path fill="#F9A01B" d="M770.425,100.012l0.971-0.853c0.606,0,0.97-0.273,1.092-0.821c0.121-0.548,0.556-0.983,1.305-1.309
		c0.748-0.324,1.446-0.983,2.094-1.978c0.646-0.994,1.313-1.491,2.002-1.491c0.242,0,0.525,0.203,0.849,0.608
		c0.323,0.406,0.486,0.73,0.486,0.974c0,1.339-0.406,2.719-1.218,4.139l-0.242,1.704l-0.426,0.791
		c-0.609,0.325-1.005,0.67-1.188,1.035c-0.182,0.364-0.658,0.812-1.429,1.339l-0.608,0.852c-0.894,0.284-1.491,0.751-1.796,1.399
		c-0.304,0.649-0.729,1.015-1.276,1.096c-0.548,0.082-1.146,0.487-1.795,1.218c-0.406,0.203-0.893,0.386-1.461,0.547l-0.121,0.609
		c-0.406,0.405-1.045,0.73-1.917,0.974s-1.521,0.478-1.947,0.699c-0.426,0.224-0.72,0.335-0.881,0.335
		c-0.771,0-1.481-0.152-2.13-0.456c-0.649-0.305-1.318-0.496-2.008-0.578c-0.243-0.243-0.386-0.507-0.426-0.791
		c-0.041-0.284-0.244-0.659-0.609-1.126c-0.364-0.466-0.546-1.105-0.546-1.917l0.243-1.156c0-0.162-0.102-0.365-0.305-0.609
		c-0.203-0.243-0.304-0.445-0.304-0.608c0-0.161,0.04-0.283,0.121-0.365c0.081-0.081,0.122-0.202,0.122-0.365
		c0-0.202-0.041-0.426-0.122-0.669s-0.121-0.446-0.121-0.608l0.365-2.982c0-0.243-0.082-0.365-0.244-0.365s-0.456,0.203-0.882,0.608
		c-0.427,0.406-0.924,0.608-1.491,0.608c-0.325,0.244-0.589,0.752-0.792,1.521c-0.325,0.406-0.73,0.771-1.218,1.096l-0.243,0.365
		c-0.082,0.284-0.386,0.518-0.913,0.7s-0.893,0.416-1.096,0.699l-0.608,0.609l-1.156-0.122c-0.082,0.082-0.305,0.437-0.67,1.065
		s-0.832,1.146-1.4,1.552l-4.626,3.773c-0.487,0.325-1.197,0.729-2.13,1.217l-0.365,0.365c-3.247,2.151-5.539,3.226-6.878,3.226
		c-1.097,0-2.375-0.305-3.835-0.913c-1.461-0.608-2.252-1.339-2.374-2.19l-0.608-2.496c-0.365-0.567-0.548-1.358-0.548-2.373
		c0-0.487,0.04-0.812,0.122-0.974v-0.365l-0.122-2.009c0-0.486,0.385-0.729,1.156-0.729l-0.122-1.644
		c0-0.162,0.355-0.801,1.065-1.917c0.71-1.115,1.187-1.755,1.431-1.917l0.608-0.791c-0.041-0.487,0.243-1.005,0.853-1.553
		c0.608-0.548,1.097-1.104,1.463-1.673c0.365-0.568,1.057-1.196,2.072-1.887l1.827-1.826c1.422-1.42,2.965-2.556,4.631-3.408
		c0.244-0.081,0.741-0.486,1.492-1.217s1.605-1.268,2.561-1.613c0.954-0.344,1.888-0.78,2.802-1.309
		c0.914-0.526,1.636-0.791,2.164-0.791h0.487c0.162,0,1.238-0.507,3.229-1.521h0.366c0.161,0,0.548,0.163,1.157,0.487h0.121
		l0.977-0.487c0.161-0.081,0.364-0.121,0.608-0.121c2.518,0,3.899,1.744,4.144,5.233c0.081,0.73,0.284,1.096,0.61,1.096
		c0.404,0,0.983-0.74,1.735-2.222c0.751-1.48,2.345-2.222,4.78-2.222c1.744,0,2.616,1.117,2.616,3.348
		c0,2.638-1.177,5.133-3.529,7.485c-0.163,0.325-0.284,0.69-0.365,1.096l-0.853,2.495v0.122c0,0.243-0.173,0.578-0.517,1.004
		c-0.346,0.427-0.518,0.802-0.518,1.126l0.122,1.521l-0.244,1.704c0,0.771,0.142,1.278,0.426,1.521
		c1.294-0.324,2.234-0.861,2.821-1.612s1.001-1.166,1.243-1.248l0.607-0.243C769.515,100.925,769.939,100.418,770.425,100.012z
		 M750.215,100.012c0.163-0.893,0.66-1.572,1.492-2.039c0.831-0.466,1.328-0.943,1.491-1.43c0.771-0.568,1.876-1.583,3.316-3.043
		c1.441-1.461,2.162-2.353,2.162-2.679c0-0.121-0.082-0.182-0.243-0.182h-0.122l-0.487,0.304l-1.095-0.122l-1.158,0.122
		l-0.852-0.426l-0.791,0.122l-1.218-0.244c-0.649,0-1.207,0.133-1.673,0.396c-0.467,0.265-1.36,0.559-2.679,0.883
		c-1.319,0.325-2.506,0.883-3.562,1.674s-1.826,1.187-2.313,1.187c-0.284,0.608-1.238,1.481-2.86,2.617
		c-0.975,0.325-1.604,1.034-1.888,2.13c-1.056,0.852-1.583,1.339-1.583,1.461l-0.426,1.034c-0.325,0.284-0.73,0.518-1.217,0.7
		c-0.487,0.183-0.771,0.608-0.853,1.278c-0.081,0.669-0.355,1.277-0.821,1.825c-0.467,0.548-0.7,0.984-0.7,1.309
		c0,1.988,0.386,2.982,1.156,2.982c0.324,0,1.005-0.213,2.039-0.64c1.035-0.426,1.633-0.72,1.796-0.882
		c0.161-0.162,0.486-0.324,0.974-0.487l1.157-0.608c0.161-0.162,0.344-0.264,0.548-0.305c0.202-0.04,0.404-0.172,0.608-0.396
		c0.202-0.223,0.567-0.466,1.096-0.73c0.526-0.263,0.933-0.618,1.217-1.064c0.689-0.405,1.806-1.035,3.349-1.887l1.277-0.974
		c0.893-0.405,1.44-0.751,1.644-1.035C749.2,100.58,749.606,100.296,750.215,100.012z"/>
</g>
</svg>
