<?xml version="1.0" encoding="utf-8"?>
<!-- Generator: Adobe Illustrator 16.0.0, SVG Export Plug-In . SVG Version: 6.00 Build 0)  -->
<!DOCTYPE svg PUBLIC "-//W3C//DTD SVG 1.1//EN" "http://www.w3.org/Graphics/SVG/1.1/DTD/svg11.dtd">
<svg version="1.1" id="Layer_1" xmlns="http://www.w3.org/2000/svg" xmlns:xlink="http://www.w3.org/1999/xlink" x="0px" y="0px"
	 width="877px" height="168px" viewBox="0 0 877 168" enable-background="new 0 0 877 168" xml:space="preserve">
<g>
	<g>
		<path d="M64.14,101.382c-1.164-1.574-2.385-3.045-3.661-4.413c-1.278-1.369-2.601-2.567-3.969-3.594s-2.783-1.767-4.243-2.223
			v-0.273c3.33-0.96,6.353-2.283,9.067-3.971c2.713-1.688,5.03-3.695,6.946-6.022c1.916-2.327,3.397-4.938,4.448-7.836
			c1.049-2.896,1.574-6.056,1.574-9.476c0-17.793-11.907-26.689-35.72-26.689H3.544v98.132h22.104V97.448h5.953
			c1.368,0,2.635,0.285,3.797,0.854c1.164,0.571,2.282,1.391,3.354,2.464c1.071,1.071,2.132,2.36,3.183,3.865
			c1.049,1.507,2.144,3.217,3.284,5.133l15.261,25.252h25.388l-18.544-29.016C66.365,104.496,65.304,102.955,64.14,101.382z
			 M46.657,76.644c-2.875,2.738-6.685,4.104-11.429,4.104h-9.58V53.445h9.991c10.264,0,15.396,4.29,15.396,12.866
			C51.036,70.416,49.575,73.861,46.657,76.644z"/>
		<linearGradient id="SVGID_1_" gradientUnits="userSpaceOnUse" x1="508.1719" y1="562.8369" x2="-73.8786" y2="-19.2136">
			<stop  offset="0" style="stop-color:#3BAF93"/>
			<stop  offset="0.0564" style="stop-color:#48A78E"/>
			<stop  offset="0.1596" style="stop-color:#5F9583"/>
			<stop  offset="0.2983" style="stop-color:#747771"/>
			<stop  offset="0.465" style="stop-color:#824E5C"/>
			<stop  offset="0.5806" style="stop-color:#87234C"/>
			<stop  offset="0.7061" style="stop-color:#6D2444"/>
			<stop  offset="0.9771" style="stop-color:#331A2C"/>
			<stop  offset="1" style="stop-color:#2E182A"/>
		</linearGradient>
		<path fill="url(#SVGID_1_)" d="M64.14,101.382c-1.164-1.574-2.385-3.045-3.661-4.413c-1.278-1.369-2.601-2.567-3.969-3.594
			s-2.783-1.767-4.243-2.223v-0.273c3.33-0.96,6.353-2.283,9.067-3.971c2.713-1.688,5.03-3.695,6.946-6.022
			c1.916-2.327,3.397-4.938,4.448-7.836c1.049-2.896,1.574-6.056,1.574-9.476c0-17.793-11.907-26.689-35.72-26.689H3.544v98.132
			h22.104V97.448h5.953c1.368,0,2.635,0.285,3.797,0.854c1.164,0.571,2.282,1.391,3.354,2.464c1.071,1.071,2.132,2.36,3.183,3.865
			c1.049,1.507,2.144,3.217,3.284,5.133l15.261,25.252h25.388l-18.544-29.016C66.365,104.496,65.304,102.955,64.14,101.382z
			 M46.657,76.644c-2.875,2.738-6.685,4.104-11.429,4.104h-9.58V53.445h9.991c10.264,0,15.396,4.29,15.396,12.866
			C51.036,70.416,49.575,73.861,46.657,76.644z"/>
		<path d="M121.246,63.231c-4.289,0-9.044,0.592-14.268,1.779c-5.225,1.188-9.341,2.557-12.352,4.106v16.288
			c7.527-4.973,15.466-7.46,23.814-7.46c8.302,0,12.454,3.832,12.454,11.496l-19.024,2.533
			c-16.104,2.097-24.156,9.944-24.156,23.539c0,6.434,1.951,11.576,5.851,15.431c3.9,3.856,9.249,5.783,16.047,5.783
			c9.215,0,16.172-3.922,20.871-11.77h0.274v10.06h20.461v-41.88C151.219,73.199,141.229,63.231,121.246,63.231z M130.895,106.548
			c0,4.29-1.278,7.837-3.832,10.641c-2.556,2.807-5.862,4.208-9.923,4.208c-2.92,0-5.235-0.785-6.945-2.36
			c-1.711-1.572-2.567-3.591-2.567-6.056c0-5.429,3.512-8.599,10.539-9.512l12.728-1.643V106.548z"/>
		<linearGradient id="SVGID_2_" gradientUnits="userSpaceOnUse" x1="544.416" y1="526.5957" x2="-37.6372" y2="-55.4575">
			<stop  offset="0" style="stop-color:#3BAF93"/>
			<stop  offset="0.0564" style="stop-color:#48A78E"/>
			<stop  offset="0.1596" style="stop-color:#5F9583"/>
			<stop  offset="0.2983" style="stop-color:#747771"/>
			<stop  offset="0.465" style="stop-color:#824E5C"/>
			<stop  offset="0.5806" style="stop-color:#87234C"/>
			<stop  offset="0.7061" style="stop-color:#6D2444"/>
			<stop  offset="0.9771" style="stop-color:#331A2C"/>
			<stop  offset="1" style="stop-color:#2E182A"/>
		</linearGradient>
		<path fill="url(#SVGID_2_)" d="M121.246,63.231c-4.289,0-9.044,0.592-14.268,1.779c-5.225,1.188-9.341,2.557-12.352,4.106v16.288
			c7.527-4.973,15.466-7.46,23.814-7.46c8.302,0,12.454,3.832,12.454,11.496l-19.024,2.533
			c-16.104,2.097-24.156,9.944-24.156,23.539c0,6.434,1.951,11.576,5.851,15.431c3.9,3.856,9.249,5.783,16.047,5.783
			c9.215,0,16.172-3.922,20.871-11.77h0.274v10.06h20.461v-41.88C151.219,73.199,141.229,63.231,121.246,63.231z M130.895,106.548
			c0,4.29-1.278,7.837-3.832,10.641c-2.556,2.807-5.862,4.208-9.923,4.208c-2.92,0-5.235-0.785-6.945-2.36
			c-1.711-1.572-2.567-3.591-2.567-6.056c0-5.429,3.512-8.599,10.539-9.512l12.728-1.643V106.548z"/>
		<path d="M211.78,63.231c-9.078,0-16.263,4.037-21.555,12.112h-0.273V31.273h-21.625v103.743h21.625V95.053
			c0-4.426,1.186-8.076,3.558-10.95c2.372-2.875,5.475-4.311,9.307-4.311c7.482,0,11.222,5.132,11.222,15.396v39.828h21.557V91.974
			C235.594,72.811,227.656,63.231,211.78,63.231z"/>
		<linearGradient id="SVGID_3_" gradientUnits="userSpaceOnUse" x1="583.668" y1="487.3438" x2="1.6141" y2="-94.7101">
			<stop  offset="0" style="stop-color:#3BAF93"/>
			<stop  offset="0.0564" style="stop-color:#48A78E"/>
			<stop  offset="0.1596" style="stop-color:#5F9583"/>
			<stop  offset="0.2983" style="stop-color:#747771"/>
			<stop  offset="0.465" style="stop-color:#824E5C"/>
			<stop  offset="0.5806" style="stop-color:#87234C"/>
			<stop  offset="0.7061" style="stop-color:#6D2444"/>
			<stop  offset="0.9771" style="stop-color:#331A2C"/>
			<stop  offset="1" style="stop-color:#2E182A"/>
		</linearGradient>
		<path fill="url(#SVGID_3_)" d="M211.78,63.231c-9.078,0-16.263,4.037-21.555,12.112h-0.273V31.273h-21.625v103.743h21.625V95.053
			c0-4.426,1.186-8.076,3.558-10.95c2.372-2.875,5.475-4.311,9.307-4.311c7.482,0,11.222,5.132,11.222,15.396v39.828h21.557V91.974
			C235.594,72.811,227.656,63.231,211.78,63.231z"/>
		<path d="M297.729,105.044c0,4.651-1.163,8.337-3.489,11.05c-2.327,2.716-5.43,4.073-9.307,4.073
			c-7.847,0-11.77-4.949-11.77-14.849V64.942h-21.557v42.291c0,19.664,8.12,29.493,24.362,29.493
			c8.941,0,16.082-4.128,21.418-12.385h0.342v10.675h21.556V64.942h-21.556V105.044z"/>
		<linearGradient id="SVGID_4_" gradientUnits="userSpaceOnUse" x1="631.1465" y1="439.8652" x2="49.0922" y2="-142.189">
			<stop  offset="0" style="stop-color:#3BAF93"/>
			<stop  offset="0.0564" style="stop-color:#48A78E"/>
			<stop  offset="0.1596" style="stop-color:#5F9583"/>
			<stop  offset="0.2983" style="stop-color:#747771"/>
			<stop  offset="0.465" style="stop-color:#824E5C"/>
			<stop  offset="0.5806" style="stop-color:#87234C"/>
			<stop  offset="0.7061" style="stop-color:#6D2444"/>
			<stop  offset="0.9771" style="stop-color:#331A2C"/>
			<stop  offset="1" style="stop-color:#2E182A"/>
		</linearGradient>
		<path fill="url(#SVGID_4_)" d="M297.729,105.044c0,4.651-1.163,8.337-3.489,11.05c-2.327,2.716-5.43,4.073-9.307,4.073
			c-7.847,0-11.77-4.949-11.77-14.849V64.942h-21.557v42.291c0,19.664,8.12,29.493,24.362,29.493
			c8.941,0,16.082-4.128,21.418-12.385h0.342v10.675h21.556V64.942h-21.556V105.044z"/>
		<rect x="337.488" y="31.273" width="21.625" height="103.743"/>
		<linearGradient id="SVGID_5_" gradientUnits="userSpaceOnUse" x1="668.0869" y1="402.9316" x2="86.0253" y2="-179.13">
			<stop  offset="0" style="stop-color:#3BAF93"/>
			<stop  offset="0.0564" style="stop-color:#48A78E"/>
			<stop  offset="0.1596" style="stop-color:#5F9583"/>
			<stop  offset="0.2983" style="stop-color:#747771"/>
			<stop  offset="0.465" style="stop-color:#824E5C"/>
			<stop  offset="0.5806" style="stop-color:#87234C"/>
			<stop  offset="0.7061" style="stop-color:#6D2444"/>
			<stop  offset="0.9771" style="stop-color:#331A2C"/>
			<stop  offset="1" style="stop-color:#2E182A"/>
		</linearGradient>
		<rect x="337.488" y="31.273" fill="url(#SVGID_5_)" width="21.625" height="103.743"/>
	</g>
	<g>
		<path d="M477.709,36.885h-26.345l-27.099,40.923c-1.277,2.373-2.189,4.198-2.737,5.474h-0.343V36.885h-22.103v98.131h22.103
			V86.977h0.343c1.186,2.783,2.055,4.587,2.6,5.407l28.604,42.632h27.92l-37.158-51.323L477.709,36.885z"/>
		<linearGradient id="SVGID_6_" gradientUnits="userSpaceOnUse" x1="702.2148" y1="349.7686" x2="120.1697" y2="-232.2766">
			<stop  offset="0" style="stop-color:#3BAF93"/>
			<stop  offset="0.0564" style="stop-color:#48A78E"/>
			<stop  offset="0.1596" style="stop-color:#5F9583"/>
			<stop  offset="0.2983" style="stop-color:#747771"/>
			<stop  offset="0.465" style="stop-color:#824E5C"/>
			<stop  offset="0.5806" style="stop-color:#87234C"/>
			<stop  offset="0.7061" style="stop-color:#6D2444"/>
			<stop  offset="0.9771" style="stop-color:#331A2C"/>
			<stop  offset="1" style="stop-color:#2E182A"/>
		</linearGradient>
		<path fill="url(#SVGID_6_)" d="M477.709,36.885h-26.345l-27.099,40.923c-1.277,2.373-2.189,4.198-2.737,5.474h-0.343V36.885
			h-22.103v98.131h22.103V86.977h0.343c1.186,2.783,2.055,4.587,2.6,5.407l28.604,42.632h27.92l-37.158-51.323L477.709,36.885z"/>
		<path d="M509.806,77.944h-0.274V64.942h-21.623v70.073h21.623v-33.464c0-5.929,1.323-10.615,3.97-14.063
			c2.645-3.443,6.318-5.166,11.019-5.166c3.465,0,6.5,0.707,9.1,2.121V64.531c-1.278-0.547-3.057-0.821-5.338-0.821
			C519.385,63.71,513.227,68.456,509.806,77.944z"/>
		<linearGradient id="SVGID_7_" gradientUnits="userSpaceOnUse" x1="731.4854" y1="320.4951" x2="149.4449" y2="-261.5453">
			<stop  offset="0" style="stop-color:#3BAF93"/>
			<stop  offset="0.0564" style="stop-color:#48A78E"/>
			<stop  offset="0.1596" style="stop-color:#5F9583"/>
			<stop  offset="0.2983" style="stop-color:#747771"/>
			<stop  offset="0.465" style="stop-color:#824E5C"/>
			<stop  offset="0.5806" style="stop-color:#87234C"/>
			<stop  offset="0.7061" style="stop-color:#6D2444"/>
			<stop  offset="0.9771" style="stop-color:#331A2C"/>
			<stop  offset="1" style="stop-color:#2E182A"/>
		</linearGradient>
		<path fill="url(#SVGID_7_)" d="M509.806,77.944h-0.274V64.942h-21.623v70.073h21.623v-33.464c0-5.929,1.323-10.615,3.97-14.063
			c2.645-3.443,6.318-5.166,11.019-5.166c3.465,0,6.5,0.707,9.1,2.121V64.531c-1.278-0.547-3.057-0.821-5.338-0.821
			C519.385,63.71,513.227,68.456,509.806,77.944z"/>
		<rect x="544.226" y="64.942" width="21.624" height="70.073"/>
		<linearGradient id="SVGID_8_" gradientUnits="userSpaceOnUse" x1="753.5225" y1="298.4639" x2="171.4733" y2="-283.5853">
			<stop  offset="0" style="stop-color:#3BAF93"/>
			<stop  offset="0.0564" style="stop-color:#48A78E"/>
			<stop  offset="0.1596" style="stop-color:#5F9583"/>
			<stop  offset="0.2983" style="stop-color:#747771"/>
			<stop  offset="0.465" style="stop-color:#824E5C"/>
			<stop  offset="0.5806" style="stop-color:#87234C"/>
			<stop  offset="0.7061" style="stop-color:#6D2444"/>
			<stop  offset="0.9771" style="stop-color:#331A2C"/>
			<stop  offset="1" style="stop-color:#2E182A"/>
		</linearGradient>
		<rect x="544.226" y="64.942" fill="url(#SVGID_8_)" width="21.624" height="70.073"/>
		<path d="M564.174,34.695c-2.305-2.052-5.304-3.079-8.999-3.079c-3.65,0-6.638,1.027-8.964,3.079
			c-2.328,2.053-3.491,4.7-3.491,7.938c0,3.148,1.163,5.807,3.491,7.972c2.326,2.167,5.313,3.25,8.964,3.25
			c3.695,0,6.694-1.048,8.999-3.148c2.302-2.097,3.455-4.79,3.455-8.075C567.629,39.395,566.476,36.748,564.174,34.695z"/>
		<linearGradient id="SVGID_9_" gradientUnits="userSpaceOnUse" x1="782.2666" y1="269.7168" x2="200.2218" y2="-312.328">
			<stop  offset="0" style="stop-color:#3BAF93"/>
			<stop  offset="0.0564" style="stop-color:#48A78E"/>
			<stop  offset="0.1596" style="stop-color:#5F9583"/>
			<stop  offset="0.2983" style="stop-color:#747771"/>
			<stop  offset="0.465" style="stop-color:#824E5C"/>
			<stop  offset="0.5806" style="stop-color:#87234C"/>
			<stop  offset="0.7061" style="stop-color:#6D2444"/>
			<stop  offset="0.9771" style="stop-color:#331A2C"/>
			<stop  offset="1" style="stop-color:#2E182A"/>
		</linearGradient>
		<path fill="url(#SVGID_9_)" d="M564.174,34.695c-2.305-2.052-5.304-3.079-8.999-3.079c-3.65,0-6.638,1.027-8.964,3.079
			c-2.328,2.053-3.491,4.7-3.491,7.938c0,3.148,1.163,5.807,3.491,7.972c2.326,2.167,5.313,3.25,8.964,3.25
			c3.695,0,6.694-1.048,8.999-3.148c2.302-2.097,3.455-4.79,3.455-8.075C567.629,39.395,566.476,36.748,564.174,34.695z"/>
		<path d="M628.086,100.321c-1.664-1.597-3.66-2.985-5.985-4.175c-2.328-1.187-4.929-2.281-7.802-3.284
			c-1.599-0.547-3.205-1.084-4.824-1.607c-1.621-0.524-3.093-1.117-4.414-1.78c-1.323-0.661-2.395-1.446-3.217-2.359
			c-0.82-0.913-1.232-2.008-1.232-3.286c0-0.957,0.275-1.814,0.822-2.567c0.548-0.752,1.298-1.368,2.258-1.847
			c0.958-0.479,2.063-0.844,3.319-1.095c1.255-0.25,2.589-0.376,4.004-0.376c3.011,0,6.077,0.4,9.203,1.197
			c3.123,0.798,6.056,1.996,8.793,3.593V66.038c-3.102-0.913-6.25-1.609-9.443-2.087c-3.193-0.48-6.342-0.719-9.443-0.719
			c-3.969,0-7.79,0.422-11.461,1.266c-3.675,0.845-6.937,2.167-9.785,3.969c-2.854,1.804-5.134,4.117-6.845,6.947
			c-1.712,2.828-2.565,6.205-2.565,10.126c0,2.875,0.377,5.361,1.129,7.46s1.847,3.946,3.285,5.543
			c1.436,1.597,3.215,3.001,5.336,4.209c2.122,1.209,4.573,2.336,7.356,3.387c1.733,0.684,3.535,1.301,5.407,1.847
			c1.869,0.546,3.593,1.164,5.166,1.849c1.574,0.685,2.864,1.484,3.867,2.394c1.003,0.914,1.503,2.055,1.503,3.424
			c0,2.144-1.104,3.74-3.318,4.79c-2.211,1.05-5.232,1.573-9.065,1.573c-3.148,0-6.491-0.523-10.026-1.573s-7.082-2.646-10.64-4.79
			v17.517c6.57,2.373,13.708,3.56,21.419,3.56c4.195,0,8.245-0.422,12.146-1.265c3.9-0.845,7.346-2.191,10.333-4.039
			c2.988-1.846,5.383-4.243,7.186-7.188c1.802-2.941,2.703-6.488,2.703-10.639c0-2.967-0.444-5.521-1.333-7.664
			C631.03,103.789,629.753,101.918,628.086,100.321z"/>
		<linearGradient id="SVGID_10_" gradientUnits="userSpaceOnUse" x1="778.3115" y1="273.6748" x2="196.2642" y2="-308.3726">
			<stop  offset="0" style="stop-color:#3BAF93"/>
			<stop  offset="0.0564" style="stop-color:#48A78E"/>
			<stop  offset="0.1596" style="stop-color:#5F9583"/>
			<stop  offset="0.2983" style="stop-color:#747771"/>
			<stop  offset="0.465" style="stop-color:#824E5C"/>
			<stop  offset="0.5806" style="stop-color:#87234C"/>
			<stop  offset="0.7061" style="stop-color:#6D2444"/>
			<stop  offset="0.9771" style="stop-color:#331A2C"/>
			<stop  offset="1" style="stop-color:#2E182A"/>
		</linearGradient>
		<path fill="url(#SVGID_10_)" d="M628.086,100.321c-1.664-1.597-3.66-2.985-5.985-4.175c-2.328-1.187-4.929-2.281-7.802-3.284
			c-1.599-0.547-3.205-1.084-4.824-1.607c-1.621-0.524-3.093-1.117-4.414-1.78c-1.323-0.661-2.395-1.446-3.217-2.359
			c-0.82-0.913-1.232-2.008-1.232-3.286c0-0.957,0.275-1.814,0.822-2.567c0.548-0.752,1.298-1.368,2.258-1.847
			c0.958-0.479,2.063-0.844,3.319-1.095c1.255-0.25,2.589-0.376,4.004-0.376c3.011,0,6.077,0.4,9.203,1.197
			c3.123,0.798,6.056,1.996,8.793,3.593V66.038c-3.102-0.913-6.25-1.609-9.443-2.087c-3.193-0.48-6.342-0.719-9.443-0.719
			c-3.969,0-7.79,0.422-11.461,1.266c-3.675,0.845-6.937,2.167-9.785,3.969c-2.854,1.804-5.134,4.117-6.845,6.947
			c-1.712,2.828-2.565,6.205-2.565,10.126c0,2.875,0.377,5.361,1.129,7.46s1.847,3.946,3.285,5.543
			c1.436,1.597,3.215,3.001,5.336,4.209c2.122,1.209,4.573,2.336,7.356,3.387c1.733,0.684,3.535,1.301,5.407,1.847
			c1.869,0.546,3.593,1.164,5.166,1.849c1.574,0.685,2.864,1.484,3.867,2.394c1.003,0.914,1.503,2.055,1.503,3.424
			c0,2.144-1.104,3.74-3.318,4.79c-2.211,1.05-5.232,1.573-9.065,1.573c-3.148,0-6.491-0.523-10.026-1.573s-7.082-2.646-10.64-4.79
			v17.517c6.57,2.373,13.708,3.56,21.419,3.56c4.195,0,8.245-0.422,12.146-1.265c3.9-0.845,7.346-2.191,10.333-4.039
			c2.988-1.846,5.383-4.243,7.186-7.188c1.802-2.941,2.703-6.488,2.703-10.639c0-2.967-0.444-5.521-1.333-7.664
			C631.03,103.789,629.753,101.918,628.086,100.321z"/>
		<path d="M689.163,63.231c-9.08,0-16.266,4.038-21.556,12.113h-0.274V31.274h-21.622v103.741h21.622V95.052
			c0-4.424,1.187-8.075,3.56-10.949c2.371-2.874,5.474-4.311,9.306-4.311c7.481,0,11.224,5.132,11.224,15.396v39.828h21.556V91.974
			C712.978,72.811,705.038,63.231,689.163,63.231z"/>
		<linearGradient id="SVGID_11_" gradientUnits="userSpaceOnUse" x1="812.8477" y1="239.1387" x2="230.8032" y2="-342.9058">
			<stop  offset="0" style="stop-color:#3BAF93"/>
			<stop  offset="0.0564" style="stop-color:#48A78E"/>
			<stop  offset="0.1596" style="stop-color:#5F9583"/>
			<stop  offset="0.2983" style="stop-color:#747771"/>
			<stop  offset="0.465" style="stop-color:#824E5C"/>
			<stop  offset="0.5806" style="stop-color:#87234C"/>
			<stop  offset="0.7061" style="stop-color:#6D2444"/>
			<stop  offset="0.9771" style="stop-color:#331A2C"/>
			<stop  offset="1" style="stop-color:#2E182A"/>
		</linearGradient>
		<path fill="url(#SVGID_11_)" d="M689.163,63.231c-9.08,0-16.266,4.038-21.556,12.113h-0.274V31.274h-21.622v103.741h21.622V95.052
			c0-4.424,1.187-8.075,3.56-10.949c2.371-2.874,5.474-4.311,9.306-4.311c7.481,0,11.224,5.132,11.224,15.396v39.828h21.556V91.974
			C712.978,72.811,705.038,63.231,689.163,63.231z"/>
		<path d="M774.495,63.231c-9.853,0-17.358,4.267-22.512,12.797h-0.273V64.942h-21.626v70.073h21.626V95.052
			c0-4.424,1.208-8.075,3.625-10.949c2.419-2.874,5.497-4.311,9.239-4.311c7.755,0,11.634,5.43,11.634,16.285v38.938h21.556V92.108
			C797.764,72.857,790.006,63.231,774.495,63.231z"/>
		<linearGradient id="SVGID_12_" gradientUnits="userSpaceOnUse" x1="855.1719" y1="196.8154" x2="273.1176" y2="-385.2388">
			<stop  offset="0" style="stop-color:#3BAF93"/>
			<stop  offset="0.0564" style="stop-color:#48A78E"/>
			<stop  offset="0.1596" style="stop-color:#5F9583"/>
			<stop  offset="0.2983" style="stop-color:#747771"/>
			<stop  offset="0.465" style="stop-color:#824E5C"/>
			<stop  offset="0.5806" style="stop-color:#87234C"/>
			<stop  offset="0.7061" style="stop-color:#6D2444"/>
			<stop  offset="0.9771" style="stop-color:#331A2C"/>
			<stop  offset="1" style="stop-color:#2E182A"/>
		</linearGradient>
		<path fill="url(#SVGID_12_)" d="M774.495,63.231c-9.853,0-17.358,4.267-22.512,12.797h-0.273V64.942h-21.626v70.073h21.626V95.052
			c0-4.424,1.208-8.075,3.625-10.949c2.419-2.874,5.497-4.311,9.239-4.311c7.755,0,11.634,5.43,11.634,16.285v38.938h21.556V92.108
			C797.764,72.857,790.006,63.231,774.495,63.231z"/>
		<path d="M843.201,63.231c-4.291,0-9.045,0.593-14.268,1.779c-5.225,1.188-9.341,2.556-12.353,4.107v16.287
			c7.528-4.973,15.465-7.46,23.814-7.46c8.303,0,12.455,3.832,12.455,11.498l-19.026,2.531
			c-16.104,2.096-24.154,9.944-24.154,23.541c0,6.43,1.949,11.574,5.851,15.429c3.901,3.856,9.248,5.783,16.046,5.783
			c9.217,0,16.173-3.924,20.873-11.771h0.273v10.06h20.461v-41.88C873.174,73.2,863.183,63.231,843.201,63.231z M852.851,106.549
			c0,4.289-1.279,7.835-3.832,10.639c-2.557,2.808-5.864,4.208-9.924,4.208c-2.92,0-5.234-0.784-6.947-2.36
			c-1.709-1.571-2.564-3.59-2.564-6.056c0-5.428,3.512-8.598,10.539-9.511l12.729-1.643V106.549z"/>
		<linearGradient id="SVGID_13_" gradientUnits="userSpaceOnUse" x1="895.8809" y1="156.1064" x2="313.834" y2="-425.9404">
			<stop  offset="0" style="stop-color:#3BAF93"/>
			<stop  offset="0.0564" style="stop-color:#48A78E"/>
			<stop  offset="0.1596" style="stop-color:#5F9583"/>
			<stop  offset="0.2983" style="stop-color:#747771"/>
			<stop  offset="0.465" style="stop-color:#824E5C"/>
			<stop  offset="0.5806" style="stop-color:#87234C"/>
			<stop  offset="0.7061" style="stop-color:#6D2444"/>
			<stop  offset="0.9771" style="stop-color:#331A2C"/>
			<stop  offset="1" style="stop-color:#2E182A"/>
		</linearGradient>
		<path fill="url(#SVGID_13_)" d="M843.201,63.231c-4.291,0-9.045,0.593-14.268,1.779c-5.225,1.188-9.341,2.556-12.353,4.107v16.287
			c7.528-4.973,15.465-7.46,23.814-7.46c8.303,0,12.455,3.832,12.455,11.498l-19.026,2.531
			c-16.104,2.096-24.154,9.944-24.154,23.541c0,6.43,1.949,11.574,5.851,15.429c3.901,3.856,9.248,5.783,16.046,5.783
			c9.217,0,16.173-3.924,20.873-11.771h0.273v10.06h20.461v-41.88C873.174,73.2,863.183,63.231,843.201,63.231z M852.851,106.549
			c0,4.289-1.279,7.835-3.832,10.639c-2.557,2.808-5.864,4.208-9.924,4.208c-2.92,0-5.234-0.784-6.947-2.36
			c-1.709-1.571-2.564-3.59-2.564-6.056c0-5.428,3.512-8.598,10.539-9.511l12.729-1.643V106.549z"/>
	</g>
</g>
</svg>
